SplineFontDB: 3.0
FontName: Parastoo-Bold
FullName: Parastoo Bold
FamilyName: Parastoo
Weight: Bold
Copyright: Copyright (c) 2003 by Bitstream, Inc. All Rights Reserved.\nDejaVu changes are in public domain\nCopyright (c) 2015 by Saber Rastikerdar. All Rights Reserved.
Version: 0.6
ItalicAngle: 0
UnderlinePosition: -100
UnderlineWidth: 100
Ascent: 1536
Descent: 512
InvalidEm: 0
LayerCount: 2
Layer: 0 1 "Back" 1
Layer: 1 1 "Fore" 0
XUID: [1021 502 1027637223 16570990]
UniqueID: 4065601
UseUniqueID: 1
FSType: 0
OS2Version: 1
OS2_WeightWidthSlopeOnly: 0
OS2_UseTypoMetrics: 1
CreationTime: 1431850356
ModificationTime: 1449992897
PfmFamily: 17
TTFWeight: 600
TTFWidth: 5
LineGap: 0
VLineGap: 0
Panose: 2 11 6 3 3 8 4 2 2 4
OS2TypoAscent: 2000
OS2TypoAOffset: 0
OS2TypoDescent: -1000
OS2TypoDOffset: 0
OS2TypoLinegap: 0
OS2WinAscent: 2000
OS2WinAOffset: 0
OS2WinDescent: 1000
OS2WinDOffset: 0
HheadAscent: 2000
HheadAOffset: 0
HheadDescent: -1000
HheadDOffset: 0
OS2SubXSize: 1331
OS2SubYSize: 1433
OS2SubXOff: 0
OS2SubYOff: 286
OS2SupXSize: 1331
OS2SupYSize: 1433
OS2SupXOff: 0
OS2SupYOff: 983
OS2StrikeYSize: 102
OS2StrikeYPos: 530
OS2Vendor: 'PfEd'
OS2CodePages: 600001ff.dfff0000
Lookup: 1 0 0 "'case' Case-Sensitive Forms in Latin lookup 0" { "'case' Case-Sensitive Forms in Latin lookup 0 subtable"  } ['case' ('DFLT' <'dflt' > 'latn' <'CAT ' 'ESP ' 'GAL ' 'dflt' > ) ]
Lookup: 6 1 0 "'ccmp' Glyph Composition/Decomposition lookup 2" { "'ccmp' Glyph Composition/Decomposition lookup 2 subtable"  } ['ccmp' ('arab' <'KUR ' 'SND ' 'URD ' 'dflt' > 'hebr' <'dflt' > 'nko ' <'dflt' > ) ]
Lookup: 6 0 0 "'ccmp' Glyph Composition/Decomposition lookup 3" { "'ccmp' Glyph Composition/Decomposition lookup 3 subtable"  } ['ccmp' ('cyrl' <'MKD ' 'SRB ' 'dflt' > 'grek' <'dflt' > 'latn' <'ISM ' 'KSM ' 'LSM ' 'MOL ' 'NSM ' 'ROM ' 'SKS ' 'SSM ' 'dflt' > ) ]

StartChar: afii57388
Encoding: 1548 1548 2
Width: 679
VWidth: 2196
GlyphClass: 2
Flags: W
LayerCount: 2
Fore
SplineSet
411.619 333.236 m 1,0,1
 465.243 328.907 465.243 328.907 493.449 290.178 c 128,-1,2
 521.655 251.449 521.655 251.449 521.655 193.489 c 2,3,-1
 521.655 139.235 l 2,4,5
 521.655 78.5928 521.655 78.5928 489.431 40.2959 c 128,-1,6
 457.207 2 457.207 2 399.761 2 c 2,7,-1
 325.191 2 l 2,8,9
 264.399 1.3584 264.399 1.3584 230.975 37.542 c 0,10,11
 198.979 72.1768 198.979 72.1768 198.979 135.277 c 2,12,-1
 198.979 256.234 l 1,13,-1
 199.148 258.071 l 2,14,15
 220.246 486.242 220.246 486.242 431.221 666.233 c 2,16,-1
 451.366 683.421 l 1,17,-1
 579.925 619.205 l 1,18,-1
 544.646 580.136 l 2,19,20
 429.051 452.117 429.051 452.117 411.619 333.236 c 1,0,1
EndSplineSet
EndChar

StartChar: uni0615
Encoding: 1557 1557 3
Width: 2048
GlyphClass: 4
Flags: W
LayerCount: 2
Fore
SplineSet
461.916 1454.96 m 1,0,-1
 552.12 1454.96 l 2,1,2
 639.683 1454.96 639.683 1454.96 666.9 1471.04 c 0,3,4
 698.542 1490.74 698.542 1490.74 714.482 1506.89 c 0,5,6
 730.83 1523.45 730.83 1523.45 730.83 1541.65 c 0,7,8
 730.83 1584.28 730.83 1584.28 689.992 1606.69 c 1,9,-1
 689.688 1606.83 l 2,10,11
 681.495 1609.68 681.495 1609.68 672.268 1607.4 c 0,12,13
 663.451 1605.21 663.451 1605.21 639.491 1594.46 c 0,14,15
 615.748 1583.82 615.748 1583.82 601.116 1578.04 c 0,16,17
 541.822 1554.1 541.822 1554.1 481.59 1479.37 c 2,18,-1
 461.916 1454.96 l 1,0,-1
576.73 1376.89 m 2,19,-1
 284.64 1376.89 l 1,20,-1
 284.64 1454.96 l 1,21,-1
 371.31 1454.96 l 1,22,-1
 371.31 1881.89 l 1,23,-1
 450.45 1881.89 l 1,24,-1
 450.45 1489.09 l 1,25,-1
 478.903 1546.79 l 2,26,27
 514.827 1619.63 514.827 1619.63 620.59 1660.31 c 0,28,29
 682.725 1683.98 682.725 1683.98 752.251 1658.16 c 0,30,31
 812.11 1635.13 812.11 1635.13 812.11 1557.7 c 0,32,33
 812.11 1467.64 812.11 1467.64 749.42 1418.67 c 0,34,35
 695.7 1376.89 695.7 1376.89 576.73 1376.89 c 2,19,-1
EndSplineSet
EndChar

StartChar: uni061B
Encoding: 1563 1563 4
Width: 666
VWidth: 2196
GlyphClass: 2
Flags: W
LayerCount: 2
Fore
SplineSet
475.072 20.3271 m 1,0,1
 457.018 2 457.018 2 433.305 2 c 2,2,-1
 263.331 2 l 2,3,4
 235.484 2 235.484 2 220.027 19.2217 c 0,5,6
 206.179 34.6523 206.179 34.6523 206.179 62.7432 c 2,7,-1
 206.179 232.717 l 2,8,9
 206.179 260.126 206.179 260.126 220.794 275.297 c 0,10,11
 235.985 291.066 235.985 291.066 263.331 291.066 c 2,12,-1
 429.714 291.066 l 2,13,14
 456.79 291.066 456.79 291.066 471.828 276.028 c 128,-1,15
 486.866 260.99 486.866 260.99 486.866 233.914 c 2,16,-1
 486.866 62.7432 l 2,17,18
 486.866 38.3447 486.866 38.3447 475.072 20.3271 c 1,0,1
392.75 777.295 m 1,19,20
 446.406 772.964 446.406 772.964 474.61 734.239 c 128,-1,21
 502.815 695.514 502.815 695.514 502.815 637.546 c 2,22,-1
 502.815 583.292 l 2,23,24
 502.815 522.648 502.815 522.648 470.591 484.353 c 128,-1,25
 438.366 446.057 438.366 446.057 380.92 446.057 c 2,26,-1
 306.15 446.057 l 2,27,28
 247.934 446.057 247.934 446.057 214.036 482.834 c 128,-1,29
 180.139 519.61 180.139 519.61 180.139 579.334 c 2,30,-1
 180.139 700.29 l 1,31,-1
 180.309 702.128 l 2,32,33
 201.407 930.3 201.407 930.3 412.381 1110.29 c 2,34,-1
 432.526 1127.48 l 1,35,-1
 561.083 1063.26 l 1,36,-1
 525.806 1024.19 l 2,37,38
 409.949 895.885 409.949 895.885 392.75 777.295 c 1,19,20
EndSplineSet
EndChar

StartChar: uni061F
Encoding: 1567 1567 5
Width: 1123
VWidth: 2190
GlyphClass: 2
Flags: W
LayerCount: 2
Fore
SplineSet
767.014 233.914 m 2,0,-1
 767.014 62.7432 l 2,1,2
 767.014 61.9102 767.014 61.9102 767.117 57.4492 c 128,-1,3
 767.22 52.9883 767.22 52.9883 767.143 51.0898 c 128,-1,4
 767.066 49.1914 767.066 49.1914 766.458 44.7422 c 128,-1,5
 765.85 40.293 765.85 40.293 764.646 37.1367 c 128,-1,6
 763.44 33.9814 763.44 33.9814 761.056 29.5078 c 128,-1,7
 758.671 25.0352 758.671 25.0352 755.258 20.7432 c 0,8,9
 740.352 2 740.352 2 713.453 2 c 2,10,-1
 543.479 2 l 2,11,12
 515.628 2 515.628 2 500.176 19.2207 c 0,13,14
 486.327 34.6523 486.327 34.6523 486.327 62.7432 c 2,15,-1
 486.327 232.717 l 2,16,17
 486.327 260.127 486.327 260.127 500.942 275.298 c 0,18,19
 516.133 291.066 516.133 291.066 543.479 291.066 c 2,20,-1
 709.862 291.066 l 2,21,22
 736.938 291.066 736.938 291.066 751.973 276.032 c 128,-1,23
 767.014 260.995 767.014 260.995 767.014 233.914 c 2,0,-1
497.799 446.15 m 1,24,-1
 497.799 451.7 l 2,25,26
 497.797 508.127 497.797 508.127 494.784 535.065 c 0,27,28
 491.93 563.613 491.93 563.613 486.377 583.367 c 0,29,30
 479.22 605.281 479.22 605.281 461.675 629.125 c 0,31,32
 439.585 659.14 439.585 659.14 394.776 702.932 c 2,33,-1
 302.487 793.125 l 1,34,35
 204.844 886.429 204.844 886.429 164.955 962.33 c 0,36,37
 123.998 1040.26 123.998 1040.26 123.998 1126.85 c 0,38,39
 123.998 1306.32 123.998 1306.32 250.523 1416.4 c 0,40,41
 375.352 1525 375.352 1525 578.849 1525 c 4,42,43
 701.005 1525 701.005 1525 797.004 1494.21 c 0,44,45
 897.573 1461.95 897.573 1461.95 978.688 1414.63 c 2,46,-1
 1007.93 1397.57 l 1,47,-1
 929.624 1190.76 l 1,48,-1
 889.718 1211.45 l 2,49,50
 725.005 1296.85 725.005 1296.85 615.424 1297.8 c 0,51,52
 512.214 1297.8 512.214 1297.8 451.108 1246.49 c 0,53,54
 392.148 1196.98 392.148 1196.98 392.148 1116.35 c 0,55,56
 392.148 1071.87 392.148 1071.87 415.596 1028.66 c 0,57,58
 440.22 983.27 440.22 983.27 497.084 930.4 c 1,59,-1
 591.7 836.835 l 1,60,61
 689.296 743.371 689.296 743.371 721.704 669.431 c 0,62,63
 753.348 598.55 753.348 598.55 753.349 484.25 c 2,64,-1
 753.349 446.15 l 1,65,-1
 497.799 446.15 l 1,24,-1
EndSplineSet
EndChar

StartChar: uni0621
Encoding: 1569 1569 6
Width: 800
VWidth: 2422
GlyphClass: 2
Flags: W
AnchorPoint: "Anchor-7" 374.066 -226.188 basechar 0
AnchorPoint: "Anchor-10" 321.199 1099.95 basechar 0
LayerCount: 2
Fore
SplineSet
41.3115 -50.2607 m 1,0,-1
 41.3115 161.042 l 1,1,-1
 70.5352 169.218 l 2,2,3
 166.379 196.03 166.379 196.03 239.466 225.961 c 1,4,5
 144.7 262.355 144.7 262.355 95.0078 334.521 c 128,-1,6
 45.3154 406.688 45.3154 406.688 45.3154 507.742 c 0,7,8
 45.3154 711.294 45.3154 711.294 204.075 809.121 c 0,9,10
 357.103 903.416 357.103 903.416 588.768 852.801 c 2,11,-1
 620.23 845.928 l 1,12,-1
 620.23 621.475 l 1,13,-1
 569.505 635.592 l 2,14,15
 490.634 657.543 490.634 657.543 435.012 655.954 c 0,16,17
 391.378 655.133 391.378 655.133 347.567 633.229 c 0,18,19
 306.327 612.609 306.327 612.609 287.232 580.526 c 128,-1,20
 268.138 548.443 268.138 548.443 268.138 498.395 c 0,21,22
 268.138 441.411 268.138 441.411 301.835 408.15 c 128,-1,23
 335.531 374.889 335.531 374.889 415.186 360.356 c 0,24,25
 472.85 349.67 472.85 349.67 526.875 362.599 c 1,26,27
 622.576 388.518 622.576 388.518 641.012 396.799 c 2,28,-1
 697.401 422.126 l 1,29,-1
 697.401 200.672 l 1,30,-1
 678.865 188.885 l 2,31,32
 588.408 131.358 588.408 131.358 398.965 57.4297 c 0,33,34
 196.56 -21.4346 196.56 -21.4346 88.6133 -41.4775 c 2,35,-1
 41.3115 -50.2607 l 1,0,-1
EndSplineSet
EndChar

StartChar: uni0627
Encoding: 1575 1575 12
Width: 471
VWidth: 2399
GlyphClass: 2
Flags: W
AnchorPoint: "Anchor-10" 212.835 1522.03 basechar 0
AnchorPoint: "Anchor-7" 187.025 -277.251 basechar 0
LayerCount: 2
Fore
SplineSet
339.389 1473.29 m 5,0,-1
 315.032 218.874 l 2,1,2
 314.063 168.977 314.063 168.977 308.348 131.068 c 0,3,4
 302.54 92.5488 302.54 92.5488 289.729 58.7627 c 128,-1,5
 276.917 24.9756 276.917 24.9756 253.318 5.11426 c 128,-1,6
 229.723 -14.7454 229.723 -14.7454 196.273 -18.2656 c 2,7,-1
 144.986 -23.6631 l 1,8,-1
 91.8838 1316.29 l 1,9,-1
 339.389 1473.29 l 5,0,-1
EndSplineSet
Substitution2: "'fina' Terminal Forms in Arabic lookup 9 subtable" uniFE8E
EndChar

StartChar: uni062D
Encoding: 1581 1581 18
Width: 1349
VWidth: 2380
GlyphClass: 2
Flags: W
AnchorPoint: "Anchor-10" 542.174 1354.83 basechar 0
AnchorPoint: "Anchor-7" 378.327 -815.84 basechar 0
LayerCount: 2
Fore
SplineSet
428.912109375 749.134765625 m 0,0,1
 291.942382812 749.021484375 291.942382812 749.021484375 199.247070312 541.680664062 c 2,2,-1
 186.606445312 513.404296875 l 1,3,-1
 144.428710938 520.53125 l 2,4,5
 25.5873187913 539.599129664 25.5873187913 539.599129664 160.2265625 806.895507812 c 0,6,7
 248.219201589 984.024282195 248.219201589 984.024282195 420.012695312 983.850585938 c 0,8,9
 530.93643153 984.013722788 530.93643153 984.013722788 690.008743109 899.644556706 c 128,-1,10
 849.081054688 815.275390625 849.081054688 815.275390625 951.688476562 785.547851562 c 128,-1,11
 1054.29589844 755.8203125 1054.29589844 755.8203125 1166.39550781 752.2734375 c 2,12,-1
 1211.90332031 750.833007812 l 1,13,-1
 1175.40429688 525.797851562 l 1,14,-1
 1142.31640625 524.889648438 l 2,15,16
 934.359375 519.186523438 934.359375 519.186523438 728.770996094 446.711425781 c 128,-1,17
 523.182617188 374.236328125 523.182617188 374.236328125 410.6484375 251.999023438 c 128,-1,18
 298.115234375 129.760742188 298.115234375 129.760742188 298.069335938 -29.4360351562 c 128,-1,19
 298.0234375 -188.6328125 298.0234375 -188.6328125 435.431640625 -296.820800781 c 128,-1,20
 572.83984375 -405.008789062 572.83984375 -405.008789062 831.0859375 -405.165039062 c 0,21,22
 1007.44042969 -405.00390625 1007.44042969 -405.00390625 1208.96289062 -358.647460938 c 2,23,-1
 1256.61914062 -347.685546875 l 1,24,-1
 1257.91601562 -396.569335938 l 2,25,26
 1259.26953125 -447.622070312 1259.26953125 -447.622070312 1192.78320312 -499.3984375 c 0,27,28
 1054.14652215 -610.307104583 1054.14652215 -610.307104583 748.12158039 -610.307104583 c 128,-1,29
 442.096638633 -610.307104583 442.096638633 -610.307104583 246.547831035 -464.524646042 c 128,-1,30
 50.9990234375 -318.7421875 50.9990234375 -318.7421875 51.015625 -62.28515625 c 0,31,32
 50.9990234375 293.374023438 50.9990234375 293.374023438 410.48046875 514.168945312 c 0,33,34
 554.642578125 602.672851562 554.642578125 602.672851562 726.615234375 647.166015625 c 1,35,36
 691.309570312 662.612304688 691.309570312 662.612304688 651.481445312 682.142578125 c 0,37,38
 514.717773438 749.012695312 514.717773438 749.012695312 428.912109375 749.134765625 c 0,0,1
EndSplineSet
Substitution2: "'fina' Terminal Forms in Arabic lookup 9 subtable" uniFEA2
Substitution2: "'medi' Medial Forms in Arabic lookup 11 subtable" uniFEA4
Substitution2: "'init' Initial Forms in Arabic lookup 13 subtable" uniFEA3
EndChar

StartChar: uni062F
Encoding: 1583 1583 20
Width: 942
VWidth: 2418
GlyphClass: 2
Flags: W
AnchorPoint: "Anchor-10" 175.838 1219.94 basechar 0
AnchorPoint: "Anchor-7" 230.512 -239.465 basechar 0
LayerCount: 2
Fore
SplineSet
650.869 367.407 m 1,0,1
 581.409 557.7 581.409 557.7 330.835 725.596 c 2,2,-1
 304.74 743.081 l 1,3,-1
 413.042 1038.91 l 1,4,-1
 456.834 1001.22 l 2,5,6
 730.875 765.388 730.875 765.388 806.991 546.848 c 0,7,8
 862.075 388.694 862.075 388.694 849.818 292.315 c 0,9,10
 841.225 224.74 841.225 224.74 816.143 170.38 c 1,11,12
 731.523 -44.9238 731.523 -44.9238 321.085 -15.1709 c 1,13,-1
 285.43 -11.1533 l 1,14,15
 173.611 5.00098 173.611 5.00098 112.379 67.458 c 128,-1,16
 51.1465 129.914 51.1465 129.914 51.1973 232.023 c 2,17,-1
 51.6162 395.148 l 1,18,-1
 75.7744 405.516 l 2,19,20
 101.848 416.704 101.848 416.704 129.879 405.943 c 2,21,-1
 152.018 397.444 l 1,22,-1
 155.185 373.942 l 2,23,24
 162.758 317.756 162.758 317.756 206.388 287.221 c 128,-1,25
 250.018 256.686 250.018 256.686 343.184 251.041 c 0,26,27
 556.939 238.409 556.939 238.409 624.033 274.2 c 0,28,29
 648.25 286.694 648.25 286.694 654.576 305.671 c 128,-1,30
 660.903 324.647 660.903 324.647 650.869 367.407 c 1,0,1
EndSplineSet
Substitution2: "'fina' Terminal Forms in Arabic lookup 9 subtable" uniFEAA
EndChar

StartChar: uni0631
Encoding: 1585 1585 22
Width: 844
VWidth: 2088
GlyphClass: 2
Flags: W
AnchorPoint: "Anchor-7" 438.116 -690.845 basechar 0
AnchorPoint: "Anchor-10" 406.823 1075.83 basechar 0
LayerCount: 2
Fore
SplineSet
459.12 448.541 m 2,0,1
 525.619 535.165 525.619 535.165 635.816 596.299 c 1,2,-1
 652.62 563.96 l 2,3,4
 757.353 362.403 757.353 362.403 753.179 82.2803 c 1,5,6
 698.248 -284.536 698.248 -284.536 478.578 -455.927 c 5,7,8
 230.914 -493.758 230.914 -493.758 -37.3516 -430 c 1,9,10
 509.218 -237.453 509.218 -237.453 561.774 122.129 c 0,11,12
 574.746 211.785 574.746 211.785 457.215 405.136 c 2,13,-1
 443.332 427.975 l 1,14,-1
 459.12 448.541 l 2,0,1
EndSplineSet
PairPos2: "'kern' Horizontal Kerning lookup 15-1" uni06CC dx=-148 dy=0 dh=-148 dv=0 dx=0 dy=0 dh=0 dv=0
PairPos2: "'kern' Horizontal Kerning lookup 15-1" uniFEEB dx=-224 dy=0 dh=-224 dv=0 dx=0 dy=0 dh=0 dv=0
PairPos2: "'kern' Horizontal Kerning lookup 15-1" uniFB7C dx=-148 dy=0 dh=-148 dv=0 dx=0 dy=0 dh=0 dv=0
PairPos2: "'kern' Horizontal Kerning lookup 15-1" uniFB58 dx=63 dy=0 dh=63 dv=0 dx=0 dy=0 dh=0 dv=0
PairPos2: "'kern' Horizontal Kerning lookup 15-1" uniFEF3 dx=63 dy=0 dh=63 dv=0 dx=0 dy=0 dh=0 dv=0
PairPos2: "'kern' Horizontal Kerning lookup 15-1" uniFBFE dx=63 dy=0 dh=63 dv=0 dx=0 dy=0 dh=0 dv=0
PairPos2: "'kern' Horizontal Kerning lookup 15-1" uniFEDF dx=-224 dy=0 dh=-224 dv=0 dx=0 dy=0 dh=0 dv=0
PairPos2: "'kern' Horizontal Kerning lookup 15-1" uniFB90 dx=-224 dy=0 dh=-224 dv=0 dx=0 dy=0 dh=0 dv=0
PairPos2: "'kern' Horizontal Kerning lookup 15-1" uni06A9 dx=-224 dy=0 dh=-224 dv=0 dx=0 dy=0 dh=0 dv=0
PairPos2: "'kern' Horizontal Kerning lookup 15-1" uni0649 dx=-148 dy=0 dh=-148 dv=0 dx=0 dy=0 dh=0 dv=0
PairPos2: "'kern' Horizontal Kerning lookup 15-1" uni0647 dx=-224 dy=0 dh=-224 dv=0 dx=0 dy=0 dh=0 dv=0
PairPos2: "'kern' Horizontal Kerning lookup 15-1" uniFEE7 dx=-224 dy=0 dh=-224 dv=0 dx=0 dy=0 dh=0 dv=0
PairPos2: "'kern' Horizontal Kerning lookup 15-1" uniFEE3 dx=-224 dy=0 dh=-224 dv=0 dx=0 dy=0 dh=0 dv=0
PairPos2: "'kern' Horizontal Kerning lookup 15-1" uni0645 dx=-224 dy=0 dh=-224 dv=0 dx=0 dy=0 dh=0 dv=0
PairPos2: "'kern' Horizontal Kerning lookup 15-1" uni0644 dx=-148 dy=0 dh=-148 dv=0 dx=0 dy=0 dh=0 dv=0
PairPos2: "'kern' Horizontal Kerning lookup 15-1" uniFEDB dx=-224 dy=0 dh=-224 dv=0 dx=0 dy=0 dh=0 dv=0
PairPos2: "'kern' Horizontal Kerning lookup 15-1" uniFED7 dx=-224 dy=0 dh=-224 dv=0 dx=0 dy=0 dh=0 dv=0
PairPos2: "'kern' Horizontal Kerning lookup 15-1" uni0642 dx=-148 dy=0 dh=-148 dv=0 dx=0 dy=0 dh=0 dv=0
PairPos2: "'kern' Horizontal Kerning lookup 15-1" uniFED3 dx=-224 dy=0 dh=-224 dv=0 dx=0 dy=0 dh=0 dv=0
PairPos2: "'kern' Horizontal Kerning lookup 15-1" uni0641 dx=-224 dy=0 dh=-224 dv=0 dx=0 dy=0 dh=0 dv=0
PairPos2: "'kern' Horizontal Kerning lookup 15-1" uniFECF dx=-224 dy=0 dh=-224 dv=0 dx=0 dy=0 dh=0 dv=0
PairPos2: "'kern' Horizontal Kerning lookup 15-1" uniFECB dx=-224 dy=0 dh=-224 dv=0 dx=0 dy=0 dh=0 dv=0
PairPos2: "'kern' Horizontal Kerning lookup 15-1" uniFEC7 dx=-224 dy=0 dh=-224 dv=0 dx=0 dy=0 dh=0 dv=0
PairPos2: "'kern' Horizontal Kerning lookup 15-1" uni0638 dx=-224 dy=0 dh=-224 dv=0 dx=0 dy=0 dh=0 dv=0
PairPos2: "'kern' Horizontal Kerning lookup 15-1" uniFEC3 dx=-224 dy=0 dh=-224 dv=0 dx=0 dy=0 dh=0 dv=0
PairPos2: "'kern' Horizontal Kerning lookup 15-1" uni0637 dx=-224 dy=0 dh=-224 dv=0 dx=0 dy=0 dh=0 dv=0
PairPos2: "'kern' Horizontal Kerning lookup 15-1" uniFEBF dx=-224 dy=0 dh=-224 dv=0 dx=0 dy=0 dh=0 dv=0
PairPos2: "'kern' Horizontal Kerning lookup 15-1" uni0636 dx=-224 dy=0 dh=-224 dv=0 dx=0 dy=0 dh=0 dv=0
PairPos2: "'kern' Horizontal Kerning lookup 15-1" uniFEBB dx=-224 dy=0 dh=-224 dv=0 dx=0 dy=0 dh=0 dv=0
PairPos2: "'kern' Horizontal Kerning lookup 15-1" uni0635 dx=-224 dy=0 dh=-224 dv=0 dx=0 dy=0 dh=0 dv=0
PairPos2: "'kern' Horizontal Kerning lookup 15-1" uniFEB7 dx=-224 dy=0 dh=-224 dv=0 dx=0 dy=0 dh=0 dv=0
PairPos2: "'kern' Horizontal Kerning lookup 15-1" uni0634 dx=-224 dy=0 dh=-224 dv=0 dx=0 dy=0 dh=0 dv=0
PairPos2: "'kern' Horizontal Kerning lookup 15-1" uniFEB3 dx=-224 dy=0 dh=-224 dv=0 dx=0 dy=0 dh=0 dv=0
PairPos2: "'kern' Horizontal Kerning lookup 15-1" uni0633 dx=-224 dy=0 dh=-224 dv=0 dx=0 dy=0 dh=0 dv=0
PairPos2: "'kern' Horizontal Kerning lookup 15-1" uni0630 dx=-224 dy=0 dh=-224 dv=0 dx=0 dy=0 dh=0 dv=0
PairPos2: "'kern' Horizontal Kerning lookup 15-1" uni062F dx=-224 dy=0 dh=-224 dv=0 dx=0 dy=0 dh=0 dv=0
PairPos2: "'kern' Horizontal Kerning lookup 15-1" uniFEA7 dx=-224 dy=0 dh=-224 dv=0 dx=0 dy=0 dh=0 dv=0
PairPos2: "'kern' Horizontal Kerning lookup 15-1" uniFEA3 dx=-224 dy=0 dh=-224 dv=0 dx=0 dy=0 dh=0 dv=0
PairPos2: "'kern' Horizontal Kerning lookup 15-1" uniFE9F dx=-224 dy=0 dh=-224 dv=0 dx=0 dy=0 dh=0 dv=0
PairPos2: "'kern' Horizontal Kerning lookup 15-1" uniFE9B dx=-224 dy=0 dh=-224 dv=0 dx=0 dy=0 dh=0 dv=0
PairPos2: "'kern' Horizontal Kerning lookup 15-1" uni062B dx=-224 dy=0 dh=-224 dv=0 dx=0 dy=0 dh=0 dv=0
PairPos2: "'kern' Horizontal Kerning lookup 15-1" uniFE97 dx=-224 dy=0 dh=-224 dv=0 dx=0 dy=0 dh=0 dv=0
PairPos2: "'kern' Horizontal Kerning lookup 15-1" uni062A dx=-224 dy=0 dh=-224 dv=0 dx=0 dy=0 dh=0 dv=0
PairPos2: "'kern' Horizontal Kerning lookup 15-1" uni0629 dx=-104 dy=0 dh=-104 dv=0 dx=0 dy=0 dh=0 dv=0
PairPos2: "'kern' Horizontal Kerning lookup 15-1" uniFE91 dx=-104 dy=0 dh=-104 dv=0 dx=0 dy=0 dh=0 dv=0
PairPos2: "'kern' Horizontal Kerning lookup 15-1" uni0628 dx=-224 dy=0 dh=-224 dv=0 dx=0 dy=0 dh=0 dv=0
PairPos2: "'kern' Horizontal Kerning lookup 15-1" uni0627 dx=-253 dy=0 dh=-253 dv=0 dx=0 dy=0 dh=0 dv=0
PairPos2: "'kern' Horizontal Kerning lookup 15-1" uni0622 dx=-253 dy=0 dh=-253 dv=0 dx=0 dy=0 dh=0 dv=0
PairPos2: "'kern' Horizontal Kerning lookup 15-1" uniFB94 dx=-224 dy=0 dh=-224 dv=0 dx=0 dy=0 dh=0 dv=0
PairPos2: "'kern' Horizontal Kerning lookup 15-1" afii57509 dx=-224 dy=0 dh=-224 dv=0 dx=0 dy=0 dh=0 dv=0
PairPos2: "'kern' Horizontal Kerning lookup 15-1" uniFB56 dx=-224 dy=0 dh=-224 dv=0 dx=0 dy=0 dh=0 dv=0
PairPos2: "'kern' Horizontal Kerning lookup 15-1" afii57506 dx=-224 dy=0 dh=-224 dv=0 dx=0 dy=0 dh=0 dv=0
Substitution2: "'fina' Terminal Forms in Arabic lookup 9 subtable" uniFEAE
EndChar

StartChar: uni0633
Encoding: 1587 1587 24
Width: 2324
VWidth: 2423
GlyphClass: 2
Flags: W
AnchorPoint: "Anchor-7" 300.282 -726.888 basechar 0
AnchorPoint: "Anchor-10" 513.988 954.333 basechar 0
LayerCount: 2
Fore
SplineSet
1483.01 -18.9844 m 0,0,1
 1408.01 -20.8887 1408.01 -20.8887 1355.35 6.63574 c 1,2,3
 1309.99 -250.683 1309.99 -250.683 1141.09 -384.859 c 128,-1,4
 972.198 -519.035 972.198 -519.035 690.133 -524.424 c 0,5,6
 287.804 -531.793 287.804 -531.793 129.658 -304.605 c 0,7,8
 5.61523 -124.977 5.61523 -124.977 72.0303 140.975 c 0,9,10
 88.8105 208.162 88.8105 208.162 126.198 318.242 c 0,11,12
 149.188 385.916 149.188 385.916 169.788 430.801 c 2,13,-1
 189.209 473.116 l 1,14,-1
 322.901 385.229 l 1,15,-1
 312.489 355.701 l 2,16,17
 209.826 64.5566 209.826 64.5566 272.424 -70.1484 c 0,18,19
 321.315 -173.107 321.315 -173.107 422.043 -223.103 c 128,-1,20
 522.771 -273.099 522.771 -273.099 684.348 -270.4 c 0,21,22
 918.623 -266.418 918.623 -266.418 1034.23 -194.724 c 128,-1,23
 1149.83 -123.029 1149.83 -123.029 1163.78 14.3018 c 1,24,-1
 1020.23 458.644 l 1,25,-1
 1245.48 671.759 l 1,26,-1
 1259.02 599.697 l 2,27,28
 1297.38 395.579 1297.38 395.579 1323.49 326.179 c 0,29,30
 1326.64 317.783 1326.64 317.783 1329.45 311.865 c 0,31,32
 1349.98 268.641 1349.98 268.641 1378.1 250.734 c 128,-1,33
 1406.23 232.828 1406.23 232.828 1448.22 234.817 c 2,34,-1
 1484.77 236.556 l 1,35,-1
 1486.01 236.538 l 2,36,37
 1525.06 235.97 1525.06 235.97 1551.9 257.639 c 128,-1,38
 1578.75 279.308 1578.75 279.308 1598.02 331.611 c 0,39,40
 1600.6 338.594 1600.6 338.594 1602.98 346.11 c 0,41,42
 1618.82 395.871 1618.82 395.871 1620.47 472.804 c 2,43,-1
 1620.5 474.169 l 1,44,-1
 1620.62 475.528 l 2,45,46
 1623.97 512.729 1623.97 512.729 1642.75 540.543 c 128,-1,47
 1661.53 568.355 1661.53 568.355 1698.55 568.665 c 0,48,49
 1735.79 568.995 1735.79 568.995 1758.7 543.396 c 128,-1,50
 1781.6 517.799 1781.6 517.799 1784.58 480.196 c 1,51,-1
 1785.78 455.714 l 2,52,53
 1791.26 344.194 1791.26 344.194 1826.47 295.995 c 128,-1,54
 1861.68 247.796 1861.68 247.796 1927.18 245.625 c 1,55,56
 1988.05 245.842 1988.05 245.842 2012.71 275.014 c 128,-1,57
 2037.37 304.186 2037.37 304.186 2034.67 378.47 c 0,58,59
 2034.2 385.947 2034.2 385.947 2021.46 416.851 c 128,-1,60
 2008.72 447.755 2008.72 447.755 1979.21 507.847 c 128,-1,61
 1949.71 567.939 1949.71 567.939 1911.51 637.279 c 2,62,-1
 1896.25 664.965 l 1,63,-1
 2067.19 820.062 l 2,64,65
 2073.5 826.09 2073.5 826.09 2086.84 838.042 c 128,-1,66
 2100.18 849.994 2100.18 849.994 2107.13 856.295 c 1,67,-1
 2130.22 807.566 l 2,68,69
 2220.9 616.189 2220.9 616.189 2232.49 432.56 c 0,70,71
 2244.5 234.608 2244.5 234.608 2146.77 101.492 c 0,72,73
 2053.01 -24.8281 2053.01 -24.8281 1918.3 -18.4062 c 0,74,75
 1838.02 -14.5801 1838.02 -14.5801 1802.98 1.96094 c 0,76,77
 1726.28 38.7588 1726.28 38.7588 1680.61 108.693 c 1,78,79
 1609.3 -14.793 1609.3 -14.793 1483.01 -18.9844 c 0,0,1
EndSplineSet
Substitution2: "'fina' Terminal Forms in Arabic lookup 9 subtable" uniFEB2
Substitution2: "'medi' Medial Forms in Arabic lookup 11 subtable" uniFEB4
Substitution2: "'init' Initial Forms in Arabic lookup 13 subtable" uniFEB3
EndChar

StartChar: uni0635
Encoding: 1589 1589 26
Width: 2483
VWidth: 2424
GlyphClass: 2
Flags: W
AnchorPoint: "Anchor-10" 394.818 955.73 basechar 0
AnchorPoint: "Anchor-7" 355.863 -767.193 basechar 0
LayerCount: 2
Fore
SplineSet
1637.27 245.054 m 1,0,-1
 1752.64 245.054 l 2,1,2
 1945.87 245.054 1945.87 245.054 2095.12 294.651 c 0,3,4
 2147.75 311.548 2147.75 311.548 2170.7 347.94 c 128,-1,5
 2193.66 384.332 2193.66 384.332 2190.92 450.671 c 0,6,7
 2189.86 479.611 2189.86 479.611 2184.79 502.268 c 0,8,9
 2172.78 555.911 2172.78 555.911 2140.93 572.934 c 128,-1,10
 2109.08 589.956 2109.08 589.956 2040.63 574.498 c 0,11,12
 1960.66 556.439 1960.66 556.439 1829.19 436.247 c 0,13,14
 1721.18 337.494 1721.18 337.494 1637.27 245.054 c 1,0,-1
1259.12 599.7 m 2,15,16
 1280.77 484.516 1280.77 484.516 1300.35 406.405 c 128,-1,17
 1319.93 328.296 1319.93 328.296 1327.52 315.605 c 0,18,19
 1347.4 284.575 1347.4 284.575 1368.7 273.26 c 128,-1,20
 1389.99 261.944 1389.99 261.944 1418.76 264.718 c 1,21,22
 1615.29 541.916 1615.29 541.916 1710.17 634.983 c 1,23,24
 1911.1 828.527 1911.1 828.527 2097.1 815.565 c 0,25,26
 2232.95 806.383 2232.95 806.383 2308.22 719.886 c 128,-1,27
 2383.5 633.39 2383.5 633.39 2391.71 482.156 c 0,28,29
 2399.94 335.761 2399.94 335.761 2345.51 229.458 c 128,-1,30
 2291.08 123.154 2291.08 123.154 2175.56 64.9697 c 0,31,32
 2006.4 -20.2373 2006.4 -20.2373 1816.86 -19.7461 c 2,33,-1
 1528.6 -19 l 2,34,35
 1426.31 -18.7354 1426.31 -18.7354 1357 17.7891 c 1,36,-1
 1356.83 14.666 l 1,37,-1
 1356.45 12.4121 l 2,38,39
 1312.33 -247.468 1312.33 -247.468 1143.12 -383.235 c 128,-1,40
 973.919 -519.004 973.919 -519.004 690.232 -524.424 c 0,41,42
 287.903 -531.793 287.903 -531.793 129.753 -304.598 c 0,43,44
 5.71484 -124.977 5.71484 -124.977 72.1299 140.975 c 0,45,46
 88.9209 208.205 88.9209 208.205 126.299 318.241 c 0,47,48
 153.589 398.58 153.589 398.58 167.466 430.022 c 2,49,-1
 188.603 477.912 l 1,50,-1
 316.868 373.875 l 1,51,-1
 308 347.545 l 2,52,53
 211.339 60.5479 211.339 60.5479 272.522 -70.1465 c 0,54,55
 369.585 -275.657 369.585 -275.657 684.449 -270.4 c 0,56,57
 918.724 -266.418 918.724 -266.418 1034.33 -194.724 c 128,-1,58
 1149.93 -123.029 1149.93 -123.029 1163.88 14.3018 c 1,59,-1
 1020.33 458.644 l 1,60,-1
 1245.58 671.754 l 1,61,-1
 1259.12 599.7 l 2,15,16
EndSplineSet
Substitution2: "'fina' Terminal Forms in Arabic lookup 9 subtable" uniFEBA
Substitution2: "'medi' Medial Forms in Arabic lookup 11 subtable" uniFEBC
Substitution2: "'init' Initial Forms in Arabic lookup 13 subtable" uniFEBB
EndChar

StartChar: uni0637
Encoding: 1591 1591 28
Width: 1352
VWidth: 2424
GlyphClass: 2
Flags: W
AnchorPoint: "Anchor-10" 301.669 1505.79 basechar 0
AnchorPoint: "Anchor-7" 676.855 -314.486 basechar 0
LayerCount: 2
Fore
SplineSet
270.979 245.399 m 1,0,1
 294.125 276.277 294.125 276.277 310.095 296.725 c 1,2,3
 311.293 342.25 311.293 342.25 305.282 531.909 c 1,4,5
 304.282 594.351 304.282 594.351 288.284 1068.22 c 0,6,7
 280.139 1312.48 280.139 1312.48 259.517 1346.55 c 5,8,-1
 504.325 1475.38 l 1,9,-1
 503.678 553.771 l 1,10,11
 546.945 606.713 546.945 606.713 578.212 635.935 c 0,12,13
 778.842 829.151 778.842 829.151 964.806 816.191 c 0,14,15
 1101.14 807.018 1101.14 807.018 1176.71 720.537 c 128,-1,16
 1252.28 634.057 1252.28 634.057 1260.47 482.754 c 0,17,18
 1268.7 336.361 1268.7 336.361 1213.97 230.036 c 128,-1,19
 1159.23 123.711 1159.23 123.711 1043.21 65.5674 c 0,20,21
 875.494 -18.9185 875.494 -18.9185 685.234 -19.1191 c 2,22,-1
 396.37 -19.4238 l 1,23,-1
 213.212 -18.8516 l 2,24,25
 119.335 -18.5582 119.335 -18.5582 67.5322 37.3438 c 128,-1,26
 15.7314 93.2441 15.7314 93.2441 15.7314 191.2 c 2,27,-1
 15.7314 244.819 l 1,28,-1
 270.979 245.399 l 1,0,1
504.986 245.68 m 1,29,-1
 620.351 245.68 l 2,30,31
 808.341 245.68 808.341 245.68 963.022 295.339 c 0,32,33
 1015.4 312.162 1015.4 312.162 1038.38 348.591 c 128,-1,34
 1061.35 385.02 1061.35 385.02 1058.62 451.316 c 0,35,36
 1057.56 480.239 1057.56 480.239 1052.49 502.895 c 0,37,38
 1040.48 556.537 1040.48 556.537 1008.63 573.559 c 128,-1,39
 976.791 590.58 976.791 590.58 908.348 575.125 c 0,40,41
 828.369 557.064 828.369 557.064 696.912 436.875 c 0,42,43
 588.894 338.115 588.894 338.115 504.986 245.68 c 1,29,-1
EndSplineSet
Substitution2: "'fina' Terminal Forms in Arabic lookup 9 subtable" uniFEC2
Substitution2: "'medi' Medial Forms in Arabic lookup 11 subtable" uniFEC4
Substitution2: "'init' Initial Forms in Arabic lookup 13 subtable" uniFEC3
EndChar

StartChar: uni0639
Encoding: 1593 1593 30
Width: 1338
VWidth: 2380
GlyphClass: 2
Flags: W
AnchorPoint: "Anchor-10" 402.018 1537.09 basechar 0
AnchorPoint: "Anchor-7" 299.7 -776.038 basechar 0
LayerCount: 2
Fore
SplineSet
828.622070312 1081.53515625 m 1,0,-1
 824 885 l 1,1,2
 667.064935065 960.012987013 667.064935065 960.012987013 571.504132231 960.012987013 c 0,3,4
 385.799941421 960.012987013 385.799941421 960.012987013 365.479492188 803.821289062 c 0,5,6
 364.230125458 793.655048655 364.230125458 793.655048655 364.230125458 783.673170126 c 0,7,8
 364.230125458 677.970415164 364.230125458 677.970415164 504.330078125 592.94140625 c 1,9,10
 726.693862651 675.629881888 726.693862651 675.629881888 912.4609375 711.283203125 c 2,11,-1
 961.125 720.623046875 l 1,12,-1
 956.25 507.979492188 l 1,13,-1
 924.569335938 501.874023438 l 2,14,15
 842.455077544 486.004867552 842.455077544 486.004867552 758.182617188 457.234375 c 0,16,17
 297.787315766 296.251729607 297.787315766 296.251729607 298.211914062 -33.6533203125 c 0,18,19
 298 -189 298 -189 435.5 -297 c 128,-1,20
 573 -405 573 -405 831.0859375 -405.165039062 c 0,21,22
 1007.44131097 -404.999585971 1007.44131097 -404.999585971 1208.96289062 -358.647460938 c 2,23,-1
 1256.30273438 -347.758789062 l 1,24,-1
 1257.90820312 -396.307617188 l 2,25,26
 1260 -449 1260 -449 1194.87988281 -500.321289062 c 0,27,28
 1055 -611 1055 -611 749.636900735 -610.953141284 c 128,-1,29
 444.165506304 -610.953141284 444.165506304 -610.953141284 247.582753152 -464.476570642 c 128,-1,30
 51 -318 51 -318 51.015625 -62.28515625 c 0,31,32
 51 259 51 259 344.354492188 470.17578125 c 1,33,34
 144.884701393 591.169925815 144.884701393 591.169925815 144.884701393 800.827402647 c 0,35,36
 144.884701393 967.843458391 144.884701393 967.843458391 240.759765625 1069.45507812 c 0,37,38
 349.269005551 1183.72568981 349.269005551 1183.72568981 519.336366007 1183.72568981 c 128,-1,39
 689.403726463 1183.72568981 689.403726463 1183.72568981 828.622070312 1081.53515625 c 1,0,-1
EndSplineSet
Substitution2: "'fina' Terminal Forms in Arabic lookup 9 subtable" uniFECA
Substitution2: "'medi' Medial Forms in Arabic lookup 11 subtable" uniFECC
Substitution2: "'init' Initial Forms in Arabic lookup 13 subtable" uniFECB
EndChar

StartChar: afii57440
Encoding: 1600 1600 32
Width: 694
VWidth: 2440
GlyphClass: 2
Flags: W
AnchorPoint: "Anchor-10" 337.05 1437.45 basechar 0
AnchorPoint: "Anchor-7" 337.05 -110.738 basechar 0
LayerCount: 2
Fore
SplineSet
-49.4072 -19.0732 m 1,0,-1
 -49.4072 245.001 l 1,1,-1
 743.457 245.001 l 1,2,-1
 743.457 -19.0732 l 1,3,-1
 -49.4072 -19.0732 l 1,0,-1
EndSplineSet
EndChar

StartChar: uni0643
Encoding: 1603 1603 35
Width: 1835
VWidth: 2399
GlyphClass: 2
Flags: W
AnchorPoint: "Anchor-10" 487.275 1528.25 basechar 0
AnchorPoint: "Anchor-7" 522.054 -276.15 basechar 0
LayerCount: 2
Fore
SplineSet
1455.55 1336.26 m 5,0,-1
 1704.36 1464.09 l 1,1,-1
 1704.36 469.627 l 1,2,-1
 1701.35 407.877 l 1,3,4
 1695.77 329.265 1695.77 329.265 1680.13 287.983 c 0,5,6
 1645.98 197.848 1645.98 197.848 1553.29 131.932 c 0,7,8
 1397.63 21.8223 1397.63 21.8223 1230.61 4.51172 c 0,9,10
 1013.82 -17.9609 1013.82 -17.9609 969.169 -19.5664 c 0,11,12
 469.773 -37.5273 469.773 -37.5273 265.953 68.9795 c 0,13,14
 44.666 184.611 44.666 184.611 51.877 520.239 c 0,15,16
 54.879 661.116 54.879 661.116 112.618 774.507 c 2,17,-1
 123.775 796.418 l 1,18,-1
 258.207 796.082 l 1,19,-1
 247.71 747.721 l 2,20,21
 232.159 676.077 232.159 676.077 225.77 618.554 c 0,22,23
 220.594 571.972 220.594 571.972 222.529 517.603 c 0,24,25
 226.182 414.917 226.182 414.917 310.916 350.331 c 128,-1,26
 395.649 285.744 395.649 285.744 576.479 260.04 c 0,27,28
 677.004 245.753 677.004 245.753 1005.48 245.131 c 0,29,30
 1111.08 245 1111.08 245 1190.96 258.277 c 0,31,32
 1482.33 308.53 1482.33 308.53 1496.32 450.743 c 1,33,-1
 1498.21 508.806 l 2,34,35
 1502.19 630.91 1502.19 630.91 1484.35 1057.78 c 1,36,37
 1470 1290.47 1470 1290.47 1455.55 1336.26 c 5,0,-1
1091.07 1376.53 m 1,38,-1
 1091.07 1242.9 l 1,39,-1
 1054.12 1240.08 l 2,40,41
 982.986 1234.64 982.986 1234.64 945.924 1220.98 c 0,42,43
 913.109 1208.67 913.109 1208.67 892.697 1195.18 c 128,-1,44
 872.285 1181.68 872.285 1181.68 867.349 1174.51 c 128,-1,45
 862.412 1167.34 862.412 1167.34 862.412 1162.83 c 0,46,47
 862.412 1135.63 862.412 1135.63 875.447 1118.88 c 0,48,49
 877.595 1116.82 877.595 1116.82 886.381 1113.02 c 128,-1,50
 895.166 1109.23 895.166 1109.23 915.128 1103.8 c 128,-1,51
 935.09 1098.37 935.09 1098.37 959.004 1094.84 c 0,52,53
 1025.49 1085.08 1025.49 1085.08 1061.84 1051.88 c 0,54,55
 1101.39 1015.75 1101.39 1015.75 1101.39 954.412 c 0,56,57
 1101.39 891.252 1101.39 891.252 1070.75 840.944 c 128,-1,58
 1040.12 790.638 1040.12 790.638 982.81 758.229 c 0,59,60
 897.613 710.048 897.613 710.048 782.705 708.982 c 0,61,62
 713.779 708.982 713.779 708.982 652.786 718.986 c 2,63,-1
 619.261 724.485 l 1,64,-1
 619.261 865.085 l 1,65,-1
 664.425 859.205 l 2,66,67
 728.178 850.906 728.178 850.906 771.8 850.906 c 0,68,69
 847.852 850.906 847.852 850.906 894.96 869.453 c 0,70,71
 964.63 896.209 964.63 896.209 964.63 930.594 c 0,72,73
 964.63 947.068 964.63 947.068 949.42 959.09 c 128,-1,74
 934.209 971.11 934.209 971.11 887.9 978.166 c 0,75,76
 812.121 989.713 812.121 989.713 769.012 1033.8 c 0,77,78
 723.532 1080.32 723.532 1080.32 725.256 1159.65 c 0,79,80
 726.542 1211.65 726.542 1211.65 752.937 1252.3 c 128,-1,81
 779.331 1292.94 779.331 1292.94 826.805 1317 c 0,82,83
 922.271 1365.31 922.271 1365.31 1048.42 1373.69 c 2,84,-1
 1091.07 1376.53 l 1,38,-1
EndSplineSet
Substitution2: "'fina' Terminal Forms in Arabic lookup 9 subtable" uniFEDA
Substitution2: "'medi' Medial Forms in Arabic lookup 11 subtable" uniFEDC
Substitution2: "'init' Initial Forms in Arabic lookup 13 subtable" uniFEDB
EndChar

StartChar: uni0644
Encoding: 1604 1604 36
Width: 1490
VWidth: 2399
GlyphClass: 2
Flags: W
AnchorPoint: "Anchor-10" 595.331 1077.46 basechar 0
AnchorPoint: "Anchor-7" 408.396 -606.678 basechar 0
LayerCount: 2
Fore
SplineSet
1171.62 195.656 m 0,0,1
 1173.57 260.061 1173.57 260.061 1139.86 1066.74 c 1,2,3
 1131.19 1262.41 1131.19 1262.41 1111.06 1345.22 c 5,4,-1
 1359.87 1473.05 l 1,5,-1
 1359.87 427.963 l 2,6,7
 1359.87 51.8379 1359.87 51.8379 1356.21 18.4248 c 0,8,9
 1356.2 18.3115 1356.2 18.3115 1356.18 18.1982 c 0,10,11
 1356.06 17.1311 1356.06 17.1311 1356.06 17.1152 c 2,12,-1
 1355.88 16.0391 l 2,13,14
 1311.95 -244.206 1311.95 -244.206 1142.58 -380.395 c 0,15,16
 973.463 -516.377 973.463 -516.377 690.016 -521.568 c 0,17,18
 287.683 -528.937 287.683 -528.937 129.536 -301.742 c 0,19,20
 5.49805 -122.12 5.49805 -122.12 71.9131 143.828 c 0,21,22
 88.7031 211.065 88.7031 211.065 126.081 321.094 c 0,23,24
 149.063 388.755 149.063 388.755 169.728 433.782 c 2,25,-1
 187.999 473.595 l 1,26,-1
 324.532 395.234 l 1,27,-1
 313.264 363.728 l 2,28,29
 207.884 69.0853 207.884 69.0853 272.406 -67.5049 c 0,30,31
 369.371 -272.81 369.371 -272.81 684.232 -267.544 c 0,32,33
 920.256 -263.546 920.256 -263.546 1035.83 -188.454 c 128,-1,34
 1151.4 -113.362 1151.4 -113.362 1163.28 32.1201 c 0,35,36
 1165.81 65.6211 1165.81 65.6211 1166.83 92.7646 c 0,37,38
 1170.89 187.671 1170.89 187.671 1171.62 195.656 c 0,0,1
1357.76 32.0225 m 0,39,40
 1357 25.3633 1357 25.3633 1356.21 18.4248 c 1024,41,-1
1357.76 32.0225 m 2,42,-1
 1361.14 61.7549 l 2,43,44
 1359.53 47.6611 1359.53 47.6611 1357.76 32.0225 c 2,42,-1
EndSplineSet
Substitution2: "'fina' Terminal Forms in Arabic lookup 9 subtable" uniFEDE
Substitution2: "'medi' Medial Forms in Arabic lookup 11 subtable" uniFEE0
Substitution2: "'init' Initial Forms in Arabic lookup 13 subtable" uniFEDF
EndChar

StartChar: uni0645
Encoding: 1605 1605 37
Width: 1121
VWidth: 2442
GlyphClass: 2
Flags: W
AnchorPoint: "Anchor-10" 580.073 1141.72 basechar 0
AnchorPoint: "Anchor-7" 219.1 -732.589 basechar 0
LayerCount: 2
Fore
SplineSet
776.755 379.647 m 2,0,1
 804.091 377.764 804.091 377.764 817.313 381.723 c 1,2,3
 816.897 383.588 816.897 383.588 816.264 385.601 c 0,4,5
 768.69 536.883 768.69 536.883 650.475 600.521 c 1,6,7
 602.342 625.288 602.342 625.288 569.656 619.44 c 128,-1,8
 536.972 613.594 536.972 613.594 506.05 576.254 c 1,9,10
 462.392 512.321 462.392 512.321 467.022 391.013 c 1,11,-1
 776.755 379.647 l 2,0,1
377.214 149.101 m 0,12,13
 287.255 149.101 287.255 149.101 263.857 97.9336 c 1,14,15
 236.679 33.6533 236.679 33.6533 255.771 -102.189 c 2,16,-1
 321.081 -554.382 l 1,17,-1
 111.744 -725.063 l 1,18,-1
 51.6611 -71.2539 l 2,19,20
 37.041 87.8398 37.041 87.8398 82.667 209.491 c 0,21,22
 127.902 330.104 127.902 330.104 251.798 363.26 c 1,23,24
 247.239 607.872 247.239 607.872 376.954 748.811 c 0,25,26
 467.806 846.688 467.806 846.688 580.113 849.168 c 128,-1,27
 692.422 851.647 692.422 851.647 808.013 761.841 c 1,28,29
 1002.44 614.067 1002.44 614.067 1029.38 353.704 c 0,30,31
 1041.36 237.822 1041.36 237.822 942.8 156.604 c 0,32,33
 916.67 135.073 916.67 135.073 680.842 142.438 c 0,34,35
 482.176 149.1 482.176 149.1 377.214 149.101 c 0,12,13
EndSplineSet
Substitution2: "'init' Initial Forms in Arabic lookup 13 subtable" uniFEE3
Substitution2: "'medi' Medial Forms in Arabic lookup 11 subtable" uniFEE4
Substitution2: "'fina' Terminal Forms in Arabic lookup 9 subtable" uniFEE2
EndChar

StartChar: uni0647
Encoding: 1607 1607 39
Width: 932
VWidth: 2419
GlyphClass: 2
Flags: W
AnchorPoint: "Anchor-10" 343.269 1273.46 basechar 0
AnchorPoint: "Anchor-7" 303.919 -210.102 basechar 0
LayerCount: 2
Fore
SplineSet
268.351 370.473 m 0,0,1
 252.96 314.683 252.96 314.683 271.05 283.546 c 128,-1,2
 289.141 252.409 289.141 252.409 350.207 232.9 c 0,3,4
 449.481 200.529 449.481 200.529 536.463 229.06 c 0,5,6
 545.112 231.839 545.112 231.839 552.663 235.006 c 0,7,8
 598.254 254.135 598.254 254.135 607.507 285.915 c 128,-1,9
 616.761 317.695 616.761 317.695 590.269 385.835 c 1,10,11
 543.168 497.924 543.168 497.924 425.535 603.645 c 1,12,13
 288.901 447.815 288.901 447.815 268.351 370.473 c 0,0,1
115.999 526.605 m 0,14,15
 179.017 642.689 179.017 642.689 296.318 753.836 c 1,16,-1
 275.508 770.838 l 1,17,-1
 392.373 985.068 l 1,18,-1
 429.913 952.412 l 2,19,20
 731.337 690.209 731.337 690.209 808.649 480.109 c 1,21,22
 857.222 352.095 857.222 352.095 836.737 242.819 c 128,-1,23
 816.252 133.543 816.252 133.543 725.957 56.96 c 0,24,25
 634.129 -20.9229 634.129 -20.9229 455.012 -19.2441 c 0,26,27
 281.128 -17.6533 281.128 -17.6533 201.748 29.7207 c 0,28,29
 73.2285 104.595 73.2285 104.595 51.8574 221.518 c 0,30,31
 25.5654 362.799 25.5654 362.799 115.999 526.605 c 0,14,15
EndSplineSet
Substitution2: "'fina' Terminal Forms in Arabic lookup 9 subtable" uniFEEA
Substitution2: "'medi' Medial Forms in Arabic lookup 11 subtable" uniFEEC
Substitution2: "'init' Initial Forms in Arabic lookup 13 subtable" uniFEEB
EndChar

StartChar: uni0648
Encoding: 1608 1608 40
Width: 830
VWidth: 2088
GlyphClass: 2
Flags: W
AnchorPoint: "Anchor-7" 428.058 -656.046 basechar 0
AnchorPoint: "Anchor-10" 401.457 1151.98 basechar 0
LayerCount: 2
Fore
SplineSet
412.255 432.646 m 0,0,1
 369.35 431.56 369.35 431.56 345.521 406.219 c 128,-1,2
 321.691 380.879 321.691 380.879 311.656 318.556 c 0,3,4
 305.612 282.265 305.612 282.265 313.939 264.984 c 128,-1,5
 322.267 247.705 322.267 247.705 347.145 237.618 c 0,6,7
 426.949 205.266 426.949 205.266 550.709 238.546 c 1,8,9
 547.436 296.313 547.436 296.313 526.17 343.071 c 0,10,11
 504.326 391.852 504.326 391.852 476.915 412.338 c 128,-1,12
 449.504 432.823 449.504 432.823 412.255 432.646 c 0,0,1
390.955 -20.8633 m 0,13,14
 248.752 -5.54102 248.752 -5.54102 181.032 100.016 c 0,15,16
 122.389 191.57 122.389 191.57 136.383 323.283 c 0,17,18
 156.507 524.905 156.507 524.905 267.697 632.367 c 0,19,20
 335.995 698.373 335.995 698.373 452.801 688.463 c 0,21,22
 539.83 680.645 539.83 680.645 620.595 589.877 c 0,23,24
 714.099 486.505 714.099 486.505 736.805 300.184 c 1,25,26
 757.994 117.238 757.994 117.238 738.012 8.75879 c 0,27,28
 678.077 -300.512 678.077 -300.512 481.244 -454.688 c 5,29,30
 237.173 -505.986 237.173 -505.986 -35.3633 -428.432 c 1,31,32
 388.637 -269.432 388.637 -269.432 518.367 -20.4316 c 1,33,34
 456.535 -27.7715 456.535 -27.7715 390.955 -20.8633 c 0,13,14
EndSplineSet
Substitution2: "'fina' Terminal Forms in Arabic lookup 9 subtable" uniFEEE
EndChar

StartChar: uni0649
Encoding: 1609 1609 41
Width: 1523
VWidth: 2438
GlyphClass: 2
Flags: W
AnchorPoint: "Anchor-10" 437.439 1091.17 basechar 0
AnchorPoint: "Anchor-7" 209.907 -587.29 basechar 0
LayerCount: 2
Fore
SplineSet
1367.18 -133.036 m 1,0,1
 1140.71 -396.917 1140.71 -396.917 732.06 -418.994 c 0,2,3
 418.989 -435.319 418.989 -435.319 259.485 -352.989 c 4,4,5
 92.3301 -265.969 92.3301 -265.969 52.3604 -66.9502 c 1,6,7
 20.0703 104.82 20.0703 104.82 77.0332 306.903 c 0,8,9
 102.334 396.651 102.334 396.651 177.803 585.213 c 0,10,11
 199.966 640.584 199.966 640.584 227.231 689.72 c 2,12,-1
 245.66 722.932 l 1,13,-1
 384.714 654.93 l 1,14,-1
 371.228 620.585 l 2,15,16
 313.471 473.496 313.471 473.496 301.061 435.323 c 0,17,18
 285.037 386.036 285.037 386.036 266.271 299.878 c 0,19,20
 220.991 93.2812 220.991 93.2812 292.62 -24.2021 c 0,21,22
 396.855 -195.178 396.855 -195.178 789.95 -163.621 c 0,23,24
 1047.03 -142.984 1047.03 -142.984 1171.57 -68.1885 c 0,25,26
 1210.69 -44.3249 1210.69 -44.3249 1235.35 -17.3027 c 0,27,28
 1276.84 31.5379 1276.84 31.5379 1194.08 39.3818 c 0,29,30
 1193.97 39.3927 1193.97 39.3927 1125.08 38.373 c 0,31,32
 960.102 35.9311 960.102 35.9311 893 101 c 0,33,34
 823.975 166.002 823.975 166.002 813.665 245.514 c 0,35,36
 801.982 335.613 801.982 335.613 845.39 438.537 c 1,37,38
 978.285 780.427 978.285 780.427 1191.35 800.412 c 0,39,40
 1287.63 809.443 1287.63 809.443 1346.24 761.007 c 128,-1,41
 1404.86 712.564 1404.86 712.564 1412.19 617.096 c 2,42,-1
 1413.87 595.217 l 2,43,44
 1414.19 590.996 1414.19 590.996 1415.76 570.874 c 0,45,46
 1416.99 554.94 1416.99 554.94 1417.57 547.103 c 1,47,-1
 1369.6 552.396 l 2,48,49
 1152.47 576.354 1152.47 576.354 1057.96 466.408 c 0,50,51
 967.807 362.678 967.807 362.678 983.5 284.174 c 0,52,53
 992.464 239.331 992.464 239.331 1120.79 241.286 c 0,54,55
 1238.97 243.219 1238.97 243.219 1316.74 203.757 c 0,56,57
 1426.09 147.448 1426.09 147.448 1431.39 41.4844 c 0,58,59
 1432.76 14.1719 1432.76 14.1719 1427.76 -8.16797 c 0,60,61
 1412.5 -76.876 1412.5 -76.876 1367.18 -133.036 c 1,0,1
EndSplineSet
Substitution2: "'fina' Terminal Forms in Arabic lookup 9 subtable" uniFEF0
Substitution2: "'medi' Medial Forms in Arabic lookup 11 subtable" uniFBE9
Substitution2: "'init' Initial Forms in Arabic lookup 13 subtable" uniFBE8
EndChar

StartChar: uni064B
Encoding: 1611 1611 43
Width: 0
VWidth: 2186
GlyphClass: 4
Flags: W
AnchorPoint: "Anchor-10" 547.84 1041.5 mark 0
AnchorPoint: "Anchor-9" 547.84 1041.5 mark 0
AnchorPoint: "Anchor-1" 547.84 1576.5 basemark 0
AnchorPoint: "Anchor-1" 547.84 1041.5 mark 0
LayerCount: 2
Fore
SplineSet
271.4 980.389 m 1,0,-1
 271.4 1103.14 l 1,1,-1
 825.28 1329.81 l 1,2,-1
 825.28 1207.06 l 1,3,-1
 271.4 980.389 l 1,0,-1
271.4 1237.19 m 1,4,-1
 271.4 1359.94 l 1,5,-1
 825.28 1586.61 l 1,6,-1
 825.28 1463.86 l 1,7,-1
 271.4 1237.19 l 1,4,-1
EndSplineSet
EndChar

StartChar: uni064C
Encoding: 1612 1612 44
Width: 0
VWidth: 2186
GlyphClass: 4
Flags: W
AnchorPoint: "Anchor-10" 554.386 1155.44 mark 0
AnchorPoint: "Anchor-9" 554.386 1155.44 mark 0
AnchorPoint: "Anchor-1" 546.386 1810.94 basemark 0
AnchorPoint: "Anchor-1" 554.386 1155.44 mark 0
LayerCount: 2
Fore
SplineSet
670.422 1480.2 m 1,0,-1
 682.154 1507.57 l 2,1,2
 692.996 1532.87 692.996 1532.87 692.996 1561.63 c 0,3,4
 692.996 1605.09 692.996 1605.09 669.342 1624.56 c 0,5,6
 646.999 1642.97 646.999 1642.97 620.217 1642.97 c 0,7,8
 591.103 1642.97 591.103 1642.97 574.659 1630.22 c 0,9,10
 549.576 1611.34 549.576 1611.34 549.576 1574.47 c 0,11,12
 549.576 1524.73 549.576 1524.73 607.155 1501.69 c 0,13,14
 629.155 1492.89 629.155 1492.89 657.534 1484.17 c 2,15,-1
 670.422 1480.2 l 1,0,-1
568.602 1297.27 m 0,16,17
 610.027 1337.58 610.027 1337.58 633.634 1384.8 c 2,18,-1
 642.31 1402.15 l 1,19,20
 641.044 1402.42 641.044 1402.42 639.779 1402.69 c 2,21,-1
 623.328 1406.18 l 2,22,23
 590.272 1413.18 590.272 1413.18 567.491 1426.07 c 0,24,25
 459.736 1482.94 459.736 1482.94 459.736 1574.47 c 0,26,27
 459.736 1660.08 459.736 1660.08 527.565 1711.2 c 0,28,29
 553.526 1730.67 553.526 1730.67 615.937 1730.67 c 0,30,31
 687.944 1730.67 687.944 1730.67 726.337 1693.23 c 0,32,33
 780.696 1639.87 780.696 1639.87 780.696 1561.63 c 0,34,35
 780.696 1522.21 780.696 1522.21 768.553 1483.75 c 2,36,-1
 762.716 1465.28 l 1,37,-1
 782.07 1464.26 l 2,38,39
 802.18 1463.2 802.18 1463.2 817.802 1463.17 c 0,40,41
 830.147 1462.5 830.147 1462.5 843.826 1462.24 c 1,42,-1
 843.826 1374.45 l 1,43,44
 805.727 1374.75 805.727 1374.75 788.572 1376.47 c 2,45,-1
 722.005 1382.87 l 1,46,-1
 717.697 1372.77 l 2,47,48
 690.955 1310.03 690.955 1310.03 612.685 1228.63 c 1,49,50
 526.206 1141.14 526.206 1141.14 431.896 1141.14 c 0,51,52
 320.421 1141.14 320.421 1141.14 264.083 1296.08 c 0,53,54
 250.078 1334.35 250.078 1334.35 249.012 1440.7 c 1,55,-1
 315.318 1440.7 l 1,56,57
 316.285 1346.36 316.285 1346.36 329.495 1317.74 c 0,58,59
 370.988 1228.84 370.988 1228.84 431.896 1228.84 c 0,60,61
 497.884 1228.84 497.884 1228.84 568.602 1297.27 c 0,16,17
EndSplineSet
EndChar

StartChar: uni064D
Encoding: 1613 1613 45
Width: 0
VWidth: 2186
GlyphClass: 4
Flags: W
AnchorPoint: "Anchor-7" 531.84 75.5 mark 0
AnchorPoint: "Anchor-6" 531.84 75.5 mark 0
AnchorPoint: "Anchor-0" 547.84 -439.5 basemark 0
AnchorPoint: "Anchor-0" 531.84 75.5 mark 0
LayerCount: 2
Fore
SplineSet
272.96 -509.201 m 1,0,-1
 272.96 -386.452 l 1,1,-1
 826.84 -159.779 l 1,2,-1
 826.84 -282.528 l 1,3,-1
 272.96 -509.201 l 1,0,-1
272.96 -252.401 m 1,4,-1
 272.96 -129.652 l 1,5,-1
 826.84 97.0205 l 1,6,-1
 826.84 -25.7278 l 1,7,-1
 272.96 -252.401 l 1,4,-1
EndSplineSet
EndChar

StartChar: uni064E
Encoding: 1614 1614 46
Width: 0
VWidth: 2186
GlyphClass: 4
Flags: W
AnchorPoint: "Anchor-10" 517.84 1279.5 mark 0
AnchorPoint: "Anchor-9" 517.84 1279.5 mark 0
AnchorPoint: "Anchor-1" 517.84 1600.5 basemark 0
AnchorPoint: "Anchor-1" 517.84 1279.5 mark 0
LayerCount: 2
Fore
SplineSet
239.4 1240.39 m 1,0,-1
 239.4 1363.14 l 1,1,-1
 793.28 1589.81 l 1,2,-1
 793.28 1467.06 l 1,3,-1
 239.4 1240.39 l 1,0,-1
EndSplineSet
EndChar

StartChar: uni064F
Encoding: 1615 1615 47
Width: 0
VWidth: 2186
GlyphClass: 4
Flags: W
AnchorPoint: "Anchor-10" 531.84 1205.5 mark 0
AnchorPoint: "Anchor-9" 531.84 1205.5 mark 0
AnchorPoint: "Anchor-1" 547.84 1825 basemark 0
AnchorPoint: "Anchor-1" 531.84 1205.5 mark 0
LayerCount: 2
Fore
SplineSet
595.802 1428.58 m 2,0,1
 587.29 1430.47 587.29 1430.47 568.655 1440.28 c 0,2,3
 461.19 1496 461.19 1496 461.19 1588.53 c 0,4,5
 461.19 1674.14 461.19 1674.14 529.019 1725.26 c 0,6,7
 554.982 1744.73 554.982 1744.73 617.39 1744.73 c 0,8,9
 689.398 1744.73 689.398 1744.73 727.791 1707.29 c 0,10,11
 782.15 1653.93 782.15 1653.93 782.15 1575.69 c 0,12,13
 782.15 1543.74 782.15 1543.74 767.847 1497.75 c 2,14,-1
 762.152 1479.45 l 1,15,-1
 781.29 1478.32 l 2,16,17
 799.725 1477.24 799.725 1477.24 819.203 1476.7 c 0,18,19
 831.335 1476.36 831.335 1476.36 845.28 1476.23 c 1,20,-1
 845.28 1388.55 l 1,21,22
 816.15 1388.91 816.15 1388.91 789.588 1390.57 c 0,23,24
 757.693 1392.7 757.693 1392.7 728.127 1395.87 c 2,25,-1
 719.355 1396.8 l 1,26,-1
 718.677 1395.84 l 1,27,-1
 714.27 1389.59 l 2,28,29
 670.055 1326.86 670.055 1326.86 598.832 1283.51 c 0,30,31
 399.097 1160.69 399.097 1160.69 250.4 1154.44 c 1,32,-1
 250.4 1242.07 l 1,33,34
 410.533 1247.57 410.533 1247.57 556.014 1361.65 c 0,35,36
 581.485 1381.58 581.485 1381.58 602.585 1403.78 c 2,37,-1
 620.846 1423.02 l 1,38,-1
 595.802 1428.58 l 2,0,1
671.876 1494.26 m 1,39,-1
 683.608 1521.63 l 2,40,41
 694.45 1546.93 694.45 1546.93 694.45 1575.69 c 0,42,43
 694.45 1619.15 694.45 1619.15 670.796 1638.62 c 0,44,45
 648.453 1657.03 648.453 1657.03 621.67 1657.03 c 0,46,47
 592.557 1657.03 592.557 1657.03 576.113 1644.28 c 0,48,49
 551.03 1625.4 551.03 1625.4 551.03 1588.53 c 0,50,51
 551.03 1538.79 551.03 1538.79 608.609 1515.75 c 0,52,53
 630.608 1506.96 630.608 1506.96 658.988 1498.23 c 2,54,-1
 671.876 1494.26 l 1,39,-1
EndSplineSet
EndChar

StartChar: uni0650
Encoding: 1616 1616 48
Width: 0
VWidth: 2186
GlyphClass: 4
Flags: W
AnchorPoint: "Anchor-7" 467.84 -12.5 mark 0
AnchorPoint: "Anchor-6" 467.84 -12.5 mark 0
AnchorPoint: "Anchor-0" 556.84 -311.5 basemark 0
AnchorPoint: "Anchor-0" 467.84 -12.5 mark 0
LayerCount: 2
Fore
SplineSet
269.96 -353.857 m 1,0,-1
 269.96 -231.109 l 1,1,-1
 823.84 -4.43554 l 1,2,-1
 823.84 -127.184 l 1,3,-1
 269.96 -353.857 l 1,0,-1
EndSplineSet
EndChar

StartChar: uni0651
Encoding: 1617 1617 49
Width: 0
VWidth: 2186
GlyphClass: 4
Flags: W
AnchorPoint: "Anchor-10" 547.84 1316.5 mark 0
AnchorPoint: "Anchor-9" 547.84 1316.5 mark 0
AnchorPoint: "Anchor-1" 535.84 1818.5 basemark 0
AnchorPoint: "Anchor-1" 547.84 1316.5 mark 0
LayerCount: 2
Fore
SplineSet
398.724 1307.99 m 0,0,1
 307.391 1304.96 307.391 1304.96 262.785 1357.2 c 0,2,3
 229 1396.97 229 1396.97 229 1486.07 c 0,4,5
 229 1526.86 229 1526.86 243.939 1624.56 c 1,6,-1
 320.73 1624.56 l 1,7,8
 305.674 1481.93 305.674 1481.93 305.674 1479 c 0,9,10
 305.674 1392.95 305.674 1392.95 398.801 1391.09 c 0,11,12
 498.986 1389.12 498.986 1389.12 508.261 1518.4 c 0,13,14
 510.168 1544.78 510.168 1544.78 510.397 1678.83 c 1,15,-1
 587.05 1678.83 l 1,16,17
 586.788 1623.86 586.788 1623.86 587.341 1597.47 c 0,18,19
 592.913 1446.94 592.913 1446.94 700.879 1450.09 c 1,20,21
 792.177 1451.31 792.177 1451.31 785.672 1604.08 c 0,22,23
 781.305 1708.91 781.305 1708.91 776.685 1768.1 c 1,24,-1
 855.974 1768.1 l 1,25,26
 866.68 1693.12 866.68 1693.12 866.68 1580.87 c 0,27,28
 866.68 1504.73 866.68 1504.73 842.021 1450.82 c 0,29,30
 803.677 1366.83 803.677 1366.83 713.742 1362.49 c 0,31,32
 612.424 1357.53 612.424 1357.53 556.441 1432.29 c 2,33,-1
 554.049 1435.48 l 1,34,-1
 552.922 1431.66 l 2,35,36
 517.661 1311.97 517.661 1311.97 398.724 1307.99 c 0,0,1
EndSplineSet
EndChar

StartChar: uni0652
Encoding: 1618 1618 50
Width: 0
VWidth: 2186
GlyphClass: 4
Flags: W
AnchorPoint: "Anchor-10" 565.84 1128.5 mark 0
AnchorPoint: "Anchor-9" 565.84 1128.5 mark 0
AnchorPoint: "Anchor-1" 551.84 1702 basemark 0
AnchorPoint: "Anchor-1" 565.84 1128.5 mark 0
LayerCount: 2
Fore
SplineSet
676.569 1383.62 m 0,0,1
 676.569 1428.98 676.569 1428.98 644.853 1460.69 c 128,-1,2
 613.14 1492.41 613.14 1492.41 567.126 1492.41 c 0,3,4
 520.454 1492.41 520.454 1492.41 489.071 1461.02 c 128,-1,5
 457.685 1429.64 457.685 1429.64 457.685 1383.62 c 0,6,7
 457.685 1336.95 457.685 1336.95 489.071 1305.57 c 128,-1,8
 520.454 1274.18 520.454 1274.18 567.126 1274.18 c 0,9,10
 613.143 1274.18 613.143 1274.18 644.853 1305.9 c 128,-1,11
 676.569 1337.61 676.569 1337.61 676.569 1383.62 c 0,0,1
748.396 1383.73 m 128,-1,13
 748.396 1307.7 748.396 1307.7 695.897 1254.87 c 128,-1,14
 643.429 1202.07 643.429 1202.07 567.436 1202.07 c 128,-1,15
 491.444 1202.07 491.444 1202.07 438.976 1254.87 c 128,-1,16
 386.476 1307.7 386.476 1307.7 386.476 1383.73 c 128,-1,17
 386.476 1459.73 386.476 1459.73 438.951 1512.22 c 128,-1,18
 491.421 1564.69 491.421 1564.69 567.436 1564.69 c 128,-1,19
 643.451 1564.69 643.451 1564.69 695.921 1512.22 c 128,-1,12
 748.396 1459.73 748.396 1459.73 748.396 1383.73 c 128,-1,13
EndSplineSet
EndChar

StartChar: uni0653
Encoding: 1619 1619 51
Width: 0
VWidth: 2186
GlyphClass: 4
Flags: W
AnchorPoint: "Anchor-10" 442.84 1264.52 mark 0
AnchorPoint: "Anchor-9" 442.84 1264.52 mark 0
AnchorPoint: "Anchor-1" 442.84 1600.5 basemark 0
AnchorPoint: "Anchor-1" 442.84 1264.52 mark 0
LayerCount: 2
Fore
SplineSet
189.629 1409.17 m 0,0,1
 247.744 1455.92 247.744 1455.92 340.918 1434.65 c 0,2,3
 433.689 1413.47 433.689 1413.47 524.596 1433.58 c 0,4,5
 586.96 1447.37 586.96 1447.37 637.982 1526.33 c 1,6,7
 657.462 1407.04 657.462 1407.04 629.485 1364.06 c 0,8,9
 609.316 1334.2 609.316 1334.2 570.023 1315.66 c 0,10,11
 503.148 1285.58 503.148 1285.58 295.644 1308.7 c 4,12,13
 254.221 1313.37 254.221 1313.37 176.937 1207.68 c 1,14,15
 117.029 1350.77 117.029 1350.77 189.629 1409.17 c 0,0,1
EndSplineSet
EndChar

StartChar: uni0657
Encoding: 1623 1623 54
Width: 0
VWidth: 2186
GlyphClass: 4
Flags: W
AnchorPoint: "Anchor-10" 547.84 1279.5 mark 0
AnchorPoint: "Anchor-9" 547.84 1279.5 mark 0
AnchorPoint: "Anchor-1" 547.84 1975 basemark 0
AnchorPoint: "Anchor-1" 547.84 1279.5 mark 0
LayerCount: 2
Fore
SplineSet
500.654 1673.61 m 2,0,1
 508.38 1671.9 508.38 1671.9 527.024 1662.09 c 0,2,3
 634.49 1606.36 634.49 1606.36 634.49 1513.83 c 0,4,5
 634.49 1428.21 634.49 1428.21 566.66 1377.1 c 0,6,7
 540.699 1357.63 540.699 1357.63 478.29 1357.63 c 0,8,9
 406.283 1357.63 406.283 1357.63 367.888 1395.07 c 0,10,11
 313.53 1448.43 313.53 1448.43 313.53 1526.67 c 0,12,13
 313.53 1558.64 313.53 1558.64 327.833 1604.61 c 2,14,-1
 333.527 1622.91 l 1,15,-1
 314.389 1624.04 l 2,16,17
 295.956 1625.12 295.956 1625.12 276.476 1625.66 c 0,18,19
 264.344 1626 264.344 1626 250.4 1626.13 c 1,20,-1
 250.4 1713.81 l 1,21,22
 279.53 1713.45 279.53 1713.45 306.093 1711.79 c 0,23,24
 337.904 1709.67 337.904 1709.67 367.554 1706.5 c 2,25,-1
 376.326 1705.56 l 1,26,-1
 381.41 1712.77 l 2,27,28
 425.626 1775.5 425.626 1775.5 496.849 1818.85 c 0,29,30
 696.592 1941.67 696.592 1941.67 845.28 1947.92 c 1,31,-1
 845.28 1860.29 l 1,32,33
 685.146 1854.79 685.146 1854.79 539.665 1740.71 c 0,34,35
 514.18 1720.76 514.18 1720.76 493.095 1698.58 c 2,36,-1
 474.836 1679.36 l 1,37,-1
 500.654 1673.61 l 2,0,1
423.805 1608.1 m 1,38,-1
 412.073 1580.73 l 2,39,40
 401.23 1555.43 401.23 1555.43 401.23 1526.67 c 0,41,42
 401.23 1483.22 401.23 1483.22 424.883 1463.74 c 0,43,44
 447.23 1445.33 447.23 1445.33 474.01 1445.33 c 0,45,46
 503.122 1445.33 503.122 1445.33 519.569 1458.08 c 0,47,48
 544.65 1476.96 544.65 1476.96 544.65 1513.83 c 0,49,50
 544.65 1563.57 544.65 1563.57 487.071 1586.61 c 0,51,52
 465.089 1595.4 465.089 1595.4 436.693 1604.13 c 2,53,-1
 423.805 1608.1 l 1,38,-1
EndSplineSet
EndChar

StartChar: uni065A
Encoding: 1626 1626 55
Width: 1149
VWidth: 2295
GlyphClass: 4
Flags: W
AnchorPoint: "Anchor-10" 575.232 1343.47 mark 0
AnchorPoint: "Anchor-9" 575.232 1343.47 mark 0
AnchorPoint: "Anchor-1" 572.985 1849.05 basemark 0
AnchorPoint: "Anchor-1" 575.232 1343.47 mark 0
LayerCount: 2
Fore
SplineSet
500.968 1428.78 m 1,0,-1
 300.608 1763.74 l 1,1,-1
 420.802 1763.74 l 1,2,-1
 575.232 1532.09 l 1,3,-1
 729.661 1763.74 l 1,4,-1
 849.856 1763.74 l 1,5,-1
 649.494 1428.78 l 1,6,-1
 500.968 1428.78 l 1,0,-1
EndSplineSet
EndChar

StartChar: afii57392
Encoding: 1632 1632 56
Width: 1255
VWidth: 2306
GlyphClass: 2
Flags: W
LayerCount: 2
Fore
SplineSet
536.442 601.165 m 132,-1,1
 536.442 561.109 536.442 561.109 565.354 532.197 c 132,-1,2
 594.265 503.287 594.265 503.287 634.318 503.287 c 132,-1,3
 674.375 503.287 674.375 503.287 703.285 532.197 c 132,-1,4
 732.197 561.11 732.197 561.11 732.197 601.165 c 132,-1,5
 732.197 641.215 732.197 641.215 703.283 670.131 c 132,-1,6
 674.374 699.042 674.374 699.042 634.318 699.042 c 132,-1,7
 594.267 699.042 594.267 699.042 565.355 670.129 c 132,-1,0
 536.442 641.214 536.442 641.214 536.442 601.165 c 132,-1,1
328.95 597.09 m 128,-1,9
 328.95 723.006 328.95 723.006 417.829 812.404 c 128,-1,10
 506.748 901.847 506.748 901.847 632.044 901.847 c 128,-1,11
 757.342 901.847 757.342 901.847 846.261 812.404 c 128,-1,12
 935.139 723.003 935.139 723.003 935.139 597.09 c 128,-1,13
 935.139 471.164 935.139 471.164 846.26 381.773 c 128,-1,14
 757.334 292.336 757.334 292.336 632.044 292.336 c 128,-1,15
 506.748 292.336 506.748 292.336 417.829 381.774 c 128,-1,8
 328.95 471.173 328.95 471.173 328.95 597.09 c 128,-1,9
EndSplineSet
EndChar

StartChar: afii57393
Encoding: 1633 1633 57
Width: 1255
VWidth: 2304
GlyphClass: 2
Flags: W
LayerCount: 2
Fore
SplineSet
682.457 -31.3916 m 6,0,-1
 614.326 -53.9736 l 1,1,-1
 611.528 -1.6582 l 2,2,3
 573.312 712.895 573.312 712.895 377.97 1240.96 c 2,4,-1
 370.031 1262.42 l 1,5,-1
 511.903 1436.12 l 2,6,7
 531.714 1460.38 531.714 1460.38 551.521 1484.63 c 1,8,-1
 578.868 1428.29 l 2,9,10
 793.383 986.345 793.383 986.345 791.869 234.811 c 0,11,12
 791.419 4.72512 791.419 4.72512 682.457 -31.3916 c 6,0,-1
EndSplineSet
EndChar

StartChar: afii57394
Encoding: 1634 1634 58
Width: 1255
VWidth: 2161
GlyphClass: 2
Flags: W
LayerCount: 2
Fore
SplineSet
328.444 1427.56 m 2,0,1
 372.475 1319.65 372.475 1319.65 406.079 1254.49 c 0,2,3
 478.777 1114.48 478.777 1114.48 611.033 1100.19 c 0,4,5
 830.678 1076.04 830.678 1076.04 883.127 1269.06 c 0,6,7
 901.626 1337.14 901.626 1337.14 916.705 1417.47 c 2,8,-1
 925.064 1462 l 1,9,-1
 1107.97 1403.45 l 1,10,-1
 1106.55 1373.81 l 6,11,12
 1102.67 1292.89 1102.67 1292.89 1075.09 1188.82 c 0,13,14
 1030.83 1021.84 1030.83 1021.84 925.688 930.894 c 128,-1,15
 820.537 839.945 820.537 839.945 660.877 832.727 c 0,16,17
 604.637 830.181 604.637 830.181 559.639 835.339 c 1,18,19
 626.888 594.337 626.888 594.337 626.311 279.13 c 0,20,21
 625.423 -0.803793 625.423 -0.803793 517.247 -29.3145 c 2,22,-1
 435.59 -50.8359 l 1,23,-1
 434.617 0.0498047 l 2,24,25
 426.929 402.106 426.929 402.106 317.628 797.457 c 0,26,27
 281.799 926.328 281.799 926.328 119.925 1294.23 c 2,28,-1
 107.196 1323.16 l 1,29,-1
 308.772 1475.77 l 1,30,-1
 328.444 1427.56 l 2,0,1
EndSplineSet
EndChar

StartChar: afii57395
Encoding: 1635 1635 59
Width: 1255
VWidth: 2161
GlyphClass: 2
Flags: W
LayerCount: 2
Fore
SplineSet
509.193 836.699 m 1,0,1
 576.968 595.963 576.968 595.963 576.391 280.497 c 0,2,3
 575.493 -1.18015 575.493 -1.18015 465.271 -30.2422 c 6,4,-1
 383.617 -51.7656 l 1,5,-1
 382.642 -0.880859 l 2,6,7
 374.938 401.177 374.938 401.177 265.646 797.562 c 0,8,9
 229.813 926.451 229.813 926.451 67.9473 1294.32 c 2,10,-1
 55.2178 1323.25 l 1,11,-1
 256.771 1475.84 l 1,12,-1
 276.637 1427.24 l 2,13,14
 309.145 1347.71 309.145 1347.71 354.568 1253.63 c 0,15,16
 422.412 1115.73 422.412 1115.73 495.199 1103.55 c 0,17,18
 645.244 1079.16 645.244 1079.16 645.646 1340.19 c 2,19,-1
 645.694 1371.2 l 1,20,-1
 819.613 1415.7 l 1,21,-1
 820.289 1364.88 l 2,22,23
 823.791 1101.52 823.791 1101.52 926.413 1100.43 c 1,24,25
 1001.41 1101.08 1001.41 1101.08 1022.39 1203.95 c 0,26,27
 1039.89 1289.03 1039.89 1289.03 1038.03 1420.58 c 2,28,-1
 1037.33 1470.13 l 1,29,-1
 1238.98 1429.58 l 1,30,-1
 1239.55 1397.42 l 2,31,32
 1242.12 1252.32 1242.12 1252.32 1213.23 1123.71 c 0,33,34
 1185.04 997.3 1185.04 997.3 1120.05 925.01 c 128,-1,35
 1055.05 852.72 1055.05 852.72 955.046 845.732 c 0,36,37
 819.009 836.021 819.009 836.021 740.634 931.653 c 1,38,39
 673.248 846.484 673.248 846.484 556.364 834.936 c 0,40,41
 536.17 833.012 536.17 833.012 509.193 836.699 c 1,0,1
EndSplineSet
EndChar

StartChar: afii57396
Encoding: 1636 1636 60
Width: 1255
VWidth: 2301
GlyphClass: 2
Flags: W
LayerCount: 2
Fore
SplineSet
787.023 1187.31 m 2,0,1
 657.437 1221.91 657.437 1221.91 569.292 1193.73 c 1,2,3
 511.055 1169.71 511.055 1169.71 487.466 1133.44 c 128,-1,4
 463.877 1097.17 463.877 1097.17 468.066 1040.62 c 0,5,6
 474.869 948.062 474.869 948.062 605.565 898.592 c 0,7,8
 642.772 884.501 642.772 884.501 786.366 869.99 c 2,9,-1
 806.352 867.971 l 1,10,-1
 816.668 850.734 l 2,11,12
 856.083 784.882 856.083 784.882 855.044 726.622 c 2,13,-1
 854.449 693.257 l 1,14,-1
 821.518 687.861 l 2,15,16
 660.918 661.545 660.918 661.545 538.149 588.198 c 0,17,18
 419.224 517.147 419.224 517.147 414.758 438.087 c 0,19,20
 413.033 410.38 413.033 410.38 416.227 386.934 c 0,21,22
 424.157 328.72 424.157 328.72 464.429 294.38 c 128,-1,23
 504.701 260.041 504.701 260.041 589.322 246.969 c 0,24,25
 668.853 234.682 668.853 234.682 807.153 253.733 c 0,26,27
 889.577 265.087 889.577 265.087 1016.23 324.991 c 2,28,-1
 1085.1 357.565 l 1,29,-1
 1060.93 209.699 l 2,30,31
 1049.65 140.685 1049.65 140.685 997.38 94.7959 c 128,-1,32
 945.119 48.9141 945.119 48.9141 860.151 26.5596 c 0,33,34
 799.18 10.79 799.18 10.79 727.357 6.11035 c 0,35,36
 498.931 -8.77637 498.931 -8.77637 359.948 65.6992 c 0,37,38
 218.028 141.75 218.028 141.75 186.632 305.448 c 0,39,40
 146.4 509.171 146.4 509.171 269.652 645.682 c 4,41,42
 332.203 716.378 332.203 716.378 433.891 748.633 c 1,43,44
 255.086 823.822 255.086 823.822 232.363 999.64 c 0,45,46
 214.64 1133.03 214.64 1133.03 265.046 1229.85 c 128,-1,47
 315.453 1326.68 315.453 1326.68 430.656 1376.91 c 0,48,49
 504.034 1408.9 504.034 1408.9 586.466 1412.54 c 0,50,51
 695.343 1416.79 695.343 1416.79 786.881 1393.16 c 2,52,-1
 802.841 1389.04 l 1,53,-1
 811.267 1374.88 l 2,54,55
 824.001 1353.48 824.001 1353.48 828.871 1321.85 c 128,-1,56
 833.74 1290.22 833.74 1290.22 837.277 1228.24 c 2,57,-1
 840.428 1173.05 l 1,58,-1
 787.023 1187.31 l 2,0,1
EndSplineSet
EndChar

StartChar: afii57397
Encoding: 1637 1637 61
Width: 1255
VWidth: 2303
GlyphClass: 2
Flags: W
LayerCount: 2
Fore
SplineSet
412.896 753.126 m 1,0,1
 335.699 627.594 335.699 627.594 331.496 536.163 c 0,2,3
 324.248 384.473 324.248 384.473 406.336 318.871 c 0,4,5
 486.023 255.089 486.023 255.089 627.376 254.54 c 4,6,7
 820.022 253.787 820.022 253.787 883.801 348.026 c 0,8,9
 946.798 441.206 946.798 441.206 923.853 565.933 c 0,10,11
 900.58 692.443 900.58 692.443 790.445 823.851 c 0,12,13
 703.139 928.021 703.139 928.021 606.722 984.66 c 1,14,15
 491.008 886.31 491.008 886.31 412.896 753.126 c 1,0,1
544.242 1329.61 m 2,16,17
 653.822 1267.12 653.822 1267.12 788.715 1147.34 c 0,18,19
 933.455 1018.83 933.455 1018.83 1014.46 884.761 c 1,20,21
 1120.22 716.584 1120.22 716.584 1126.78 555.336 c 0,22,23
 1138.59 293.499 1138.59 293.499 1027.33 168.883 c 0,24,25
 896.653 21.0312 896.653 21.0312 629.42 22.1289 c 1,26,27
 358.355 22.1289 358.355 22.1289 231.368 169.223 c 0,28,29
 101.226 320.984 101.226 320.984 128.594 557.73 c 0,30,31
 138.957 680.362 138.957 680.362 236.036 858.539 c 0,32,33
 318.87 1010.57 318.87 1010.57 422.866 1113.58 c 1,34,35
 411.745 1120.67 411.745 1120.67 401.588 1127.02 c 1,36,-1
 506.597 1351.08 l 1,37,-1
 544.242 1329.61 l 2,16,17
EndSplineSet
EndChar

StartChar: afii57398
Encoding: 1638 1638 62
Width: 1255
VWidth: 2303
GlyphClass: 2
Flags: W
LayerCount: 2
Fore
SplineSet
967.213 1345.95 m 2,0,1
 968.482 1068.75 968.482 1068.75 1009.92 690.671 c 0,2,3
 1035.91 453.492 1035.91 453.492 1144.91 11.3105 c 2,4,-1
 1157.13 -38.2646 l 1,5,-1
 1072.11 -38.2646 l 2,6,7
 892.666 -38.2646 892.666 -38.2646 845.39 213.043 c 5,8,9
 793.339 451.876 793.339 451.876 771.255 686.866 c 0,10,11
 741.573 1002.7 741.573 1002.7 737.151 1101.85 c 1,12,13
 637.874 1077.61 637.874 1077.61 491.769 1077.61 c 0,14,15
 369.169 1077.61 369.169 1077.61 253.368 1094.35 c 0,16,17
 162.909 1107.08 162.909 1107.08 111.724 1158.59 c 128,-1,18
 60.5391 1210.09 60.5391 1210.09 60.5391 1293.46 c 2,19,-1
 60.5391 1396.61 l 1,20,-1
 110.617 1383.57 l 2,21,22
 303.058 1333.46 303.058 1333.46 478.989 1333.46 c 0,23,24
 693.537 1333.46 693.537 1333.46 918.312 1384.77 c 2,25,-1
 966.984 1395.88 l 1,26,-1
 967.213 1345.95 l 2,0,1
EndSplineSet
EndChar

StartChar: afii57399
Encoding: 1639 1639 63
Width: 1255
VWidth: 2304
GlyphClass: 2
Flags: W
LayerCount: 2
Fore
SplineSet
962.778 1432.3 m 1,0,-1
 1105.81 1254.78 l 2,1,2
 1110.66 1248.57 1110.66 1248.57 1124.38 1231.73 c 1,3,-1
 1109.76 1207.23 l 6,4,5
 943.476 928.576 943.476 928.576 866.306 648.723 c 0,6,7
 825.114 497.024 825.114 497.024 727.428 3.85156 c 2,8,-1
 722.608 -30.6084 l 1,9,-1
 520.685 -30.6084 l 1,10,-1
 515.02 8.71582 l 2,11,12
 482.684 233.196 482.684 233.196 383.383 627.622 c 0,13,14
 306.788 931.858 306.788 931.858 118.586 1207.05 c 2,15,-1
 101.126 1232.58 l 1,16,-1
 272.979 1429.86 l 1,17,-1
 302.906 1392.45 l 2,18,19
 459.25 1197.02 459.25 1197.02 577.708 769.195 c 0,20,21
 603.973 674.334 603.973 674.334 622.247 591.558 c 1,22,23
 640.6 670.635 640.6 670.635 666.852 769.316 c 0,24,25
 778.507 1189.04 778.507 1189.04 931.865 1391.49 c 2,26,-1
 962.778 1432.3 l 1,0,-1
EndSplineSet
EndChar

StartChar: afii57400
Encoding: 1640 1640 64
Width: 1255
VWidth: 2304
GlyphClass: 2
Flags: W
LayerCount: 2
Fore
SplineSet
931.589 -12.1533 m 2,0,1
 776.563 192.467 776.563 192.467 666.814 609.787 c 0,2,3
 640.443 710.582 640.443 710.582 622.156 791.61 c 1,4,5
 603.646 704.16 603.646 704.16 577.721 609.815 c 0,6,7
 459.252 181.952 459.252 181.952 302.906 -13.4795 c 2,8,-1
 272.98 -50.8867 l 1,9,-1
 101.127 146.372 l 1,10,-1
 118.587 171.904 l 2,11,12
 306.792 447.118 306.792 447.118 383.382 751.332 c 0,13,14
 466.092 1080.12 466.092 1080.12 515.021 1370.23 c 2,15,-1
 521.658 1409.58 l 5,16,-1
 722.425 1409.58 l 1,17,-1
 727.406 1375.34 l 2,18,19
 750.705 1215.19 750.705 1215.19 866.26 730.438 c 0,20,21
 940.76 417.9 940.76 417.9 1107.76 171.73 c 2,22,-1
 1124.38 147.231 l 1,23,-1
 962.779 -53.3213 l 1,24,-1
 931.589 -12.1533 l 2,0,1
EndSplineSet
EndChar

StartChar: afii57401
Encoding: 1641 1641 65
Width: 1255
VWidth: 2304
GlyphClass: 2
Flags: W
LayerCount: 2
Fore
SplineSet
602.521 580.552 m 4,0,1
 310.714 598.539 310.714 598.539 191.776 737.308 c 4,2,3
 94.9238 851.611 94.9238 851.611 94.9238 984.25 c 4,4,5
 94.9238 1167.59 94.9238 1167.59 206.004 1289.41 c 4,6,7
 333.381 1429.13 333.381 1429.13 538.878 1429.13 c 4,8,9
 723.119 1429.13 723.119 1429.13 820.251 1335.48 c 4,10,11
 959.328 1200.19 959.328 1200.19 975.438 983.91 c 4,12,13
 987.277 824.039 987.277 824.039 1007.82 654.321 c 4,14,15
 1039.48 385.504 1039.48 385.504 1136.43 9.53809 c 2,16,-1
 1149.32 -40.4473 l 1,17,-1
 1078.59 -40.4473 l 2,18,19
 899.432 -40.4473 899.432 -40.4473 851.217 201.979 c 4,20,21
 827.471 321.371 827.471 321.371 791.099 579.392 c 5,22,23
 698.906 574.562 698.906 574.562 602.521 580.552 c 4,0,1
765.282 826.311 m 5,24,-1
 760.628 894.719 l 6,25,26
 751.592 1027.52 751.592 1027.52 715.168 1083.59 c 5,27,28
 643.056 1184.3 643.056 1184.3 538.542 1184.3 c 4,29,30
 454.438 1184.3 454.438 1184.3 393.723 1125.74 c 4,31,32
 338.097 1072.09 338.097 1072.09 334.414 992.311 c 4,33,34
 331.025 924.446 331.025 924.446 389.089 873.923 c 4,35,36
 418.371 848.443 418.371 848.443 503.074 833.595 c 4,37,38
 617.156 813.588 617.156 813.588 765.282 826.311 c 5,24,-1
EndSplineSet
EndChar

StartChar: afii57381
Encoding: 1642 1642 66
Width: 1177
VWidth: 2226
GlyphClass: 2
Flags: W
LayerCount: 2
Fore
SplineSet
497.39 1327.05 m 2,0,-1
 497.39 1198.05 l 2,1,2
 497.39 1162.5 497.39 1162.5 477.525 1142.17 c 0,3,4
 458.831 1123.05 458.831 1123.05 429.387 1123.04 c 2,5,-1
 302.391 1123.05 l 2,6,7
 271.479 1123.05 271.479 1123.05 251.903 1141.92 c 0,8,9
 230.39 1162.67 230.39 1162.67 230.39 1199.05 c 2,10,-1
 230.39 1327.05 l 2,11,12
 230.39 1356.47 230.39 1356.47 248.646 1375.49 c 0,13,14
 269.34 1397.05 269.34 1397.05 306.39 1397.05 c 2,15,-1
 421.39 1397.05 l 2,16,17
 451.303 1397.05 451.303 1397.05 474.347 1377.88 c 128,-1,18
 497.39 1358.72 497.39 1358.72 497.39 1327.05 c 2,0,-1
949.192 273.849 m 2,19,-1
 949.192 144.849 l 2,20,21
 949.192 109.293 949.192 109.293 929.323 88.9717 c 0,22,23
 910.625 69.8477 910.625 69.8477 881.192 69.8477 c 2,24,-1
 754.192 69.8477 l 2,25,26
 723.278 69.8477 723.278 69.8477 703.704 88.7227 c 0,27,28
 682.192 109.467 682.192 109.467 682.192 145.848 c 2,29,-1
 682.192 273.849 l 2,30,31
 682.192 303.275 682.192 303.275 700.448 322.291 c 0,32,33
 721.145 343.848 721.145 343.848 758.192 343.848 c 2,34,-1
 873.192 343.848 l 2,35,36
 903.104 343.848 903.104 343.848 926.148 324.682 c 128,-1,37
 949.192 305.517 949.192 305.517 949.192 273.849 c 2,19,-1
855.122 1464.63 m 1,38,-1
 1034.27 1372.33 l 1,39,-1
 316.822 -12.0557 l 1,40,-1
 139.174 85.5713 l 1,41,-1
 855.122 1464.63 l 1,38,-1
EndSplineSet
EndChar

StartChar: uni066B
Encoding: 1643 1643 67
Width: 711
VWidth: 2186
GlyphClass: 2
Flags: W
LayerCount: 2
Fore
SplineSet
444.346 500.131 m 1,0,-1
 565.334 499.229 l 1,1,2
 340.456 113.258 340.456 113.258 128.896 -228.25 c 1,3,-1
 5.16701 -226.551 l 1,4,5
 100.063 -73.9085 100.063 -73.9085 444.346 500.131 c 1,0,-1
EndSplineSet
EndChar

StartChar: uni066C
Encoding: 1644 1644 68
Width: 696
VWidth: 2186
GlyphClass: 2
Flags: W
LayerCount: 2
Fore
SplineSet
293.2 1578.01 m 1,0,-1
 488.97 1578.01 l 1,1,-1
 488.97 1434 l 1,2,-1
 319.336 1104.04 l 1,3,-1
 209.804 1104.04 l 1,4,-1
 293.2 1428.48 l 1,5,-1
 293.2 1578.01 l 1,0,-1
EndSplineSet
EndChar

StartChar: afii63167
Encoding: 1645 1645 69
Width: 1194
VWidth: 2186
GlyphClass: 2
Flags: W
LayerCount: 2
Fore
SplineSet
139.026 792.63 m 1,0,-1
 488.081 792.63 l 1,1,-1
 597.061 1124.43 l 1,2,-1
 706.039 792.63 l 1,3,-1
 1055.1 792.63 l 1,4,-1
 773.103 586.484 l 1,5,-1
 880.997 255.023 l 1,6,-1
 597.061 460.197 l 1,7,-1
 313.123 255.023 l 1,8,-1
 421.017 586.484 l 1,9,-1
 139.026 792.63 l 1,0,-1
EndSplineSet
EndChar

StartChar: uni066E
Encoding: 1646 1646 70
Width: 1734
VWidth: 2423
GlyphClass: 2
Flags: W
AnchorPoint: "Anchor-10" 715.642 1166.35 basechar 0
AnchorPoint: "Anchor-7" 459.653 -236.595 basechar 0
LayerCount: 2
Fore
SplineSet
1331.79 703.688 m 1,0,-1
 1545.87 897.928 l 1,1,-1
 1565.17 839.515 l 2,2,3
 1631.43 638.959 1631.43 638.959 1642.79 457.588 c 0,4,5
 1659.12 196.769 1659.12 196.769 1516.13 111.68 c 0,6,7
 1380.28 31.1201 1380.28 31.1201 1141.08 -1.07227 c 0,8,9
 1030.24 -15.8018 1030.24 -15.8018 971.38 -17.5576 c 0,10,11
 470.739 -37.875 470.739 -37.875 265.953 68.9795 c 0,12,13
 44.666 184.611 44.666 184.611 51.877 520.239 c 0,14,15
 54.8633 660.342 54.8633 660.342 112.22 773.723 c 2,16,-1
 130.38 809.62 l 1,17,-1
 250.152 748.165 l 1,18,-1
 241.723 716.926 l 2,19,20
 232.368 682.261 232.368 682.261 225.86 619.431 c 1,21,22
 221.641 560.904 221.641 560.904 222.538 517.338 c 0,23,24
 226.78 405.423 226.78 405.423 310.854 341.516 c 128,-1,25
 394.927 277.608 394.927 277.608 574.783 260.244 c 0,26,27
 721.833 246.047 721.833 246.047 1008.38 248.684 c 1,28,29
 1156.96 254.121 1156.96 254.121 1238.21 270.237 c 0,30,31
 1367.98 295.98 1367.98 295.98 1446.02 338.516 c 0,32,33
 1462.26 347.548 1462.26 347.548 1465.21 361.83 c 128,-1,34
 1468.16 376.111 1468.16 376.111 1455.03 417.354 c 1,35,-1
 1331.79 703.688 l 1,0,-1
EndSplineSet
Substitution2: "'init' Initial Forms in Arabic lookup 13 subtable" uni066E.init
Substitution2: "'medi' Medial Forms in Arabic lookup 11 subtable" uni066E.medi
Substitution2: "'fina' Terminal Forms in Arabic lookup 9 subtable" uni066E.fina
EndChar

StartChar: uni066F
Encoding: 1647 1647 71
Width: 1469
VWidth: 2441
GlyphClass: 2
Flags: W
AnchorPoint: "Anchor-10" 323.138 1169.65 basechar 0
AnchorPoint: "Anchor-7" 461.151 -665.124 basechar 0
LayerCount: 2
Fore
SplineSet
1050.27 531.205 m 0,0,1
 1008.62 530.146 1008.62 530.146 984.612 504.625 c 128,-1,2
 960.604 479.105 960.604 479.105 949.583 416.734 c 0,3,4
 942.746 376.776 942.746 376.776 951.208 359.342 c 128,-1,5
 959.669 341.906 959.669 341.906 984.797 333.529 c 0,6,7
 1072.83 304.187 1072.83 304.187 1188.72 336.712 c 1,8,9
 1185.6 394.473 1185.6 394.473 1164.16 441.631 c 0,10,11
 1142.32 490.399 1142.32 490.399 1114.9 510.892 c 128,-1,12
 1087.48 531.385 1087.48 531.385 1050.27 531.205 c 0,0,1
1361.19 0.480469 m 0,13,14
 1304.03 -229.017 1304.03 -229.017 1126.69 -347.853 c 128,-1,15
 949.35 -466.688 949.35 -466.688 662.697 -472.516 c 0,16,17
 286.072 -479.827 286.072 -479.827 129.229 -261.35 c 0,18,19
 -0.492188 -81.875 -0.492188 -81.875 71.1406 214.936 c 0,20,21
 95.1895 314.585 95.1895 314.585 121.144 392.385 c 0,22,23
 142.433 455.154 142.433 455.154 169.079 523.283 c 2,24,-1
 185.85 566.158 l 1,25,-1
 335.168 482.053 l 1,26,-1
 322.222 449.561 l 2,27,28
 201.903 147.589 201.903 147.589 272.519 -28.4414 c 0,29,30
 345.131 -211.939 345.131 -211.939 646.116 -218.196 c 0,31,32
 883.79 -223.138 883.79 -223.138 1011.79 -148.495 c 128,-1,33
 1139.78 -73.8525 1139.78 -73.8525 1172.07 79.1191 c 1,34,35
 1106.37 70.3027 1106.37 70.3027 1029.28 77.6621 c 0,36,37
 887.934 91.1592 887.934 91.1592 819.022 198.572 c 0,38,39
 760.377 290.13 760.377 290.13 774.383 421.955 c 0,40,41
 795.94 624.858 795.94 624.858 905.687 730.925 c 0,42,43
 973.983 796.932 973.983 796.932 1090.79 787.022 c 0,44,45
 1177.81 779.199 1177.81 779.199 1258.58 688.436 c 0,46,47
 1352.08 585.091 1352.08 585.091 1374.78 398.85 c 0,48,49
 1402.82 168.766 1402.82 168.766 1361.19 0.480469 c 0,13,14
EndSplineSet
Substitution2: "'init' Initial Forms in Arabic lookup 13 subtable" uni066F.init
Substitution2: "'medi' Medial Forms in Arabic lookup 11 subtable" uni066F.medi
Substitution2: "'fina' Terminal Forms in Arabic lookup 9 subtable" uni066F.fina
EndChar

StartChar: uni0670
Encoding: 1648 1648 72
Width: 0
VWidth: 2186
GlyphClass: 4
Flags: W
AnchorPoint: "Anchor-10" 547.84 1279.5 mark 0
AnchorPoint: "Anchor-9" 547.84 1279.5 mark 0
AnchorPoint: "Anchor-1" 547.84 1884 basemark 0
AnchorPoint: "Anchor-1" 547.84 1279.5 mark 0
LayerCount: 2
Fore
SplineSet
527.887 1329.81 m 1,0,-1
 504.051 1780.58 l 1,1,-1
 591.69 1832.19 l 1,2,-1
 591.69 1329.81 l 1,3,-1
 527.887 1329.81 l 1,0,-1
EndSplineSet
EndChar

StartChar: uni0674
Encoding: 1652 1652 73
Width: 639
VWidth: 2186
GlyphClass: 2
Flags: W
LayerCount: 2
Fore
SplineSet
145.54 1513.67 m 1,0,-1
 260.506 1540.2 l 1,1,-1
 255.134 1542.64 l 2,2,3
 147.68 1591.5 147.68 1591.5 147.68 1692.52 c 0,4,5
 147.68 1764.89 147.68 1764.89 207.315 1817.49 c 0,6,7
 257.742 1861.48 257.742 1861.48 343 1862 c 0,8,9
 409.565 1862 409.565 1862 460.08 1832.66 c 1,10,-1
 460.08 1759.96 l 1,11,12
 391.561 1791.91 391.561 1791.91 336.842 1786.29 c 0,13,14
 224.701 1774.86 224.701 1774.86 218.267 1701.25 c 0,15,16
 210.514 1611.48 210.514 1611.48 329.581 1575.42 c 0,17,18
 365.845 1564.43 365.845 1564.43 482.55 1591.18 c 1,19,-1
 482.55 1513 l 1,20,-1
 145.54 1437.34 l 1,21,-1
 145.54 1513.67 l 1,0,-1
EndSplineSet
EndChar

StartChar: uni06A1
Encoding: 1697 1697 77
Width: 1771
VWidth: 2441
GlyphClass: 2
Flags: W
AnchorPoint: "Anchor-10" 506.587 1353.37 basechar 0
AnchorPoint: "Anchor-7" 625.678 -180.525 basechar 0
LayerCount: 2
Fore
SplineSet
1351.06 814.26 m 0,0,1
 1309.41 813.199 1309.41 813.199 1285.4 787.68 c 128,-1,2
 1261.39 762.16 1261.39 762.16 1250.37 699.791 c 0,3,4
 1244.41 664.979 1244.41 664.979 1253.44 646.386 c 128,-1,5
 1262.47 627.793 1262.47 627.793 1289.36 615.099 c 0,6,7
 1371.39 578.544 1371.39 578.544 1489.58 618.286 c 1,8,9
 1486.56 677.175 1486.56 677.175 1464.95 724.684 c 0,10,11
 1443.11 773.454 1443.11 773.454 1415.69 793.947 c 128,-1,12
 1388.27 814.439 1388.27 814.439 1351.06 814.26 c 0,0,1
1477.1 361.433 m 1,13,14
 1406.96 352.432 1406.96 352.432 1329.61 360.765 c 0,15,16
 1187.52 376.068 1187.52 376.068 1119.81 481.628 c 0,17,18
 1061.16 573.181 1061.16 573.181 1075.16 704.905 c 0,19,20
 1095.27 906.513 1095.27 906.513 1206.47 1013.98 c 0,21,22
 1274.78 1079.98 1274.78 1079.98 1391.59 1070.08 c 0,23,24
 1478.61 1062.25 1478.61 1062.25 1559.37 971.495 c 0,25,26
 1652.88 868.112 1652.88 868.112 1675.58 681.795 c 1,27,28
 1695.6 509.045 1695.6 509.045 1676.94 391.267 c 0,29,30
 1640.52 161.243 1640.52 161.243 1459.83 59.1816 c 0,31,32
 1336.39 -10.0088 1336.39 -10.0088 973.049 -19.667 c 0,33,34
 442.367 -33.7314 442.367 -33.7314 268.752 58.0938 c 0,35,36
 46.4463 175.194 46.4463 175.194 53.877 520.238 c 0,37,38
 56.8633 660.343 56.8633 660.343 114.216 773.717 c 2,39,-1
 132.429 809.72 l 1,40,-1
 251.729 748.069 l 1,41,-1
 243.306 716.912 l 2,42,43
 234.883 685.755 234.883 685.755 227.78 618.658 c 0,44,45
 222.596 571.989 222.596 571.989 224.527 517.626 c 0,46,47
 228.418 411.156 228.418 411.156 307.909 346.135 c 128,-1,48
 387.4 281.113 387.4 281.113 556.605 256.342 c 0,49,50
 640.864 244.008 640.864 244.008 1007 244.081 c 1,51,52
 1274.93 250.178 1274.93 250.178 1359.51 279.417 c 0,53,54
 1448.94 310.087 1448.94 310.087 1477.1 361.433 c 1,13,14
EndSplineSet
Substitution2: "'init' Initial Forms in Arabic lookup 13 subtable" uni06A1.init
Substitution2: "'medi' Medial Forms in Arabic lookup 11 subtable" uni06A1.medi
Substitution2: "'fina' Terminal Forms in Arabic lookup 9 subtable" uni06A1.fina
EndChar

StartChar: uni06A9
Encoding: 1705 1705 78
Width: 1869
VWidth: 2464
GlyphClass: 2
Flags: W
AnchorPoint: "Anchor-10" 276.21 1351.47 basechar 0
AnchorPoint: "Anchor-7" 405.316 -249.053 basechar 0
LayerCount: 2
Fore
SplineSet
266.808 58.0654 m 0,0,1
 44.4463 175.194 44.4463 175.194 51.877 520.239 c 0,2,3
 54.8623 660.341 54.8623 660.341 112.211 773.706 c 2,4,-1
 130.52 809.898 l 1,5,-1
 248.304 748.245 l 1,6,-1
 240.831 717.806 l 2,7,8
 233.459 687.775 233.459 687.775 225.769 618.554 c 0,9,10
 220.596 571.988 220.596 571.988 222.528 517.626 c 0,11,12
 226.341 413.28 226.341 413.28 305.983 348.13 c 128,-1,13
 385.625 282.979 385.625 282.979 554.919 256.295 c 0,14,15
 683.02 236.908 683.02 236.908 922.533 243.965 c 0,16,17
 980.256 245.831 980.256 245.831 1031.88 248.85 c 0,18,19
 1439.42 272.674 1439.42 272.674 1435.2 344.593 c 0,20,21
 1430.71 421.086 1430.71 421.086 1273.45 552.768 c 4,22,23
 1181.88 629.441 1181.88 629.441 950.342 752.624 c 2,24,-1
 931.133 762.843 l 1,25,-1
 929.275 784.521 l 2,26,27
 922.215 866.899 922.215 866.899 935.425 929.905 c 0,28,29
 960.398 1049.01 960.398 1049.01 1055.58 1098.89 c 2,30,-1
 1841.03 1510.42 l 1,31,-1
 1823.64 1427.44 l 2,32,33
 1793.79 1284.97 1793.79 1284.97 1756.42 1211.9 c 2,34,-1
 1750.46 1200.24 l 1,35,-1
 1167.48 907.461 l 1,36,37
 1421.31 749.624 1421.31 749.624 1514.46 632.308 c 0,38,39
 1615.76 504.718 1615.76 504.718 1621.1 376.561 c 0,40,41
 1625.21 275.859 1625.21 275.859 1578.3 198.745 c 128,-1,42
 1531.4 121.631 1531.4 121.631 1438.08 74.335 c 0,43,44
 1285.18 -3.16113 1285.18 -3.16113 925.534 -19.0518 c 0,45,46
 452.705 -39.9424 452.705 -39.9424 266.808 58.0654 c 0,0,1
EndSplineSet
Substitution2: "'init' Initial Forms in Arabic lookup 13 subtable" uniFB90
Substitution2: "'medi' Medial Forms in Arabic lookup 11 subtable" uniFB91
Substitution2: "'fina' Terminal Forms in Arabic lookup 9 subtable" uniFB8F
EndChar

StartChar: afii57514
Encoding: 1722 1722 80
Width: 1466
VWidth: 2424
GlyphClass: 2
Flags: W
AnchorPoint: "Anchor-10" 617.359 1065.84 basechar 0
AnchorPoint: "Anchor-7" 321.13 -776.362 basechar 0
LayerCount: 2
Fore
SplineSet
200.525 473.594 m 1,0,-1
 334.903 385.271 l 1,1,-1
 324.589 355.791 l 2,2,3
 222.596 64.2607 222.596 64.2607 285.522 -70.1455 c 0,4,5
 382.585 -275.657 382.585 -275.657 697.449 -270.4 c 0,6,7
 931.723 -266.418 931.723 -266.418 1047.33 -194.724 c 128,-1,8
 1162.93 -123.029 1162.93 -123.029 1176.88 14.3027 c 1,9,-1
 1033.59 457.841 l 1,10,-1
 1231.2 657.179 l 1,11,-1
 1252.24 596.609 l 2,12,13
 1372.86 249.53 1372.86 249.53 1370.01 19.123 c 0,14,15
 1369.99 17.2617 1369.99 17.2617 1369.96 15.3916 c 2,16,-1
 1369.35 11.7969 l 2,17,18
 1324.93 -248.127 1324.93 -248.127 1155.86 -383.566 c 128,-1,19
 986.781 -519.005 986.781 -519.005 703.229 -524.424 c 0,20,21
 300.903 -531.791 300.903 -531.791 142.752 -304.597 c 0,22,23
 18.7139 -124.976 18.7139 -124.976 85.1289 140.975 c 0,24,25
 101.921 208.207 101.921 208.207 139.299 318.242 c 0,26,27
 162.158 385.535 162.158 385.535 181.561 430.067 c 2,28,-1
 200.525 473.594 l 1,0,-1
EndSplineSet
Substitution2: "'init' Initial Forms in Arabic lookup 13 subtable" uni06BA.init
Substitution2: "'medi' Medial Forms in Arabic lookup 11 subtable" uni06BA.medi
Substitution2: "'fina' Terminal Forms in Arabic lookup 9 subtable" uniFB9F
EndChar

StartChar: uni06F4
Encoding: 1780 1780 87
Width: 1255
VWidth: 2108
GlyphClass: 2
Flags: W
LayerCount: 2
Fore
SplineSet
378.654 1163.97 m 1,0,1
 433.271 1327.74 433.271 1327.74 589.836 1408.06 c 0,2,3
 763.357 1497.56 763.357 1497.56 974.023 1412.7 c 2,4,-1
 984.45 1408.5 l 1,5,-1
 991.161 1399.48 l 2,6,7
 1007.89 1376.99 1007.89 1376.99 1017.49 1339.67 c 0,8,9
 1031.38 1285.65 1031.38 1285.65 1037.82 1231.86 c 2,10,-1
 1044.62 1175.03 l 1,11,12
 918.625 1255.03 918.625 1255.03 793.661 1242.84 c 0,13,14
 698.933 1232.69 698.933 1232.69 650.979 1186.58 c 0,15,16
 556.979 1096.19 556.979 1096.19 577.852 962.36 c 1,17,18
 790.547 889.339 790.547 889.339 1008.45 982.97 c 2,19,-1
 1041.73 997.27 l 1,20,-1
 1059.25 965.56 l 2,21,22
 1087.68 914.095 1087.68 914.095 1098.15 809.564 c 2,23,-1
 1101.13 779.8 l 1,24,-1
 1073.43 768.525 l 2,25,26
 786.568 651.761 786.568 651.761 519.691 731.365 c 1,27,28
 564.141 510.043 564.141 510.043 563.531 266.773 c 0,29,30
 562.656 -3.09395 562.656 -3.09395 457.576 -30.7842 c 6,31,-1
 377.269 -51.9492 l 1,32,-1
 376.29 -1.07031 l 2,33,34
 368.801 388.152 368.801 388.152 263.861 765.609 c 0,35,36
 229.373 889.662 229.373 889.662 73.8486 1243.05 c 2,37,-1
 61.1211 1271.97 l 1,38,-1
 254.835 1418.65 l 1,39,-1
 378.654 1163.97 l 1,0,1
EndSplineSet
EndChar

StartChar: uni06F5
Encoding: 1781 1781 88
Width: 1255
VWidth: 2161
GlyphClass: 2
Flags: W
LayerCount: 2
Fore
SplineSet
675.034 362.197 m 0,0,1
 747.903 221.572 747.903 221.572 869.136 216.903 c 0,2,3
 891.22 216.06 891.22 216.06 909.048 219.399 c 0,4,5
 944.026 225.952 944.026 225.952 963.607 250.323 c 128,-1,6
 983.188 274.694 983.188 274.694 989.565 328.095 c 128,-1,7
 995.942 381.495 995.942 381.495 978.179 467.275 c 1,8,9
 912.357 772.243 912.357 772.243 600.284 981.41 c 5,10,11
 363.178 739.548 363.178 739.548 288.661 515.364 c 0,12,13
 258.586 424.884 258.586 424.884 255.906 360.976 c 0,14,15
 252.779 286.433 252.779 286.433 283.43 253.554 c 128,-1,16
 314.079 220.675 314.079 220.675 390.141 217.532 c 0,17,18
 499.688 213.003 499.688 213.003 577.599 361.451 c 0,19,20
 588.719 382.64 588.719 382.64 604.803 391.046 c 1,21,22
 616.336 398.464 616.336 398.464 627.353 397.054 c 128,-1,23
 638.368 395.644 638.368 395.644 645.884 392.554 c 128,-1,24
 653.398 389.463 653.398 389.463 660.163 382.164 c 128,-1,25
 666.928 374.866 666.928 374.866 669.958 370.506 c 128,-1,26
 672.988 366.146 672.988 366.146 675.034 362.197 c 0,0,1
393.425 -41.2002 m 0,27,28
 238.632 -41.1982 238.632 -41.1982 149.534 39.957 c 128,-1,29
 60.4375 121.111 60.4375 121.111 48.1719 273.791 c 0,30,31
 20.5412 659.788 20.5412 659.788 428.972 1130.52 c 5,32,33
 426.104 1133.11 426.104 1133.11 424.614 1134.53 c 6,34,-1
 405.965 1152.32 l 5,35,-1
 490.645 1394.87 l 5,36,-1
 534.149 1363.42 l 6,37,38
 603.316 1313.42 603.316 1313.42 642.406 1277.97 c 4,39,40
 1245.58 734.605 1245.58 734.605 1193.82 276.723 c 0,41,42
 1176.01 119.165 1176.01 119.165 1090.54 36.7178 c 128,-1,43
 1005.06 -45.7295 1005.06 -45.7295 860.583 -40.6641 c 1,44,45
 699.651 -36.4795 699.651 -36.4795 625.914 72.7158 c 1,46,47
 551.847 -41.1963 551.847 -41.1963 393.425 -41.2002 c 0,27,28
EndSplineSet
EndChar

StartChar: uni06F6
Encoding: 1782 1782 89
Width: 1255
VWidth: 2304
GlyphClass: 2
Flags: W
LayerCount: 2
Fore
SplineSet
159.645 8.96387 m 2,0,1
 178.041 92.7393 178.041 92.7393 332.508 363.438 c 0,2,3
 434.477 542.134 434.477 542.134 491.621 617.302 c 1,4,5
 354.441 667.548 354.441 667.548 284.149 771.192 c 128,-1,6
 213.858 874.837 213.858 874.837 215.129 1024.1 c 0,7,8
 216.101 1161.22 216.101 1161.22 298.386 1274.5 c 0,9,10
 416.378 1434.85 416.378 1434.85 632.46 1427.7 c 0,11,12
 794.845 1422.32 794.845 1422.32 872.734 1335.87 c 2,13,-1
 880.149 1327.64 l 1,14,-1
 902.363 1112.83 l 1,15,16
 794.363 1188.83 794.363 1188.83 672.82 1187.29 c 0,17,18
 483.21 1183.79 483.21 1183.79 456.916 1052.05 c 0,19,20
 413.363 833.834 413.363 833.834 738.724 798.914 c 5,21,22
 780.035 813.742 780.035 813.742 1039.22 923.383 c 2,23,-1
 1084.13 942.381 l 1,24,-1
 1093.98 894.62 l 2,25,26
 1109.23 820.661 1109.23 820.661 1104.98 737.021 c 2,27,-1
 1103.57 709.29 l 1,28,-1
 1077.1 700.914 l 2,29,30
 725.427 589.633 725.427 589.633 506.416 214.734 c 0,31,32
 359.176 -37.3256 359.176 -37.3256 242.293 -38.9961 c 2,33,-1
 148.82 -40.332 l 1,34,-1
 159.645 8.96387 l 2,0,1
EndSplineSet
EndChar

StartChar: uniFB8F
Encoding: 64399 64399 104
Width: 2047
VWidth: 2424
GlyphClass: 2
Flags: W
AnchorPoint: "Anchor-10" 350.693 1279.9 basechar 0
AnchorPoint: "Anchor-7" 438.621 -263.27 basechar 0
LayerCount: 2
Fore
SplineSet
919.262 -19.583 m 0,0,1
 437.348 -32.0928 437.348 -32.0928 268.271 58.375 c 0,2,3
 46.5059 175.635 46.5059 175.635 53.9268 520.238 c 0,4,5
 56.9131 660.344 56.9131 660.344 114.268 773.718 c 2,6,-1
 132.48 809.72 l 1,7,-1
 251.351 748.29 l 1,8,-1
 243.537 717.5 l 2,9,10
 234.366 681.361 234.366 681.361 227.834 618.688 c 0,11,12
 222.646 571.988 222.646 571.988 224.578 517.618 c 0,13,14
 228.468 411.168 228.468 411.168 307.964 346.141 c 128,-1,15
 387.459 281.114 387.459 281.114 556.621 256.347 c 0,16,17
 642.163 243.976 642.163 243.976 917.838 243.467 c 0,18,19
 985.689 243.487 985.689 243.487 1045.06 245.65 c 0,20,21
 1432.34 259.761 1432.34 259.761 1429.2 344.912 c 0,22,23
 1426.56 419.062 1426.56 419.062 1267.49 552.251 c 4,24,25
 1175.9 628.945 1175.9 628.945 944.384 752.107 c 2,26,-1
 925.175 762.326 l 1,27,-1
 923.317 784.005 l 2,28,29
 916.201 867.068 916.201 867.068 929.688 930.431 c 0,30,31
 954.867 1048.73 954.867 1048.73 1049.63 1098.37 c 2,32,-1
 1835.07 1509.9 l 1,33,-1
 1817.68 1426.92 l 2,34,35
 1787.83 1284.46 1787.83 1284.46 1750.46 1211.38 c 2,36,-1
 1744.5 1199.72 l 1,37,-1
 1159.55 905.952 l 1,38,39
 1401.66 747.09 1401.66 747.09 1552.62 605.14 c 0,40,41
 1677.21 487.977 1677.21 487.977 1782.07 402.166 c 128,-1,42
 1886.92 316.355 1886.92 316.355 1943.47 280.004 c 128,-1,43
 2000.05 243.634 2000.05 243.634 2018.23 243.74 c 2,44,-1
 2067.62 244.03 l 1,45,-1
 2067.62 -20.124 l 1,46,-1
 1998.67 -20.124 l 2,47,48
 1910.11 -20.124 1910.11 -20.124 1809.98 50.21 c 128,-1,49
 1709.84 120.543 1709.84 120.543 1591.61 257.552 c 1,50,51
 1541.32 123.755 1541.32 123.755 1413.58 52.7021 c 0,52,53
 1353.94 19.5264 1353.94 19.5264 1234.36 2.78223 c 128,-1,54
 1114.78 -13.9619 1114.78 -13.9619 919.262 -19.583 c 0,0,1
EndSplineSet
EndChar

StartChar: uniFB9F
Encoding: 64415 64415 112
Width: 1475
VWidth: 2424
GlyphClass: 2
Flags: W
AnchorPoint: "Anchor-10" 341.574 809.934 basechar 0
AnchorPoint: "Anchor-7" 236.53 -762.24 basechar 0
LayerCount: 2
Fore
SplineSet
189.072 477.149 m 1,0,-1
 313.647 380.053 l 1,1,-1
 304.557 353.152 l 2,2,3
 207.67 66.4228 207.67 66.4228 272.526 -70.1562 c 0,4,5
 321.415 -173.11 321.415 -173.11 422.144 -223.104 c 128,-1,6
 522.872 -273.099 522.872 -273.099 684.449 -270.4 c 0,7,8
 918.724 -266.418 918.724 -266.418 1034.33 -194.724 c 128,-1,9
 1149.93 -123.029 1149.93 -123.029 1163.88 14.3018 c 1,10,-1
 1020.33 458.644 l 1,11,-1
 1245.42 671.601 l 1,12,-1
 1259.11 599.812 l 2,13,14
 1304.23 363.23 1304.23 363.23 1328.46 311.958 c 0,15,16
 1331.88 304.9 1331.88 304.9 1335.82 298.481 c 0,17,18
 1368.84 244.607 1368.84 244.607 1440.32 244.608 c 2,19,-1
 1495.33 244.608 l 1,20,-1
 1495.33 -19.3545 l 1,21,-1
 1464.71 -19.3545 l 6,22,23
 1395.7 -19.3545 1395.7 -19.3545 1355.2 5.22168 c 1,24,25
 1309.3 -251.847 1309.3 -251.847 1140.6 -385.444 c 128,-1,26
 971.907 -519.042 971.907 -519.042 690.232 -524.424 c 0,27,28
 287.903 -531.793 287.903 -531.793 129.753 -304.598 c 0,29,30
 5.71484 -124.977 5.71484 -124.977 72.1299 140.975 c 0,31,32
 88.9209 208.206 88.9209 208.206 126.299 318.242 c 0,33,34
 149.16 385.538 149.16 385.538 168.479 429.881 c 2,35,-1
 189.072 477.149 l 1,0,-1
EndSplineSet
EndChar

StartChar: uniFBE8
Encoding: 64488 64488 115
Width: 578
VWidth: 2423
GlyphClass: 2
Flags: W
AnchorPoint: "Anchor-10" 213.123 1128.12 basechar 0
AnchorPoint: "Anchor-7" 239.521 -208.252 basechar 0
LayerCount: 2
Fore
SplineSet
37.3193 -19.1885 m 1,0,-1
 -33.6172 -19.1885 l 5,1,-1
 -33.6172 244.885 l 5,2,-1
 44.2275 244.885 l 2,3,4
 60.0897 244.885 60.0897 244.885 74.9854 245.426 c 0,5,6
 194.677 249.768 194.677 249.768 242.852 282.968 c 0,7,8
 292.174 316.959 292.174 316.959 288.785 377.724 c 0,9,10
 288.387 384.861 288.387 384.861 275.719 415.635 c 128,-1,11
 263.052 446.408 263.052 446.408 233.462 506.76 c 128,-1,12
 203.88 567.094 203.88 567.094 165.62 636.541 c 2,13,-1
 150.367 664.227 l 1,14,-1
 361.239 855.557 l 1,15,-1
 384.33 806.828 l 2,16,17
 476.198 612.959 476.198 612.959 486.618 431.637 c 0,18,19
 498.412 226.417 498.412 226.417 397.422 108.699 c 0,20,21
 284.594 -23.707 284.594 -23.707 37.3193 -19.1885 c 1,0,-1
EndSplineSet
EndChar

StartChar: uniFBE9
Encoding: 64489 64489 116
Width: 695
VWidth: 2423
GlyphClass: 2
Flags: W
AnchorPoint: "Anchor-10" 329.725 1074.33 basechar 0
AnchorPoint: "Anchor-7" 309.69 -133.276 basechar 0
LayerCount: 2
Fore
SplineSet
292.095 529.865 m 2,0,1
 295.451 567.122 295.451 567.122 314.212 594.943 c 128,-1,2
 332.985 622.781 332.985 622.781 370.025 623.092 c 128,-1,3
 407.207 623.421 407.207 623.421 430.145 597.79 c 0,4,5
 453.55 571.637 453.55 571.637 456.036 534.979 c 2,6,-1
 460.872 463.68 l 2,7,8
 469.115 342.155 469.115 342.155 510.099 295.979 c 1,9,10
 553.993 244.769 553.993 244.769 693.69 244.766 c 2,11,-1
 714.438 244.766 l 1,12,-1
 714.438 -19.2334 l 1,13,-1
 691.803 -19.541 l 1,14,-1
 621.736 -20.3848 l 2,15,16
 472.116 -22.1866 472.116 -22.1866 377.766 112.501 c 1,17,18
 258.346 -15.9192 258.346 -15.9192 92.9512 -18.2559 c 6,19,-1
 -20.9648 -19.8652 l 1,20,-1
 -20.9648 244.766 l 1,21,-1
 47.1562 244.766 l 2,22,23
 131.256 244.766 131.256 244.766 183.654 267.312 c 0,24,25
 237.39 290.459 237.39 290.459 261.591 320.914 c 128,-1,26
 285.791 351.367 285.791 351.367 287.235 392.654 c 2,27,-1
 291.997 528.777 l 1,28,-1
 292.095 529.865 l 2,0,1
EndSplineSet
EndChar

StartChar: uniFE73
Encoding: 65139 65139 124
Width: 573
VWidth: 2186
GlyphClass: 2
Flags: W
AnchorPoint: "Anchor-10" 210.79 1279.5 basechar 0
AnchorPoint: "Anchor-7" 210.79 -111.5 basechar 0
LayerCount: 2
Fore
SplineSet
294.23 350.74 m 2,0,1
 294.23 285.679 294.23 285.679 351.054 228.854 c 0,2,3
 402.525 177.38 402.525 177.38 514.67 177.38 c 2,4,-1
 579.92 177.38 l 1,5,-1
 579.92 10.5 l 1,6,-1
 455.82 10.5 l 2,7,8
 310.094 10.5 310.094 10.5 216.047 104.547 c 0,9,10
 127.35 193.243 127.35 193.243 127.35 337.9 c 2,11,-1
 127.35 368.91 l 1,12,-1
 294.23 368.91 l 1,13,-1
 294.23 350.74 l 2,0,1
EndSplineSet
EndChar

StartChar: uniFE8E
Encoding: 65166 65166 150
Width: 568
VWidth: 2399
GlyphClass: 2
Flags: W
AnchorPoint: "Anchor-10" 153.67 1505.88 basechar 0
AnchorPoint: "Anchor-7" 251.362 -257.141 basechar 0
LayerCount: 2
Fore
SplineSet
333.3 1473.94 m 1,0,-1
 333.925 482.792 l 2,1,2
 334.008 350.768 334.008 350.768 382.258 299.913 c 0,3,4
 435.204 243.97 435.204 243.97 545.061 243.969 c 2,5,-1
 588.955 243.969 l 1,6,-1
 588.955 -18.9951 l 5,7,-1
 522.968 -18.9951 l 2,8,9
 348.657 -18.9951 348.657 -18.9951 242.398 97.3213 c 0,10,11
 139.866 209.562 139.866 209.562 134.813 421.365 c 0,12,13
 122.154 987.416 122.154 987.416 121.208 1033.38 c 0,14,15
 115.447 1313.31 115.447 1313.31 86.8828 1345.66 c 1,16,-1
 333.3 1473.94 l 1,0,-1
EndSplineSet
EndChar

StartChar: uniFEA2
Encoding: 65186 65186 170
Width: 1329
VWidth: 2380
GlyphClass: 2
Flags: W
AnchorPoint: "Anchor-10" 597.149 1275.41 basechar 0
AnchorPoint: "Anchor-7" 329.128 -909.878 basechar 0
LayerCount: 2
Fore
SplineSet
853.026367188 485.811523438 m 1,0,1
 804.131643126 473.216071914 804.131643126 473.216071914 758.11328125 457.2109375 c 0,2,3
 298.015845243 297.546130406 298.015845243 297.546130406 298.211914062 -33.6533203125 c 0,4,5
 298.0234375 -188.6328125 298.0234375 -188.6328125 435.431640625 -296.820800781 c 128,-1,6
 572.83984375 -405.008789062 572.83984375 -405.008789062 831.0859375 -405.165039062 c 0,7,8
 1007.44042969 -405.00390625 1007.44042969 -405.00390625 1208.96289062 -358.647460938 c 2,9,-1
 1256.35058594 -347.747070312 l 1,10,-1
 1257.90917969 -396.34765625 l 2,11,12
 1260.33501795 -471.966227079 1260.33501795 -471.966227079 1128.60815492 -541.625720062 c 128,-1,13
 996.881291898 -611.285213046 996.881291898 -611.285213046 746.757407413 -611.285213046 c 0,14,15
 441.211995492 -611.285213046 441.211995492 -611.285213046 246.105509465 -463.065946367 c 128,-1,16
 50.9990234375 -314.846679688 50.9990234375 -314.846679688 51.015625 -62.28515625 c 0,17,18
 50.9990234375 293.374023438 50.9990234375 293.374023438 410.48046875 514.168945312 c 0,19,20
 554.642578125 602.672851562 554.642578125 602.672851562 726.615234375 647.166015625 c 1,21,22
 691.309570312 662.612304688 691.309570312 662.612304688 648.329589844 683.655761719 c 0,23,24
 514.838781096 749.014286021 514.838781096 749.014286021 428.912109375 749.134765625 c 0,25,26
 291.942382812 749.021484375 291.942382812 749.021484375 199.247070312 541.680664062 c 2,27,-1
 186.606445312 513.404296875 l 1,28,-1
 144.428710938 520.53125 l 2,29,30
 25.5873187913 539.599129664 25.5873187913 539.599129664 160.2265625 806.895507812 c 0,31,32
 248.219201589 984.024282195 248.219201589 984.024282195 420.012695312 983.850585938 c 0,33,34
 530.93643153 984.013722788 530.93643153 984.013722788 690.008743109 899.644556706 c 128,-1,35
 849.081054688 815.275390625 849.081054688 815.275390625 951.688476562 785.547851562 c 128,-1,36
 1054.29589844 755.8203125 1054.29589844 755.8203125 1166.39550781 752.2734375 c 2,37,-1
 1211.90332031 750.833007812 l 1,38,-1
 1175.375 525.6171875 l 1,39,-1
 1142.09960938 524.884765625 l 2,40,41
 1080.30957031 523.525390625 1080.30957031 523.525390625 1021.12304688 516.666992188 c 1,42,43
 1044.51074219 373.858398438 1044.51074219 373.858398438 1104.81542969 309.600585938 c 128,-1,44
 1165.12011719 245.342773438 1165.12011719 245.342773438 1267.09960938 245.342773438 c 2,45,-1
 1359.1796875 245.342773438 l 1,46,-1
 1359.1796875 -19.6708984375 l 1,47,-1
 1274.21972656 -19.6708984375 l 2,48,49
 1094.125 -19.845703125 1094.125 -19.845703125 988.508789062 110.6796875 c 128,-1,50
 882.891601562 241.205078125 882.891601562 241.205078125 853.026367188 485.811523438 c 1,0,1
EndSplineSet
EndChar

StartChar: uniFEA3
Encoding: 65187 65187 171
Width: 1290
VWidth: 2424
GlyphClass: 2
Flags: W
AnchorPoint: "Anchor-10" 302.027 1169.23 basechar 0
AnchorPoint: "Anchor-7" 519.062 -234.52 basechar 0
LayerCount: 2
Fore
SplineSet
695.144 137.656 m 0,0,1
 437.386 -19.458 437.386 -19.458 16.2695 -19.458 c 2,2,-1
 -20.9785 -19.458 l 1,3,-1
 -20.9785 244.666 l 1,4,-1
 6.42578 244.666 l 2,5,6
 348.973 244.666 348.973 244.666 629.502 350.648 c 0,7,8
 746.914 394.636 746.914 394.636 814.648 423.632 c 1,9,10
 728.255 451.428 728.255 451.428 608.986 507.188 c 0,11,12
 429.763 590.979 429.763 590.979 355.537 579.487 c 0,13,14
 239.661 561.545 239.661 561.545 143.121 371.395 c 2,15,-1
 131.289 348.09 l 1,16,-1
 92.0332 350.312 l 2,17,18
 12.6004 354.808 12.6004 354.808 53.4727 521.88 c 4,19,20
 56.0928 532.59 56.0928 532.59 57.2305 537.445 c 0,21,22
 75.3301 614.677 75.3301 614.677 91.2891 647.379 c 0,23,24
 172.102 810.714 172.102 810.714 346.945 828.564 c 0,25,26
 418.825 835.488 418.825 835.488 520.482 799.926 c 128,-1,27
 622.14 764.363 622.14 764.363 763.76 686.505 c 0,28,29
 889.523 617.364 889.523 617.364 1190.77 562.208 c 2,30,-1
 1229.46 555.124 l 1,31,-1
 1192.91 341.661 l 1,32,-1
 1154.75 339.454 l 2,33,34
 1073.17 334.736 1073.17 334.736 977.77 291.66 c 0,35,36
 862.971 239.824 862.971 239.824 695.144 137.656 c 0,0,1
EndSplineSet
EndChar

StartChar: uniFEA4
Encoding: 65188 65188 172
Width: 1304
VWidth: 2424
GlyphClass: 2
Flags: W
AnchorPoint: "Anchor-10" 382.436 1192.01 basechar 0
AnchorPoint: "Anchor-7" 569.419 -242.859 basechar 0
LayerCount: 2
Fore
SplineSet
936.797 276.023 m 1,0,1
 966.601 244.132 966.601 244.132 1069.51 244.132 c 2,2,-1
 1324.78 244.132 l 1,3,-1
 1324.78 -19.9453 l 1,4,-1
 1045.69 -19.9453 l 2,5,6
 951.989 -19.9453 951.989 -19.9453 882.779 33.416 c 128,-1,7
 813.569 86.7773 813.569 86.7773 773.501 185.795 c 1,8,-1
 695.194 137.688 l 1,9,10
 437.386 -19.458 437.386 -19.458 16.2695 -19.458 c 2,11,-1
 -20.9785 -19.458 l 1,12,-1
 -20.9785 244.666 l 1,13,-1
 17.9766 244.666 l 2,14,15
 348.974 244.666 348.974 244.666 629.502 350.648 c 0,16,17
 744.276 393.647 744.276 393.647 811.741 422.389 c 1,18,19
 716.15 451.17 716.15 451.17 607.486 507.931 c 0,20,21
 454.675 587.751 454.675 587.751 352.914 579.175 c 0,22,23
 243.926 569.988 243.926 569.988 143.123 371.398 c 2,24,-1
 131.292 348.09 l 1,25,-1
 92.0322 350.312 l 6,26,27
 16.737 354.574 16.737 354.574 57.126 536.982 c 0,28,29
 74.3203 614.711 74.3203 614.711 105.294 663.099 c 0,30,31
 201.897 814.008 201.897 814.008 363.781 820.237 c 0,32,33
 481.854 824.196 481.854 824.196 747.476 683.645 c 0,34,35
 886.54 610.059 886.54 610.059 1203.17 562.354 c 2,36,-1
 1243.31 556.306 l 1,37,-1
 1206.74 340.823 l 1,38,-1
 1169.7 339.235 l 2,39,40
 1057.96 334.445 1057.96 334.445 936.797 276.023 c 1,0,1
EndSplineSet
EndChar

StartChar: uniFEAA
Encoding: 65194 65194 178
Width: 1056
VWidth: 2418
GlyphClass: 2
Flags: W
AnchorPoint: "Anchor-10" 439.287 1248.7 basechar 0
AnchorPoint: "Anchor-7" 339.685 -271.271 basechar 0
LayerCount: 2
Fore
SplineSet
156.271 366.214 m 2,0,1
 163.232 310.27 163.232 310.27 205.547 281.975 c 128,-1,2
 247.861 253.678 247.861 253.678 340.516 252.153 c 0,3,4
 427.563 250.603 427.563 250.603 495.8 257.57 c 128,-1,5
 564.035 264.537 564.035 264.537 593.812 273.192 c 128,-1,6
 623.59 281.848 623.59 281.848 629.194 289.534 c 0,7,8
 649.867 317.768 649.867 317.768 640.576 365.084 c 0,9,10
 639.225 372.207 639.225 372.207 637.893 376.892 c 1,11,-1
 412.944 776.629 l 1,12,-1
 546.366 1038.34 l 1,13,-1
 828.572 486.928 l 1,14,15
 897.927 366.746 897.927 366.746 954.623 306.292 c 128,-1,16
 1011.32 245.841 1011.32 245.841 1040.17 244.604 c 2,17,-1
 1050.39 244.166 l 1,18,-1
 1077.55 244.166 l 1,19,-1
 1077.55 -19.7979 l 1,20,-1
 1053.27 -19.7979 l 6,21,22
 874.874 -19.7979 874.874 -19.7979 782.882 126.194 c 1,23,24
 661.789 -43.4131 661.789 -43.4131 315.339 -15.6797 c 1,25,-1
 284.812 -12.2529 l 1,26,27
 173.63 1.3252 173.63 1.3252 112.282 62.7207 c 128,-1,28
 50.9345 124.116 50.9345 124.116 51.1982 226.083 c 2,29,-1
 51.6201 389.234 l 1,30,-1
 77.7178 398.852 l 2,31,32
 105.16 408.966 105.16 408.966 131.483 398.394 c 2,33,-1
 153.36 389.608 l 1,34,-1
 156.271 366.214 l 2,0,1
EndSplineSet
EndChar

StartChar: uniFEAE
Encoding: 65198 65198 182
Width: 871
VWidth: 2088
GlyphClass: 2
Flags: W
AnchorPoint: "Anchor-10" 406.823 1075.83 basechar 0
AnchorPoint: "Anchor-7" 438.116 -690.845 basechar 0
LayerCount: 2
Fore
SplineSet
750.846 276.603 m 28,0,1
 760.905 244.764 760.905 244.764 848.562 244.764 c 2,2,-1
 891.358 244.764 l 1,3,-1
 891.358 -19.3066 l 1,4,-1
 867.359 -19.3086 l 2,5,6
 833.953 -19.3114 833.953 -19.3114 828.931 -19.3018 c 0,7,8
 771.848 -19.0381 771.848 -19.0381 734.068 -6.63379 c 1,9,10
 667.183 -299.707 667.183 -299.707 479.345 -457.927 c 1,11,12
 245.709 -505.742 245.709 -505.742 -35.5049 -428.742 c 1,13,14
 507.891 -229.626 507.891 -229.626 560.761 122.037 c 0,15,16
 566.765 162.497 566.765 162.497 541.062 235.167 c 128,-1,17
 515.36 307.841 515.36 307.841 456.216 405.137 c 2,18,-1
 442.332 427.977 l 1,19,-1
 458.121 447.542 l 2,20,21
 542.793 552.463 542.793 552.463 634.816 596.3 c 1,22,23
 657.352 575.526 657.352 575.526 750.846 276.603 c 28,0,1
EndSplineSet
PairPos2: "'kern' Horizontal Kerning lookup 15-1" uni06CC dx=-148 dy=0 dh=-148 dv=0 dx=0 dy=0 dh=0 dv=0
PairPos2: "'kern' Horizontal Kerning lookup 15-1" uniFEEB dx=-224 dy=0 dh=-224 dv=0 dx=0 dy=0 dh=0 dv=0
PairPos2: "'kern' Horizontal Kerning lookup 15-1" uniFB58 dx=63 dy=0 dh=63 dv=0 dx=0 dy=0 dh=0 dv=0
PairPos2: "'kern' Horizontal Kerning lookup 15-1" uniFEF3 dx=63 dy=0 dh=63 dv=0 dx=0 dy=0 dh=0 dv=0
PairPos2: "'kern' Horizontal Kerning lookup 15-1" uniFBFE dx=63 dy=0 dh=63 dv=0 dx=0 dy=0 dh=0 dv=0
PairPos2: "'kern' Horizontal Kerning lookup 15-1" uniFEDF dx=-224 dy=0 dh=-224 dv=0 dx=0 dy=0 dh=0 dv=0
PairPos2: "'kern' Horizontal Kerning lookup 15-1" uniFB90 dx=-224 dy=0 dh=-224 dv=0 dx=0 dy=0 dh=0 dv=0
PairPos2: "'kern' Horizontal Kerning lookup 15-1" uni06A9 dx=-224 dy=0 dh=-224 dv=0 dx=0 dy=0 dh=0 dv=0
PairPos2: "'kern' Horizontal Kerning lookup 15-1" uni0649 dx=-148 dy=0 dh=-148 dv=0 dx=0 dy=0 dh=0 dv=0
PairPos2: "'kern' Horizontal Kerning lookup 15-1" uni0647 dx=-224 dy=0 dh=-224 dv=0 dx=0 dy=0 dh=0 dv=0
PairPos2: "'kern' Horizontal Kerning lookup 15-1" uniFEE7 dx=-224 dy=0 dh=-224 dv=0 dx=0 dy=0 dh=0 dv=0
PairPos2: "'kern' Horizontal Kerning lookup 15-1" uniFEE3 dx=-224 dy=0 dh=-224 dv=0 dx=0 dy=0 dh=0 dv=0
PairPos2: "'kern' Horizontal Kerning lookup 15-1" uni0645 dx=-224 dy=0 dh=-224 dv=0 dx=0 dy=0 dh=0 dv=0
PairPos2: "'kern' Horizontal Kerning lookup 15-1" uniFEDB dx=-224 dy=0 dh=-224 dv=0 dx=0 dy=0 dh=0 dv=0
PairPos2: "'kern' Horizontal Kerning lookup 15-1" uniFED7 dx=-224 dy=0 dh=-224 dv=0 dx=0 dy=0 dh=0 dv=0
PairPos2: "'kern' Horizontal Kerning lookup 15-1" uniFED3 dx=-224 dy=0 dh=-224 dv=0 dx=0 dy=0 dh=0 dv=0
PairPos2: "'kern' Horizontal Kerning lookup 15-1" uni0641 dx=-224 dy=0 dh=-224 dv=0 dx=0 dy=0 dh=0 dv=0
PairPos2: "'kern' Horizontal Kerning lookup 15-1" uniFECF dx=-224 dy=0 dh=-224 dv=0 dx=0 dy=0 dh=0 dv=0
PairPos2: "'kern' Horizontal Kerning lookup 15-1" uniFECB dx=-224 dy=0 dh=-224 dv=0 dx=0 dy=0 dh=0 dv=0
PairPos2: "'kern' Horizontal Kerning lookup 15-1" uniFEC7 dx=-224 dy=0 dh=-224 dv=0 dx=0 dy=0 dh=0 dv=0
PairPos2: "'kern' Horizontal Kerning lookup 15-1" uni0638 dx=-224 dy=0 dh=-224 dv=0 dx=0 dy=0 dh=0 dv=0
PairPos2: "'kern' Horizontal Kerning lookup 15-1" uniFEC3 dx=-224 dy=0 dh=-224 dv=0 dx=0 dy=0 dh=0 dv=0
PairPos2: "'kern' Horizontal Kerning lookup 15-1" uni0637 dx=-224 dy=0 dh=-224 dv=0 dx=0 dy=0 dh=0 dv=0
PairPos2: "'kern' Horizontal Kerning lookup 15-1" uniFEBF dx=-224 dy=0 dh=-224 dv=0 dx=0 dy=0 dh=0 dv=0
PairPos2: "'kern' Horizontal Kerning lookup 15-1" uni0636 dx=-224 dy=0 dh=-224 dv=0 dx=0 dy=0 dh=0 dv=0
PairPos2: "'kern' Horizontal Kerning lookup 15-1" uniFEBB dx=-224 dy=0 dh=-224 dv=0 dx=0 dy=0 dh=0 dv=0
PairPos2: "'kern' Horizontal Kerning lookup 15-1" uni0635 dx=-224 dy=0 dh=-224 dv=0 dx=0 dy=0 dh=0 dv=0
PairPos2: "'kern' Horizontal Kerning lookup 15-1" uniFEB7 dx=-224 dy=0 dh=-224 dv=0 dx=0 dy=0 dh=0 dv=0
PairPos2: "'kern' Horizontal Kerning lookup 15-1" uni0634 dx=-224 dy=0 dh=-224 dv=0 dx=0 dy=0 dh=0 dv=0
PairPos2: "'kern' Horizontal Kerning lookup 15-1" uniFEB3 dx=-224 dy=0 dh=-224 dv=0 dx=0 dy=0 dh=0 dv=0
PairPos2: "'kern' Horizontal Kerning lookup 15-1" uni0633 dx=-224 dy=0 dh=-224 dv=0 dx=0 dy=0 dh=0 dv=0
PairPos2: "'kern' Horizontal Kerning lookup 15-1" uni0630 dx=-224 dy=0 dh=-224 dv=0 dx=0 dy=0 dh=0 dv=0
PairPos2: "'kern' Horizontal Kerning lookup 15-1" uni062F dx=-224 dy=0 dh=-224 dv=0 dx=0 dy=0 dh=0 dv=0
PairPos2: "'kern' Horizontal Kerning lookup 15-1" uniFEA7 dx=-224 dy=0 dh=-224 dv=0 dx=0 dy=0 dh=0 dv=0
PairPos2: "'kern' Horizontal Kerning lookup 15-1" uniFEA3 dx=-224 dy=0 dh=-224 dv=0 dx=0 dy=0 dh=0 dv=0
PairPos2: "'kern' Horizontal Kerning lookup 15-1" uniFE9F dx=-224 dy=0 dh=-224 dv=0 dx=0 dy=0 dh=0 dv=0
PairPos2: "'kern' Horizontal Kerning lookup 15-1" uniFE9B dx=-224 dy=0 dh=-224 dv=0 dx=0 dy=0 dh=0 dv=0
PairPos2: "'kern' Horizontal Kerning lookup 15-1" uni062B dx=-224 dy=0 dh=-224 dv=0 dx=0 dy=0 dh=0 dv=0
PairPos2: "'kern' Horizontal Kerning lookup 15-1" uniFE97 dx=-224 dy=0 dh=-224 dv=0 dx=0 dy=0 dh=0 dv=0
PairPos2: "'kern' Horizontal Kerning lookup 15-1" uni062A dx=-224 dy=0 dh=-224 dv=0 dx=0 dy=0 dh=0 dv=0
PairPos2: "'kern' Horizontal Kerning lookup 15-1" uni0629 dx=-224 dy=0 dh=-224 dv=0 dx=0 dy=0 dh=0 dv=0
PairPos2: "'kern' Horizontal Kerning lookup 15-1" uni0628 dx=-224 dy=0 dh=-224 dv=0 dx=0 dy=0 dh=0 dv=0
PairPos2: "'kern' Horizontal Kerning lookup 15-1" uni0627 dx=-253 dy=0 dh=-253 dv=0 dx=0 dy=0 dh=0 dv=0
PairPos2: "'kern' Horizontal Kerning lookup 15-1" uni0622 dx=-253 dy=0 dh=-253 dv=0 dx=0 dy=0 dh=0 dv=0
PairPos2: "'kern' Horizontal Kerning lookup 15-1" uniFB94 dx=-224 dy=0 dh=-224 dv=0 dx=0 dy=0 dh=0 dv=0
PairPos2: "'kern' Horizontal Kerning lookup 15-1" afii57509 dx=-224 dy=0 dh=-224 dv=0 dx=0 dy=0 dh=0 dv=0
PairPos2: "'kern' Horizontal Kerning lookup 15-1" uniFB56 dx=-224 dy=0 dh=-224 dv=0 dx=0 dy=0 dh=0 dv=0
PairPos2: "'kern' Horizontal Kerning lookup 15-1" afii57506 dx=-224 dy=0 dh=-224 dv=0 dx=0 dy=0 dh=0 dv=0
EndChar

StartChar: uniFEB2
Encoding: 65202 65202 186
Width: 2426
VWidth: 2423
GlyphClass: 2
Flags: W
AnchorPoint: "Anchor-10" 570.561 996.887 basechar 0
AnchorPoint: "Anchor-7" 386.915 -764.992 basechar 0
LayerCount: 2
Fore
SplineSet
1480.71 236.538 m 0,0,1
 1521.27 235.964 1521.27 235.964 1548.64 257.365 c 128,-1,2
 1576 278.768 1576 278.768 1595.32 330.012 c 0,3,4
 1598.22 337.726 1598.22 337.726 1600.87 346.085 c 0,5,6
 1616.67 395.73 1616.67 395.73 1618.37 472.804 c 2,7,-1
 1618.4 474.169 l 1,8,-1
 1618.52 475.528 l 2,9,10
 1621.79 512.618 1621.79 512.618 1640.65 540.543 c 128,-1,11
 1659.43 568.355 1659.43 568.355 1696.45 568.665 c 0,12,13
 1733.7 568.995 1733.7 568.995 1756.6 543.396 c 128,-1,14
 1779.5 517.796 1779.5 517.796 1782.48 480.188 c 1,15,-1
 1783.68 455.719 l 2,16,17
 1789.26 342.001 1789.26 342.001 1821.34 294.146 c 128,-1,18
 1853.39 246.342 1853.39 246.342 1910.3 245.621 c 0,19,20
 1955.43 245.049 1955.43 245.049 1984.73 281.819 c 128,-1,21
 2014.02 318.59 2014.02 318.59 2027.35 409.054 c 1,22,-1
 2037.58 520.062 l 2,23,24
 2037.59 520.135 2037.59 520.135 2037.49 528.046 c 2,25,-1
 2037.67 530.049 l 2,26,27
 2041.02 567.311 2041.02 567.311 2059.79 595.167 c 128,-1,28
 2078.55 623.021 2078.55 623.021 2115.61 623.328 c 128,-1,29
 2152.83 623.658 2152.83 623.658 2175.74 598.055 c 0,30,31
 2199.63 571.353 2199.63 571.353 2201.63 534.981 c 2,32,-1
 2205.78 459.396 l 2,33,34
 2212.58 335.483 2212.58 335.483 2234.94 299.116 c 0,35,36
 2267.78 244.724 2267.78 244.724 2400.41 244.723 c 2,37,-1
 2447.57 244.723 l 5,38,-1
 2447.57 -19.3525 l 5,39,-1
 2407.25 -19.3525 l 2,40,41
 2190.22 -19.3523 2190.22 -19.3523 2102.28 102.509 c 1,42,43
 2037.93 -11.2227 2037.93 -11.2227 1920.3 -18.3799 c 0,44,45
 1842.1 -23.1289 1842.1 -23.1289 1779.9 8.98438 c 128,-1,46
 1717.7 41.0977 1717.7 41.0977 1677.7 106.672 c 1,47,48
 1607.81 -13.5117 1607.81 -13.5117 1483.56 -18.9639 c 0,49,50
 1410.14 -22.1855 1410.14 -22.1855 1355.67 8.45312 c 1,51,52
 1310.74 -249.596 1310.74 -249.596 1141.73 -384.311 c 128,-1,53
 972.71 -519.025 972.71 -519.025 690.133 -524.424 c 0,54,55
 287.804 -531.793 287.804 -531.793 129.657 -304.604 c 0,56,57
 2.30371 -120.176 2.30371 -120.176 72.1826 141.568 c 0,58,59
 93.1855 220.239 93.1855 220.239 124.049 313.117 c 0,60,61
 151.906 398.984 151.906 398.984 162.435 427.739 c 2,62,-1
 179.958 475.597 l 1,63,-1
 314.637 385.243 l 1,64,-1
 304.994 356.341 l 2,65,66
 208.349 66.6765 208.349 66.6765 272.422 -70.1416 c 0,67,68
 369.485 -275.657 369.485 -275.657 684.348 -270.4 c 0,69,70
 918.623 -266.418 918.623 -266.418 1034.23 -194.724 c 128,-1,71
 1149.83 -123.029 1149.83 -123.029 1163.78 14.3018 c 1,72,-1
 1020.23 458.644 l 1,73,-1
 1245.48 671.759 l 1,74,-1
 1259.02 599.697 l 2,75,76
 1302.4 368.836 1302.4 368.836 1329.45 311.877 c 0,77,78
 1364.57 237.965 1364.57 237.965 1480.71 236.538 c 0,0,1
EndSplineSet
EndChar

StartChar: uniFEB3
Encoding: 65203 65203 187
Width: 1365
VWidth: 2423
GlyphClass: 2
Flags: W
AnchorPoint: "Anchor-10" 669.348 1057.99 basechar 0
AnchorPoint: "Anchor-7" 602.356 -214.73 basechar 0
LayerCount: 2
Fore
SplineSet
218.841 418.006 m 2,0,1
 222.163 455.213 222.163 455.213 240.959 483.087 c 128,-1,2
 259.733 510.928 259.733 510.928 296.771 511.236 c 128,-1,3
 333.799 511.565 333.799 511.565 356.651 485.908 c 128,-1,4
 379.503 460.252 379.503 460.252 382.67 424.499 c 1,5,-1
 386.807 394.582 l 2,6,7
 398.538 309.745 398.538 309.745 433.04 273.374 c 128,-1,8
 467.548 236.998 467.548 236.998 530.414 236.336 c 0,9,10
 569.397 235.745 569.397 235.745 596.713 260.505 c 128,-1,11
 624.027 285.265 624.027 285.265 643.241 345.875 c 0,12,13
 659.109 395.697 659.109 395.697 660.742 472.598 c 2,14,-1
 660.771 473.963 l 1,15,-1
 660.894 475.323 l 2,16,17
 664.261 512.56 664.261 512.56 683.023 540.34 c 128,-1,18
 701.809 568.154 701.809 568.154 738.822 568.461 c 0,19,20
 776.07 568.791 776.07 568.791 798.971 543.197 c 128,-1,21
 821.871 517.604 821.871 517.604 824.86 479.994 c 1,22,-1
 826.059 455.5 l 2,23,24
 831.578 342.754 831.578 342.754 861.837 294.966 c 0,25,26
 893.306 245.265 893.306 245.265 943.316 245.42 c 0,27,28
 948.805 245.437 948.805 245.437 953.744 245.612 c 0,29,30
 1023.04 248.088 1023.04 248.088 1050.79 278.104 c 0,31,32
 1079.84 309.527 1079.84 309.527 1075.99 378.258 c 0,33,34
 1075.59 385.398 1075.59 385.398 1062.92 416.172 c 128,-1,35
 1050.26 446.945 1050.26 446.945 1020.67 507.294 c 128,-1,36
 991.088 567.622 991.088 567.622 952.823 637.078 c 2,37,-1
 937.57 664.764 l 1,38,-1
 1148.45 856.093 l 1,39,-1
 1171.54 807.365 l 2,40,41
 1263.39 613.531 1263.39 613.531 1273.81 432.229 c 0,42,43
 1287.12 216.694 1287.12 216.694 1189.89 100.382 c 0,44,45
 1089.38 -19.8164 1089.38 -19.8164 962.86 -18.2383 c 0,46,47
 882.957 -17.2412 882.957 -17.2412 843.149 1.80762 c 0,48,49
 766.053 38.7969 766.053 38.7969 719.911 109.99 c 1,50,51
 640.018 -26.2725 640.018 -26.2725 505.334 -19.1436 c 0,52,53
 438.527 -15.1172 438.527 -15.1172 385.946 17.1387 c 128,-1,54
 333.365 49.3955 333.365 49.3955 300.138 106.061 c 1,55,56
 213.631 -19.209 213.631 -19.209 58.8066 -19.209 c 2,57,-1
 -21.8613 -19.209 l 5,58,-1
 -21.8613 244.866 l 5,59,-1
 47.9053 244.866 l 2,60,61
 138.979 244.866 138.979 244.866 176.31 269.707 c 128,-1,62
 213.639 294.549 213.639 294.549 215.727 344.532 c 2,63,-1
 218.756 417.054 l 1,64,-1
 218.841 418.006 l 2,0,1
EndSplineSet
EndChar

StartChar: uniFEB4
Encoding: 65204 65204 188
Width: 1448
VWidth: 2423
GlyphClass: 2
Flags: W
AnchorPoint: "Anchor-10" 635.229 1057.32 basechar 0
LayerCount: 2
Fore
SplineSet
1221.91 532.627 m 2,0,-1
 1225 473.81 l 2,1,2
 1232.12 338.198 1232.12 338.198 1256.26 298.899 c 0,3,4
 1289.09 244.52 1289.09 244.52 1403.88 244.521 c 2,5,-1
 1468.89 244.521 l 5,6,-1
 1468.89 -19.5557 l 5,7,-1
 1410.72 -19.5557 l 2,8,9
 1208.98 -19.5558 1208.98 -19.5558 1123.94 100.575 c 1,10,11
 1091.81 42.9453 1091.81 42.9453 1042.01 11.6299 c 128,-1,12
 992.2 -19.6855 992.2 -19.6855 929.507 -20.7559 c 0,13,14
 862.422 -22.2461 862.422 -22.2461 807.898 9.8916 c 128,-1,15
 753.375 42.0303 753.375 42.0303 717.153 102.55 c 1,16,17
 683.346 43.8223 683.346 43.8223 628.87 12.748 c 128,-1,18
 574.395 -18.3262 574.395 -18.3262 504.828 -19.1992 c 0,19,20
 434.405 -20.3848 434.405 -20.3848 377.444 12.4082 c 128,-1,21
 320.482 45.2012 320.482 45.2012 282.345 107.543 c 1,22,23
 199.911 -19.209 199.911 -19.209 61.9062 -19.209 c 2,24,-1
 -20.8613 -19.209 l 1,25,-1
 -20.8613 244.866 l 1,26,-1
 51.0059 244.866 l 2,27,28
 175.654 244.866 175.654 244.866 205.704 300.042 c 0,29,30
 215.63 318.268 215.63 318.268 216.727 344.532 c 2,31,-1
 219.758 417.103 l 1,32,-1
 219.844 418.056 l 2,33,34
 223.205 455.3 223.205 455.3 241.967 483.102 c 128,-1,35
 260.746 510.928 260.746 510.928 297.771 511.236 c 128,-1,36
 334.799 511.565 334.799 511.565 357.651 485.908 c 128,-1,37
 380.503 460.252 380.503 460.252 383.67 424.499 c 1,38,-1
 387.806 394.584 l 2,39,40
 399.688 308.641 399.688 308.641 430.041 272.755 c 128,-1,41
 460.393 236.871 460.393 236.871 511.429 236.336 c 0,42,43
 554.388 235.765 554.388 235.765 582.57 255.624 c 128,-1,44
 610.754 275.484 610.754 275.484 630.221 321.872 c 0,45,46
 634.946 333.134 634.946 333.134 638.986 345.858 c 0,47,48
 654.859 395.697 654.859 395.697 656.492 472.598 c 2,49,-1
 656.521 473.963 l 1,50,-1
 656.644 475.323 l 2,51,52
 660.011 512.56 660.011 512.56 678.773 540.34 c 128,-1,53
 697.559 568.154 697.559 568.154 734.572 568.461 c 0,54,55
 771.84 568.791 771.84 568.791 794.73 543.208 c 128,-1,56
 817.62 517.624 817.62 517.624 820.619 479.89 c 1,57,-1
 822.867 427.99 l 2,58,59
 827.385 323.684 827.385 323.684 856.542 283.221 c 128,-1,60
 885.699 242.76 885.699 242.76 939.79 245.375 c 0,61,62
 979.423 247.296 979.423 247.296 1006.36 279.499 c 128,-1,63
 1033.3 311.702 1033.3 311.702 1047.91 387.196 c 0,64,65
 1058.63 441.601 1058.63 441.601 1057.79 524.015 c 2,66,-1
 1057.77 525.983 l 1,67,-1
 1057.95 527.946 l 2,68,69
 1061.37 565.239 1061.37 565.239 1080.08 592.922 c 128,-1,70
 1098.88 620.719 1098.88 620.719 1135.88 621.025 c 128,-1,71
 1172.99 621.354 1172.99 621.354 1195.97 595.521 c 0,72,73
 1220.03 568.489 1220.03 568.489 1221.91 532.627 c 2,0,-1
EndSplineSet
EndChar

StartChar: uniFEBA
Encoding: 65210 65210 194
Width: 2611
VWidth: 2424
GlyphClass: 2
Flags: W
AnchorPoint: "Anchor-10" 607.719 958.971 basechar 0
AnchorPoint: "Anchor-7" 365.4 -736.046 basechar 0
LayerCount: 2
Fore
SplineSet
1258.13 599.889 m 2,0,1
 1279.89 484.059 1279.89 484.059 1299.4 406.2 c 128,-1,2
 1318.92 328.286 1318.92 328.286 1326.82 315.189 c 0,3,4
 1344 286.714 1344 286.714 1365.65 275.215 c 128,-1,5
 1387.3 263.715 1387.3 263.715 1418.43 265.594 c 1,6,7
 1614.46 542.025 1614.46 542.025 1709.22 634.98 c 1,8,9
 1910.15 828.527 1910.15 828.527 2096.13 815.566 c 0,10,11
 2232.46 806.385 2232.46 806.385 2308.03 719.903 c 128,-1,12
 2383.6 633.422 2383.6 633.422 2391.81 482.192 c 0,13,14
 2396.76 395.622 2396.76 395.622 2381.67 323.415 c 1,15,16
 2454.16 243.983 2454.16 243.983 2575.9 243.984 c 2,17,-1
 2632.08 243.984 l 5,18,-1
 2632.08 -19.6406 l 5,19,-1
 2591.65 -19.7451 l 2,20,21
 2348.23 -20.3741 2348.23 -20.3741 2250.85 114.916 c 1,22,23
 2216.69 86.1592 2216.69 86.1592 2174.61 64.9697 c 0,24,25
 2005.46 -20.2368 2005.46 -20.2368 1815.9 -19.7461 c 2,26,-1
 1527.65 -19 l 2,27,28
 1425.36 -18.7352 1425.36 -18.7352 1356.05 17.7891 c 1,29,-1
 1355.88 14.666 l 1,30,-1
 1355.5 12.4121 l 2,31,32
 1311.73 -247.183 1311.73 -247.183 1142.17 -383.235 c 0,33,34
 972.969 -519.004 972.969 -519.004 689.284 -524.424 c 0,35,36
 286.954 -531.793 286.954 -531.793 128.809 -304.604 c 0,37,38
 4.7666 -124.978 4.7666 -124.978 71.1797 140.974 c 0,39,40
 87.958 208.159 87.958 208.159 125.35 318.242 c 0,41,42
 148.22 385.568 148.22 385.568 167.62 430.09 c 2,43,-1
 186.392 473.171 l 1,44,-1
 322.722 385.53 l 1,45,-1
 312.216 355.698 l 2,46,47
 209.05 62.7543 209.05 62.7543 271.57 -70.1416 c 0,48,49
 368.281 -275.663 368.281 -275.663 683.499 -270.4 c 0,50,51
 917.773 -266.418 917.773 -266.418 1033.38 -194.724 c 128,-1,52
 1148.98 -123.029 1148.98 -123.029 1162.93 14.3018 c 1,53,-1
 1019.39 458.622 l 1,54,-1
 1244.58 672.025 l 1,55,-1
 1258.13 599.889 l 2,0,1
1636.32 245.054 m 1,56,-1
 1751.69 245.054 l 2,57,58
 1944.92 245.054 1944.92 245.054 2094.17 294.651 c 0,59,60
 2146.8 311.548 2146.8 311.548 2169.75 347.94 c 128,-1,61
 2192.71 384.332 2192.71 384.332 2189.97 450.671 c 0,62,63
 2188.91 479.611 2188.91 479.611 2183.84 502.268 c 0,64,65
 2171.82 555.911 2171.82 555.911 2139.98 572.934 c 128,-1,66
 2108.13 589.956 2108.13 589.956 2039.68 574.498 c 0,67,68
 1959.71 556.439 1959.71 556.439 1828.24 436.247 c 0,69,70
 1720.23 337.491 1720.23 337.491 1636.32 245.054 c 1,56,-1
EndSplineSet
EndChar

StartChar: uniFEBB
Encoding: 65211 65211 195
Width: 1643
VWidth: 2424
GlyphClass: 2
Flags: W
AnchorPoint: "Anchor-10" 560.294 1188.56 basechar 0
AnchorPoint: "Anchor-7" 692.741 -283.71 basechar 0
LayerCount: 2
Fore
SplineSet
583.059 272.522 m 1,0,1
 775.688 543.702 775.688 543.702 869.372 635.607 c 1,2,3
 1070.33 829.153 1070.33 829.153 1256.31 816.192 c 0,4,5
 1392.64 807.01 1392.64 807.01 1468.21 720.528 c 128,-1,6
 1543.78 634.048 1543.78 634.048 1551.97 482.772 c 0,7,8
 1560.19 336.554 1560.19 336.554 1505.63 230.324 c 128,-1,9
 1451.06 124.095 1451.06 124.095 1335.34 65.8809 c 0,10,11
 1165.27 -19.6105 1165.27 -19.6105 976.063 -19.1201 c 2,12,-1
 687.807 -18.373 l 2,13,14
 452.948 -17.7643 452.948 -17.7643 333.179 129.777 c 1,15,16
 201.897 -19.12 201.897 -19.12 17.918 -19.1201 c 2,17,-1
 -20.8203 -19.1201 l 5,18,-1
 -20.8203 244.954 l 5,19,-1
 5.9668 244.954 l 2,20,21
 120.055 244.954 120.055 244.954 171.896 277.203 c 0,22,23
 213.703 303.632 213.703 303.632 221.017 358.428 c 1,24,-1
 233.566 478.494 l 2,25,26
 241.612 555.474 241.612 555.474 287.848 577.745 c 0,27,28
 302.244 584.68 302.244 584.68 319.35 585.267 c 0,29,30
 348.396 585.523 348.396 585.523 369.256 570.928 c 0,31,32
 401.307 548.501 401.307 548.501 405.77 498.091 c 1,33,-1
 413.928 428.655 l 2,34,35
 421.102 367.592 421.102 367.592 461.316 329.427 c 128,-1,36
 501.531 291.262 501.531 291.262 583.059 272.522 c 1,0,1
796.485 245.68 m 1,37,-1
 911.85 245.68 l 2,38,39
 1105.08 245.68 1105.08 245.68 1254.34 295.281 c 0,40,41
 1306.94 312.17 1306.94 312.17 1329.89 348.565 c 128,-1,42
 1352.85 384.962 1352.85 384.962 1350.12 451.29 c 0,43,44
 1349.06 480.238 1349.06 480.238 1343.99 502.895 c 0,45,46
 1331.97 556.537 1331.97 556.537 1300.13 573.56 c 128,-1,47
 1268.29 590.581 1268.29 590.581 1199.84 575.125 c 0,48,49
 1119.87 557.065 1119.87 557.065 988.411 436.875 c 0,50,51
 880.395 338.117 880.395 338.117 796.485 245.68 c 1,37,-1
EndSplineSet
EndChar

StartChar: uniFEBC
Encoding: 65212 65212 196
Width: 1772
VWidth: 2424
GlyphClass: 2
Flags: W
AnchorPoint: "Anchor-10" 590.337 1260.83 basechar 0
AnchorPoint: "Anchor-7" 686.055 -291.239 basechar 0
LayerCount: 2
Fore
SplineSet
797.485 245.68 m 1,0,-1
 912.85 245.68 l 2,1,2
 1106.08 245.68 1106.08 245.68 1255.34 295.281 c 0,3,4
 1307.94 312.17 1307.94 312.17 1330.89 348.565 c 128,-1,5
 1353.85 384.962 1353.85 384.962 1351.12 451.29 c 0,6,7
 1350.06 480.238 1350.06 480.238 1344.99 502.895 c 0,8,9
 1332.97 556.537 1332.97 556.537 1301.13 573.56 c 128,-1,10
 1269.29 590.581 1269.29 590.581 1200.84 575.125 c 0,11,12
 1120.87 557.065 1120.87 557.065 989.411 436.875 c 0,13,14
 881.395 338.117 881.395 338.117 797.485 245.68 c 1,0,-1
1542.84 324.04 m 1,15,16
 1615.37 244.61 1615.37 244.61 1737.05 244.611 c 2,17,-1
 1793.24 244.611 l 5,18,-1
 1793.24 -19.0117 l 1,19,-1
 1738.81 -19.1182 l 2,20,21
 1509.46 -19.5669 1509.46 -19.5669 1411.97 115.523 c 1,22,23
 1377.73 86.8223 1377.73 86.8223 1335.89 65.6553 c 0,24,25
 1166.27 -19.6105 1166.27 -19.6105 977.063 -19.1201 c 2,26,-1
 688.807 -18.373 l 2,27,28
 453.948 -17.7643 453.948 -17.7643 334.179 129.777 c 1,29,30
 202.897 -19.12 202.897 -19.12 18.918 -19.1201 c 2,31,-1
 -19.8203 -19.1201 l 1,32,-1
 -19.8203 243.954 l 1,33,-1
 6.9668 243.954 l 2,34,35
 119.449 243.954 119.449 243.954 172.896 277.203 c 0,36,37
 214.703 303.632 214.703 303.632 222.017 358.428 c 1,38,-1
 234.566 478.495 l 2,39,40
 242.507 554.47 242.507 554.47 286.968 577.143 c 0,41,42
 302.591 585.11 302.591 585.11 320.835 585.271 c 0,43,44
 350.305 585.532 350.305 585.532 371.533 570.007 c 0,45,46
 402.401 547.431 402.401 547.431 406.77 498.092 c 1,47,-1
 414.928 428.655 l 2,48,49
 422.102 367.591 422.102 367.591 462.316 329.427 c 128,-1,50
 502.532 291.262 502.532 291.262 584.059 272.522 c 1,51,52
 776.688 543.702 776.688 543.702 870.372 635.607 c 1,53,54
 1071.33 829.153 1071.33 829.153 1257.31 816.192 c 0,55,56
 1393.63 807.01 1393.63 807.01 1469.21 720.525 c 128,-1,57
 1544.78 634.041 1544.78 634.041 1552.97 482.802 c 0,58,59
 1557.93 396.284 1557.93 396.284 1542.84 324.04 c 1,15,16
EndSplineSet
EndChar

StartChar: uniFEC2
Encoding: 65218 65218 202
Width: 1457
VWidth: 2424
GlyphClass: 2
Flags: W
AnchorPoint: "Anchor-7" 622.346 -277.759 basechar 0
AnchorPoint: "Anchor-10" 336.968 1490.57 basechar 0
LayerCount: 2
Fore
SplineSet
509.986 245.68 m 1,0,-1
 625.351 245.68 l 2,1,2
 813.341 245.68 813.341 245.68 968.022 295.339 c 0,3,4
 1020.4 312.162 1020.4 312.162 1043.38 348.591 c 128,-1,5
 1066.35 385.02 1066.35 385.02 1063.62 451.316 c 0,6,7
 1062.56 480.239 1062.56 480.239 1057.49 502.895 c 0,8,9
 1045.48 556.537 1045.48 556.537 1013.63 573.559 c 128,-1,10
 981.791 590.58 981.791 590.58 913.348 575.125 c 0,11,12
 833.369 557.064 833.369 557.064 701.912 436.875 c 0,13,14
 593.894 338.115 593.894 338.115 509.986 245.68 c 1,0,-1
1121.33 111.589 m 1,15,16
 1088.39 85.7812 1088.39 85.7812 1048.76 65.8418 c 0,17,18
 880.144 -18.9188 880.144 -18.9188 690.238 -19.1191 c 2,19,-1
 401.37 -19.4238 l 1,20,-1
 218.212 -18.8516 l 2,21,22
 124.335 -18.5583 124.335 -18.5583 72.5322 37.3438 c 128,-1,23
 20.7314 93.2441 20.7314 93.2441 20.7314 191.2 c 2,24,-1
 20.7314 244.819 l 1,25,-1
 275.979 245.399 l 1,26,27
 299.125 276.277 299.125 276.277 315.095 296.725 c 1,28,29
 316.293 342.25 316.293 342.25 310.282 531.909 c 1,30,31
 293.285 1068.18 293.285 1068.18 293.284 1068.22 c 0,32,33
 283.06 1319.48 283.06 1319.48 264.517 1346.55 c 1,34,-1
 509.325 1475.38 l 1,35,-1
 508.678 553.772 l 1,36,37
 551.945 606.713 551.945 606.713 583.42 636.129 c 0,38,39
 789.528 828.755 789.528 828.755 969.804 816.192 c 0,40,41
 1106.13 807.019 1106.13 807.019 1181.71 720.535 c 128,-1,42
 1257.28 634.053 1257.28 634.053 1265.47 482.784 c 0,43,44
 1270.58 391.855 1270.58 391.855 1252.14 317.207 c 1,45,46
 1318.68 244.61 1318.68 244.61 1421.2 244.611 c 2,47,-1
 1477.39 244.611 l 5,48,-1
 1477.39 -19.0117 l 1,49,-1
 1426.96 -19.1182 l 2,50,51
 1213.44 -19.569 1213.44 -19.569 1121.33 111.589 c 1,15,16
EndSplineSet
EndChar

StartChar: uniFEC3
Encoding: 65219 65219 203
Width: 1142
VWidth: 2424
GlyphClass: 2
Flags: W
AnchorPoint: "Anchor-10" 135.393 1501.02 basechar 0
LayerCount: 2
Fore
SplineSet
59.4951 244.94 m 1,0,1
 83.4824 276.164 83.4824 276.164 99.6982 296.766 c 1,2,3
 100.896 342.252 100.896 342.252 94.8828 531.908 c 1,4,5
 90.6288 859.554 90.6288 859.554 77.8867 1068.22 c 0,6,7
 65.9962 1262.94 65.9962 1262.94 49.1143 1346.55 c 1,8,-1
 293.926 1475.38 l 1,9,-1
 293.276 553.772 l 1,10,11
 336.535 606.701 336.535 606.701 367.813 635.935 c 0,12,13
 568.443 829.151 568.443 829.151 754.387 816.193 c 0,14,15
 890.73 807.01 890.73 807.01 966.304 720.531 c 128,-1,16
 1041.88 634.052 1041.88 634.052 1050.07 482.752 c 0,17,18
 1058.3 336.375 1058.3 336.375 1003.56 230.045 c 128,-1,19
 948.824 123.715 948.824 123.715 832.836 65.5762 c 0,20,21
 665.074 -18.9184 665.074 -18.9184 474.835 -19.1191 c 2,22,-1
 186 -19.4238 l 1,23,-1
 -21.2139 -19.0781 l 5,24,-1
 -21.2139 244.939 l 5,25,-1
 59.4951 244.94 l 1,0,1
294.586 245.68 m 1,26,-1
 409.951 245.68 l 2,27,28
 597.939 245.68 597.939 245.68 752.622 295.34 c 0,29,30
 805.003 312.161 805.003 312.161 827.978 348.591 c 128,-1,31
 850.952 385.021 850.952 385.021 848.223 451.308 c 0,32,33
 847.166 480.243 847.166 480.243 842.093 502.895 c 0,34,35
 830.081 556.537 830.081 556.537 798.238 573.56 c 128,-1,36
 766.395 590.581 766.395 590.581 697.947 575.125 c 0,37,38
 617.968 557.064 617.968 557.064 486.511 436.875 c 0,39,40
 378.497 338.12 378.497 338.12 294.586 245.68 c 1,26,-1
EndSplineSet
EndChar

StartChar: uniFEC4
Encoding: 65220 65220 204
Width: 1259
VWidth: 2424
GlyphClass: 2
Flags: W
AnchorPoint: "Anchor-10" 142.786 1504.89 basechar 0
AnchorPoint: "Anchor-7" 521.949 -261.062 basechar 0
LayerCount: 2
Fore
SplineSet
295.586 245.68 m 1,0,-1
 410.951 245.68 l 2,1,2
 598.939 245.68 598.939 245.68 753.622 295.34 c 0,3,4
 806.003 312.161 806.003 312.161 828.978 348.591 c 128,-1,5
 851.952 385.021 851.952 385.021 849.223 451.308 c 0,6,7
 848.166 480.243 848.166 480.243 843.093 502.895 c 0,8,9
 831.081 556.537 831.081 556.537 799.238 573.56 c 128,-1,10
 767.395 590.581 767.395 590.581 698.947 575.125 c 0,11,12
 618.968 557.064 618.968 557.064 487.511 436.875 c 0,13,14
 379.497 338.12 379.497 338.12 295.586 245.68 c 1,0,-1
187 -19.4238 m 1,15,-1
 -21.2637 -19.0791 l 1,16,-1
 -21.2637 244.939 l 1,17,-1
 60.4951 244.94 l 1,18,19
 84.4824 276.164 84.4824 276.164 100.698 296.766 c 1,20,21
 101.896 342.252 101.896 342.252 95.8828 531.908 c 1,22,23
 83.8678 964.952 83.8678 964.952 78.8867 1068.22 c 0,24,25
 70.2881 1267.48 70.2881 1267.48 50.1143 1346.55 c 1,26,-1
 294.926 1475.38 l 1,27,-1
 294.276 553.772 l 1,28,29
 337.533 606.7 337.533 606.7 369.021 636.129 c 0,30,31
 575.13 828.755 575.13 828.755 755.384 816.193 c 0,32,33
 891.729 807.01 891.729 807.01 967.303 720.53 c 128,-1,34
 1042.88 634.051 1042.88 634.051 1051.07 482.759 c 0,35,36
 1055.91 396.635 1055.91 396.635 1040.02 323.835 c 1,37,38
 1111.65 244.61 1111.65 244.61 1224.65 244.611 c 2,39,-1
 1280.84 244.611 l 5,40,-1
 1280.84 -19.0117 l 5,41,-1
 1232.41 -19.1182 l 2,42,43
 1008.7 -19.6101 1008.7 -19.6101 913.595 116.955 c 1,44,45
 878.131 87.8789 878.131 87.8789 834.348 65.833 c 0,46,47
 665.545 -18.919 665.545 -18.919 475.835 -19.1191 c 2,48,-1
 187 -19.4238 l 1,15,-1
EndSplineSet
EndChar

StartChar: uniFECA
Encoding: 65226 65226 210
Width: 1217
VWidth: 2382
GlyphClass: 2
Flags: W
AnchorPoint: "Anchor-10" 444.38 1190.38 basechar 0
AnchorPoint: "Anchor-7" 385.13 -834.657 basechar 0
LayerCount: 2
Fore
SplineSet
843.415039062 696.149414062 m 4,0,1
 843.415039062 720.849609375 843.415039062 720.849609375 776.966796875 720.849609375 c 132,-1,2
 710.517578125 720.849609375 710.517578125 720.849609375 710.517578125 700.46875 c 132,-1,3
 710.517578125 680.087890625 710.517578125 680.087890625 779.719726562 647.924804688 c 5,4,5
 800.584960938 656.86328125 800.584960938 656.86328125 822 672 c 132,-1,6
 843.415039062 687.13671875 843.415039062 687.13671875 843.415039062 696.149414062 c 4,0,1
866.2109375 492.018554688 m 1,7,8
 887 364 887 364 956.389648438 304.65234375 c 128,-1,9
 1025.600006 245.342773438 1025.600006 245.342773438 1155.07617188 245.342773438 c 2,10,-1
 1247.1796875 245.342773438 l 1,11,-1
 1247.1796875 -19.6708984375 l 1,12,-1
 1162.20019531 -19.6708984375 l 2,13,14
 1025 -20 1025 -20 923.831054688 31.5927734375 c 0,15,16
 823 83 823 83 761.872070312 181.93359375 c 0,17,18
 701 281 701 281 680.8046875 424.869140625 c 1,19,20
 485 356 485 356 391.353515625 243.221679688 c 0,21,22
 298 130 298 130 298.211914062 -33.6533203125 c 0,23,24
 298 -189 298 -189 433.670898438 -295.711914062 c 0,25,26
 573 -405 573 -405 831.087890625 -405.165039062 c 0,27,28
 1029.44681079 -404.999627404 1029.44681079 -404.999627404 1095.93457031 -389.654296875 c 2,29,-1
 1143.34960938 -378.7109375 l 1,30,-1
 1144.90917969 -427.34765625 l 2,31,32
 1147 -481 1147 -481 1081.54980469 -531.580078125 c 0,33,34
 1037 -566 1037 -566 973.109375 -585.28125 c 0,35,36
 909 -604 909 -604 826.315429688 -608.932617188 c 0,37,38
 467 -630 467 -630 249.840820312 -465.879882812 c 0,39,40
 51 -315 51 -315 51.015625 -62.28515625 c 0,41,42
 51.0001373485 291.859354214 51.0001373485 291.859354214 410.494140625 514.177734375 c 0,43,44
 477 555 477 555 542.76953125 582.361328125 c 1,45,46
 439 652 439 652 445.63671875 740.756835938 c 0,47,48
 452 825 452 825 560.584960938 878.0546875 c 0,49,50
 588 891 588 891 620.538085938 900.352539062 c 0,51,52
 653 909 653 909 689.266601562 913.9921875 c 0,53,54
 725 919 725 919 767.10546875 919.549804688 c 0,55,56
 821 921 821 921 883.884765625 913.90234375 c 0,57,58
 1020.93682547 898.566556726 1020.93682547 898.566556726 1069.21386719 810.0078125 c 0,59,60
 1087 777 1087 777 1085.03027344 742.517578125 c 128,-1,61
 1083 708 1083 708 1068.22070312 676.7890625 c 0,62,63
 1054 645 1054 645 1023.20214844 613.0078125 c 0,64,65
 993 581 993 581 954.392578125 551.356445312 c 0,66,67
 916 522 916 522 866.2109375 492.018554688 c 1,7,8
EndSplineSet
EndChar

StartChar: uniFECB
Encoding: 65227 65227 211
Width: 1004
VWidth: 2420
GlyphClass: 2
Flags: W
AnchorPoint: "Anchor-10" 341.947 1347.41 basechar 0
AnchorPoint: "Anchor-7" 395.445 -309.498 basechar 0
LayerCount: 2
Fore
SplineSet
13.6846 245.018 m 2,0,1
 152.979 245.018 152.979 245.018 156.647 245.007 c 2,2,-1
 161.164 245.058 l 1,3,4
 28.1885 388.82 28.1885 388.82 58.3564 582.67 c 0,5,6
 78.5439 711.975 78.5439 711.975 160.397 790.153 c 128,-1,7
 242.251 868.332 242.251 868.332 378.006 889.43 c 0,8,9
 577.87 920.274 577.87 920.274 718.681 793.179 c 2,10,-1
 725.518 787.008 l 1,11,-1
 728.967 778.469 l 2,12,13
 732.853 768.849 732.853 768.849 744.635 639.571 c 2,14,-1
 751.323 566.189 l 1,15,-1
 686.143 598.558 l 2,16,17
 543.668 669.312 543.668 669.312 444.323 652.189 c 0,18,19
 370.387 639.594 370.387 639.594 326.307 598.203 c 128,-1,20
 282.227 556.812 282.227 556.812 276.26 502.323 c 0,21,22
 263.515 385.952 263.515 385.952 412.811 285.778 c 0,23,24
 443.595 265.122 443.595 265.122 623.639 299.278 c 6,25,-1
 921.978 355.875 l 1,26,-1
 879.092 113.869 l 1,27,-1
 857.021 106.13 l 2,28,29
 502.904 -18.0381 502.904 -18.0381 88.334 -19.0742 c 1,30,-1
 -21.332 -19.0498 l 1,31,-1
 -21.332 245.018 l 1,32,-1
 13.6846 245.018 l 2,0,1
EndSplineSet
EndChar

StartChar: uniFECC
Encoding: 65228 65228 212
Width: 1015
VWidth: 2422
GlyphClass: 2
Flags: W
AnchorPoint: "Anchor-10" 475.467 1184.67 basechar 0
AnchorPoint: "Anchor-7" 515.534 -227.729 basechar 0
LayerCount: 2
Fore
SplineSet
590.305664062 480.153320312 m 4,0,1
 590.305664062 504.853515625 590.305664062 504.853515625 523.857421875 504.853515625 c 132,-1,2
 457.409179688 504.853515625 457.409179688 504.853515625 457.409179688 484.47265625 c 132,-1,3
 457.409179688 464.091796875 457.409179688 464.091796875 526.611328125 431.928710938 c 5,4,5
 547.475585938 440.8671875 547.475585938 440.8671875 568.890625 456.00390625 c 132,-1,6
 590.305664062 471.140625 590.305664062 471.140625 590.305664062 480.153320312 c 4,0,1
676.812 300.895 m 1,7,8
 803.381 240.766 803.381 240.766 984.25 243.55 c 2,9,-1
 1035.69 244.342 l 1,10,-1
 1035.69 -19.9668 l 1,11,-1
 958.395 -19.9668 l 2,12,13
 709.596 -19.9668 709.596 -19.9668 518.441 148.646 c 1,14,15
 326.305 -20.5226 326.305 -20.5226 66.1943 -20.5225 c 2,16,-1
 -21.4756 -20.5225 l 1,17,-1
 -21.4756 243.552 l 1,18,-1
 39.9951 243.552 l 2,19,20
 262.833 243.553 262.833 243.553 371.55 296.594 c 1,21,22
 311.293 330.33 311.293 330.33 262.401 372.131 c 0,23,24
 188.229 435.521 188.229 435.521 194.101 516.223 c 0,25,26
 200.06 600.798 200.06 600.798 309.087 653.578 c 0,27,28
 388.674 692.414 388.674 692.414 515.681 695.058 c 0,29,30
 576.962 696.304 576.962 696.304 632.221 690.422 c 0,31,32
 773.511 674.998 773.511 674.998 817.687 585.501 c 0,33,34
 842.685 534.43 842.685 534.43 829.335 477.588 c 0,35,36
 808.47 389.22 808.47 389.22 676.812 300.895 c 1,7,8
EndSplineSet
EndChar

StartChar: uniFEDA
Encoding: 65242 65242 226
Width: 1959
VWidth: 2399
GlyphClass: 2
Flags: W
AnchorPoint: "Anchor-10" 485.022 1539.9 basechar 0
AnchorPoint: "Anchor-7" 617.24 -281.654 basechar 0
LayerCount: 2
Fore
SplineSet
1496.32 450.739 m 1,0,-1
 1498.21 508.806 l 2,1,2
 1502.19 630.989 1502.19 630.989 1484.35 1057.78 c 1,3,4
 1477.53 1294.47 1477.53 1294.47 1455.55 1336.26 c 1,5,-1
 1704.36 1464.09 l 1,6,-1
 1704.36 470.601 l 2,7,8
 1704.36 350.105 1704.36 350.105 1751.36 297.222 c 128,-1,9
 1798.36 244.337 1798.36 244.337 1900.89 244.337 c 2,10,-1
 1980.41 244.337 l 5,11,-1
 1980.41 -19.627 l 5,12,-1
 1922.54 -19.627 l 2,13,14
 1664.91 -19.6272 1664.91 -19.6272 1570.67 144.613 c 1,15,16
 1562.51 138.465 1562.51 138.465 1553.17 131.846 c 0,17,18
 1397.96 21.8555 1397.96 21.8555 1230.61 4.51172 c 0,19,20
 1013.82 -17.9609 1013.82 -17.9609 969.169 -19.5664 c 0,21,22
 469.773 -37.5273 469.773 -37.5273 265.953 68.9795 c 0,23,24
 44.666 184.611 44.666 184.611 51.877 520.239 c 0,25,26
 54.879 661.115 54.879 661.115 112.618 774.507 c 2,27,-1
 123.775 796.418 l 1,28,-1
 258.207 796.082 l 1,29,-1
 247.71 747.721 l 2,30,31
 232.159 676.074 232.159 676.074 225.77 618.554 c 0,32,33
 220.594 571.972 220.594 571.972 222.529 517.603 c 0,34,35
 226.182 414.917 226.182 414.917 310.916 350.331 c 128,-1,36
 395.649 285.744 395.649 285.744 576.479 260.04 c 0,37,38
 677.004 245.753 677.004 245.753 1005.48 245.131 c 0,39,40
 1111.08 245 1111.08 245 1190.97 258.277 c 0,41,42
 1482.35 308.528 1482.35 308.528 1496.32 450.739 c 1,0,-1
1086.01 1373.02 m 1,43,-1
 1086.01 1239.38 l 1,44,-1
 1049.05 1236.57 l 2,45,46
 977.922 1231.14 977.922 1231.14 940.867 1217.48 c 0,47,48
 908.05 1205.17 908.05 1205.17 887.638 1191.68 c 128,-1,49
 867.227 1178.18 867.227 1178.18 862.289 1171.01 c 128,-1,50
 857.352 1163.84 857.352 1163.84 857.352 1159.32 c 0,51,52
 857.352 1132.13 857.352 1132.13 870.389 1115.37 c 0,53,54
 872.538 1113.31 872.538 1113.31 881.32 1109.52 c 128,-1,55
 890.102 1105.72 890.102 1105.72 910.063 1100.29 c 128,-1,56
 930.025 1094.86 930.025 1094.86 953.948 1091.34 c 0,57,58
 1020.42 1081.56 1020.42 1081.56 1056.78 1048.37 c 0,59,60
 1096.33 1012.24 1096.33 1012.24 1096.33 950.905 c 0,61,62
 1096.33 887.744 1096.33 887.744 1065.69 837.437 c 128,-1,63
 1035.06 787.129 1035.06 787.129 977.749 754.721 c 0,64,65
 892.562 706.545 892.562 706.545 777.642 705.479 c 0,66,67
 708.717 705.479 708.717 705.479 647.729 715.479 c 2,68,-1
 614.2 720.977 l 1,69,-1
 614.2 861.578 l 1,70,-1
 659.363 855.698 l 2,71,72
 723.117 847.399 723.117 847.399 766.739 847.399 c 0,73,74
 842.794 847.399 842.794 847.399 889.901 865.945 c 0,75,76
 959.57 892.701 959.57 892.701 959.57 927.087 c 0,77,78
 959.57 942.854 959.57 942.854 944.199 955.01 c 128,-1,79
 928.828 967.165 928.828 967.165 882.644 974.69 c 0,80,81
 807.065 986.206 807.065 986.206 763.951 1030.3 c 0,82,83
 718.477 1076.81 718.477 1076.81 720.195 1156.14 c 0,84,85
 721.482 1208.16 721.482 1208.16 747.873 1248.8 c 128,-1,86
 774.265 1289.44 774.265 1289.44 821.747 1313.5 c 0,87,88
 917.225 1361.8 917.225 1361.8 1043.36 1370.18 c 2,89,-1
 1086.01 1373.02 l 1,43,-1
EndSplineSet
EndChar

StartChar: uniFEDB
Encoding: 65243 65243 227
Width: 911
VWidth: 2400
GlyphClass: 2
Flags: W
AnchorPoint: "Anchor-10" 220.818 1450.02 basechar 0
AnchorPoint: "Anchor-7" 339.171 -282.73 basechar 0
LayerCount: 2
Fore
SplineSet
-21 243.972 m 1,0,-1
 80.4307 244.011 l 2,1,2
 128.611 244.029 128.611 244.029 171.405 245.584 c 0,3,4
 503.621 257.651 503.621 257.651 500.387 345.487 c 0,5,6
 497.746 419.566 497.746 419.566 338.681 552.769 c 0,7,8
 247.101 629.456 247.101 629.456 15.5732 752.624 c 2,9,-1
 -3.63574 762.843 l 1,10,-1
 -5.49316 784.521 l 2,11,12
 -12.5521 866.909 -12.5521 866.909 0.657227 929.905 c 0,13,14
 25.6322 1049.02 25.6322 1049.02 120.816 1098.89 c 2,15,-1
 906.259 1510.42 l 1,16,17
 886.63 1361 886.63 1361 815.692 1200.24 c 5,18,-1
 232.716 907.461 l 1,19,20
 486.571 749.603 486.571 749.603 579.688 632.31 c 0,21,22
 686.36 497.939 686.36 497.939 686.36 374.937 c 0,23,24
 686.36 157.482 686.36 157.482 482.79 36.5479 c 0,25,26
 389.136 -19.0908 389.136 -19.0908 126.442 -19.0908 c 2,27,-1
 -21 -19.0908 l 1,28,-1
 -21 243.972 l 1,0,-1
EndSplineSet
EndChar

StartChar: uniFEDC
Encoding: 65244 65244 228
Width: 1114
VWidth: 2400
GlyphClass: 2
Flags: W
AnchorPoint: "Anchor-10" 195.618 1402.57 basechar 0
AnchorPoint: "Anchor-7" 318.604 -272.174 basechar 0
LayerCount: 2
Fore
SplineSet
623.807 605.656 m 0,0,1
 1008.67 243.749 1008.67 243.749 1089.42 244.258 c 2,2,-1
 1134.81 244.544 l 1,3,-1
 1134.81 -19.6074 l 1,4,-1
 1069.86 -19.6074 l 2,5,6
 981.215 -19.6074 981.215 -19.6074 881.161 50.6807 c 128,-1,7
 781.107 120.97 781.107 120.97 662.556 258.35 c 1,8,9
 611.427 117.629 611.427 117.629 483.386 36.9072 c 1,10,11
 433.145 6.48828 433.145 6.48828 346.625 -6.30078 c 128,-1,12
 260.106 -19.0908 260.106 -19.0908 126.441 -19.0908 c 2,13,-1
 -21 -19.0908 l 1,14,-1
 -21 243.972 l 1,15,-1
 80.4307 244.011 l 2,16,17
 128.612 244.029 128.612 244.029 171.405 245.584 c 0,18,19
 503.621 257.651 503.621 257.651 500.387 345.487 c 0,20,21
 497.746 419.566 497.746 419.566 338.681 552.768 c 4,22,23
 247.1 629.457 247.1 629.457 15.5732 752.624 c 2,24,-1
 -3.63574 762.843 l 1,25,-1
 -5.49316 784.521 l 2,26,27
 -12.6101 867.586 -12.6101 867.586 0.876953 930.947 c 0,28,29
 26.057 1049.24 26.057 1049.24 120.815 1098.89 c 2,30,-1
 906.258 1510.42 l 1,31,-1
 888.87 1427.44 l 2,32,33
 859.019 1284.97 859.019 1284.97 821.653 1211.9 c 2,34,-1
 815.692 1200.24 l 1,35,-1
 230.741 906.469 l 1,36,37
 472.832 747.626 472.832 747.626 623.807 605.656 c 0,0,1
EndSplineSet
EndChar

StartChar: uniFEDE
Encoding: 65246 65246 230
Width: 1594
VWidth: 2399
GlyphClass: 2
Flags: W
AnchorPoint: "Anchor-10" 627.65 1263.83 basechar 0
AnchorPoint: "Anchor-7" 234.999 -562.393 basechar 0
LayerCount: 2
Fore
SplineSet
1165.23 191.067 m 1,0,1
 1164.07 423.213 1164.07 423.213 1139.85 1066.91 c 1,2,3
 1125.38 1264.01 1125.38 1264.01 1096.66 1331.71 c 1,4,-1
 1359.87 1474.31 l 1,5,-1
 1359.85 464.508 l 2,6,7
 1359.85 344.311 1359.85 344.311 1415.48 295.608 c 0,8,9
 1473.33 244.964 1473.33 244.964 1574.12 244.964 c 2,10,-1
 1616 244.964 l 5,11,-1
 1616 -19 l 5,12,-1
 1589.87 -19 l 2,13,14
 1465.79 -19 1465.79 -19 1351.87 43.0811 c 1,15,16
 1323.9 -227.296 1323.9 -227.296 1155.79 -370.087 c 128,-1,17
 987.689 -512.879 987.689 -512.879 690.567 -522.604 c 0,18,19
 291.671 -535.71 291.671 -535.71 129.539 -302.797 c 0,20,21
 5.49805 -123.171 5.49805 -123.171 71.9131 142.778 c 0,22,23
 88.7031 210.015 88.7031 210.015 126.081 320.045 c 0,24,25
 149.064 387.708 149.064 387.708 169.735 432.748 c 2,26,-1
 187.854 472.228 l 1,27,-1
 324.187 395.49 l 1,28,-1
 312.821 363.715 l 2,29,30
 207.522 69.3395 207.522 69.3395 272.303 -68.335 c 0,31,32
 369.018 -273.866 369.018 -273.866 684.232 -268.594 c 0,33,34
 920.135 -264.598 920.135 -264.598 1035.64 -189.493 c 128,-1,35
 1151.14 -114.389 1151.14 -114.389 1163.24 30.5117 c 1,36,37
 1164.77 64.9414 1164.77 64.9414 1165.78 91.5938 c 0,38,39
 1167.09 126.921 1167.09 126.921 1165.23 191.067 c 1,0,1
EndSplineSet
EndChar

StartChar: uniFEDF
Encoding: 65247 65247 231
Width: 592
VWidth: 2399
GlyphClass: 2
Flags: W
AnchorPoint: "Anchor-10" 317.632 1489.49 basechar 0
AnchorPoint: "Anchor-7" 243.061 -243.816 basechar 0
LayerCount: 2
Fore
SplineSet
213.033 1347.89 m 1,0,-1
 461.855 1475.72 l 1,1,-1
 461.855 504.899 l 2,2,3
 461.855 269.823 461.855 269.823 388.122 158.647 c 0,4,5
 270.213 -19.1377 270.213 -19.1377 54.9297 -19.1377 c 2,6,-1
 -21.3477 -19.1377 l 5,7,-1
 -21.3477 244.938 l 5,8,-1
 0.55957 244.938 l 2,9,10
 163.443 244.934 163.443 244.934 222.747 319.59 c 0,11,12
 238.504 339.427 238.504 339.427 248.037 390.367 c 128,-1,13
 257.569 441.301 257.569 441.301 255.701 518.058 c 2,14,-1
 255.6 522.207 l 1,15,-1
 256.337 526.203 l 1,16,17
 262.77 569.318 262.77 569.318 241.843 1069.41 c 1,18,19
 230.754 1296.08 230.754 1296.08 213.033 1347.89 c 1,0,-1
EndSplineSet
EndChar

StartChar: uniFEE0
Encoding: 65248 65248 232
Width: 659
VWidth: 2399
GlyphClass: 2
Flags: W
AnchorPoint: "Anchor-10" 286.727 1485.07 basechar 0
AnchorPoint: "Anchor-7" 248.885 -299.433 basechar 0
LayerCount: 2
Fore
SplineSet
180.624 1348.27 m 1,0,-1
 422.047 1475.57 l 1,1,-1
 422.047 464.44 l 2,2,3
 422.047 330.629 422.047 330.629 492.891 281.406 c 0,4,5
 546.767 243.972 546.767 243.972 639.413 243.972 c 2,6,-1
 680.726 243.972 l 1,7,-1
 680.726 -19.1143 l 1,8,-1
 631.717 -18.041 l 2,9,10
 430.364 -13.6316 430.364 -13.6316 312.661 101.788 c 1,11,12
 197.094 -16.6446 197.094 -16.6446 36.7373 -19.0449 c 2,13,-1
 -21.5928 -19.918 l 1,14,-1
 -21.5928 244.071 l 5,15,-1
 -0.34375 243.938 l 2,16,17
 123.529 243.163 123.529 243.163 183.918 319.554 c 0,18,19
 199.712 339.436 199.712 339.436 209.242 390.354 c 128,-1,20
 218.753 441.172 218.753 441.172 216.9 518.058 c 2,21,-1
 216.8 522.207 l 1,22,-1
 217.359 525.241 l 1,23,24
 217.476 526.876 217.476 526.876 203.027 1069.78 c 0,25,26
 196.195 1326.52 196.195 1326.52 180.624 1348.27 c 1,0,-1
EndSplineSet
EndChar

StartChar: uniFEE2
Encoding: 65250 65250 234
Width: 1190
VWidth: 2447
GlyphClass: 2
Flags: W
AnchorPoint: "Anchor-10" 485.792 1133.3 basechar 0
AnchorPoint: "Anchor-7" 235.014 -753.194 basechar 0
LayerCount: 2
Fore
SplineSet
518.023 359.373 m 1,0,1
 527.318 199.334 527.318 199.334 588.142 129.866 c 0,2,3
 634.917 76.6467 634.917 76.6467 705.098 87.0244 c 0,4,5
 797.059 101.475 797.059 101.475 793.018 196.367 c 0,6,7
 789.76 326.254 789.76 326.254 642.48 354.498 c 0,8,9
 581.076 367.073 581.076 367.073 518.023 359.373 c 1,0,1
1013.32 305.213 m 1,10,11
 1057.2 245.286 1057.2 245.286 1171.02 244.543 c 2,12,-1
 1210.23 244.287 l 1,13,-1
 1210.23 -19.4443 l 1,14,-1
 1155.25 -19.4443 l 2,15,16
 1043.57 -19.4443 1043.57 -19.4443 972.387 34.9121 c 1,17,18
 948.646 -36.5566 948.646 -36.5566 889.763 -86.6055 c 0,19,20
 822.477 -143.795 822.477 -143.795 690.561 -150.183 c 0,21,22
 518.271 -158.521 518.271 -158.521 423.263 -29.377 c 0,23,24
 344.459 77.7393 344.459 77.7393 323.976 279.609 c 1,25,26
 294.709 256.887 294.709 256.887 277.667 214.901 c 0,27,28
 237.735 117.273 237.735 117.273 273.411 -77.5938 c 2,29,-1
 362.118 -562.116 l 1,30,-1
 117.563 -718.123 l 1,31,-1
 51.332 -18.1826 l 2,32,33
 30.0792 206.419 30.0792 206.419 98.2305 345.11 c 128,-1,34
 166.382 483.801 166.382 483.801 325.671 521.56 c 1,35,36
 346.124 614.181 346.124 614.181 386.463 663.877 c 2,37,-1
 412.597 696.073 l 1,38,-1
 443.831 668.796 l 2,39,40
 497.869 621.604 497.869 621.604 710.281 570.082 c 0,41,42
 828.406 541.43 828.406 541.43 905.493 474.531 c 128,-1,43
 982.581 407.633 982.581 407.633 1013.32 305.213 c 1,10,11
EndSplineSet
EndChar

StartChar: uniFEE3
Encoding: 65251 65251 235
Width: 949
VWidth: 2427
GlyphClass: 2
Flags: W
AnchorPoint: "Anchor-10" 396.95 1081.46 basechar 0
AnchorPoint: "Anchor-7" 356.884 -231.882 basechar 0
LayerCount: 2
Fore
SplineSet
762.169 21.0273 m 0,0,1
 653.863 -91.0732 653.863 -91.0732 462.768 -46.9756 c 0,2,3
 353.277 -21.709 353.277 -21.709 235.878 94.3926 c 1,4,5
 124.158 -19.0685 124.158 -19.0685 9.99316 -19.0684 c 2,6,-1
 -20.7119 -19.0684 l 5,7,-1
 -20.7119 244.006 l 5,8,-1
 29.9619 244.006 l 2,9,10
 98.044 244.006 98.044 244.006 161.987 351.456 c 0,11,12
 266.613 528.378 266.613 528.378 370.526 615.045 c 128,-1,13
 474.439 701.711 474.439 701.711 582.971 688.904 c 0,14,15
 709.196 674.042 709.196 674.042 778.191 578.886 c 128,-1,16
 847.187 483.73 847.187 483.73 857.451 321.875 c 0,17,18
 869.323 131.936 869.323 131.936 762.169 21.0273 c 0,0,1
457.021 201.571 m 2,19,20
 546.03 157.76 546.03 157.76 600.829 190.711 c 0,21,22
 652.848 221.328 652.848 221.328 635.455 347.745 c 0,23,24
 622.872 436.334 622.872 436.334 585.747 452.834 c 0,25,26
 536.137 475.512 536.137 475.512 450.175 385.385 c 0,27,28
 393.073 326.182 393.073 326.182 354.287 267.336 c 1,29,30
 399.407 225.143 399.407 225.143 454.444 202.729 c 2,31,-1
 455.753 202.195 l 1,32,-1
 457.021 201.571 l 2,19,20
EndSplineSet
EndChar

StartChar: uniFEE4
Encoding: 65252 65252 236
Width: 1028
VWidth: 2427
GlyphClass: 2
Flags: W
AnchorPoint: "Anchor-10" 447.635 1043.62 basechar 0
AnchorPoint: "Anchor-7" 407.567 -241.898 basechar 0
LayerCount: 2
Fore
SplineSet
462.021 197.869 m 0,0,1
 548.851 155.508 548.851 155.508 601.992 189.033 c 1,2,3
 651.994 222.132 651.994 222.132 634.408 347.723 c 0,4,5
 623.366 426.583 623.366 426.583 579.978 454.418 c 0,6,7
 573.433 458.656 573.433 458.656 563.588 458.645 c 128,-1,8
 553.744 458.632 553.744 458.632 538.256 453.207 c 128,-1,9
 522.767 447.782 522.767 447.782 499.622 430.391 c 128,-1,10
 476.478 412.998 476.478 412.998 449.1 385.036 c 0,11,12
 390.95 325.645 390.95 325.645 354.732 269.23 c 1,13,14
 404.951 225.954 404.951 225.954 462.021 197.869 c 0,0,1
794.943 64.0615 m 1,15,16
 778.038 38.999 778.038 38.999 761.819 22.8105 c 0,17,18
 648.53 -90.502 648.53 -90.502 462.628 -46.9434 c 0,19,20
 352.996 -21.4102 352.996 -21.4102 235.88 94.3955 c 1,21,22
 124.158 -19.0685 124.158 -19.0685 9.99316 -19.0684 c 2,23,-1
 -20.7119 -19.0684 l 1,24,-1
 -20.7119 244.006 l 1,25,-1
 29.9619 244.006 l 2,26,27
 98.045 244.006 98.045 244.006 161.976 351.437 c 0,28,29
 265.931 527.748 265.931 527.748 369.64 614.193 c 128,-1,30
 473.348 700.639 473.348 700.639 581.845 687.863 c 0,31,32
 708.021 673.619 708.021 673.619 777.079 578.671 c 128,-1,33
 846.137 483.723 846.137 483.723 856.401 321.883 c 0,34,35
 856.912 313.567 856.912 313.567 857.204 305.435 c 0,36,37
 858.204 277.508 858.204 277.508 888.066 260.898 c 128,-1,38
 917.929 244.288 917.929 244.288 997.222 244.288 c 2,39,-1
 1049.64 244.288 l 5,40,-1
 1049.64 -19.6748 l 5,41,-1
 1019.65 -19.6748 l 2,42,43
 879.668 -19.6748 879.668 -19.6748 794.943 64.0615 c 1,15,16
EndSplineSet
EndChar

StartChar: uniFEEA
Encoding: 65258 65258 242
Width: 1073
VWidth: 2416
GlyphClass: 2
Flags: W
AnchorPoint: "Anchor-10" 394.296 1266.56 basechar 0
AnchorPoint: "Anchor-7" 379.749 -217.976 basechar 0
LayerCount: 2
Fore
SplineSet
646.132 474.597 m 1,0,-1
 618.396 691.945 l 1,1,2
 286.046 650.24 286.046 650.24 293.382 505.969 c 0,3,4
 293.623 500.722 293.623 500.722 294.586 496.241 c 0,5,6
 297.195 484.106 297.195 484.106 309.243 474.318 c 128,-1,7
 321.291 464.531 321.291 464.531 348.047 457.432 c 128,-1,8
 374.803 450.333 374.803 450.333 413.217 448.751 c 128,-1,9
 451.632 447.168 451.632 447.168 511.839 453.416 c 128,-1,10
 572.046 459.663 572.046 459.663 646.132 474.597 c 1,0,-1
677.063 243.231 m 1,11,12
 149.717 157.03 149.717 157.03 63.9375 407.329 c 0,13,14
 54.4053 434.867 54.4053 434.867 51.2764 469.172 c 0,15,16
 40.2295 630.26 40.2295 630.26 179.448 734.156 c 128,-1,17
 318.666 838.053 318.666 838.053 590.024 890.27 c 1,18,19
 586.583 927.407 586.583 927.407 577.249 995.433 c 2,20,-1
 572.616 1029.2 l 1,21,-1
 774.927 1090.81 l 1,22,-1
 846.268 497.959 l 2,23,24
 857.849 401.723 857.849 401.723 879.93 345.596 c 0,25,26
 902.282 288.779 902.282 288.779 927.59 272.667 c 0,27,28
 971.448 244.746 971.448 244.746 1067.93 244.539 c 2,29,-1
 1094.77 244.481 l 1,30,-1
 1094.77 -21.0352 l 1,31,-1
 1057.82 -19.4795 l 6,32,33
 904.209 -13.012 904.209 -13.012 805.812 53.458 c 0,34,35
 708.029 119.513 708.029 119.513 677.063 243.231 c 1,11,12
EndSplineSet
EndChar

StartChar: uniFEEB
Encoding: 65259 65259 243
Width: 1201
VWidth: 2420
GlyphClass: 2
Flags: W
AnchorPoint: "Anchor-10" 460.893 1334.42 basechar 0
AnchorPoint: "Anchor-7" 390.716 -263.949 basechar 0
LayerCount: 2
Fore
SplineSet
727.632 488.744 m 1,0,1
 727.558 421.649 727.558 421.649 699.348 363.567 c 0,2,3
 670.867 304.93 670.867 304.93 585.885 243.669 c 1,4,5
 659.155 209.364 659.155 209.364 692.832 201.891 c 0,6,7
 877.394 160.934 877.394 160.934 895.231 256.449 c 0,8,9
 911.8 342.003 911.8 342.003 727.632 488.744 c 1,0,1
326.449 786.44 m 1,10,-1
 295.632 802.744 l 1,11,-1
 457.632 1026.74 l 1,12,-1
 758.455 757.17 l 2,13,14
 944.145 590.769 944.145 590.769 1028.24 477.956 c 0,15,16
 1115.87 360.393 1115.87 360.393 1109.65 269.757 c 0,17,18
 1086.97 -42.165 1086.97 -42.165 738.873 -32.2416 c 4,19,20
 545.299 -26.7239 545.299 -26.7239 355.118 57.2247 c 1,21,22
 180.353 -19.7051 180.353 -19.7051 15.501 -19.7051 c 2,23,-1
 -21.4697 -19.7051 l 1,24,-1
 -21.4697 244.369 l 1,25,-1
 20.6904 244.369 l 2,26,27
 20.9642 244.369 20.9642 244.369 98.808 243.763 c 1,28,29
 70.7003 313.958 70.7003 313.958 74.1488 393.927 c 0,30,31
 80.2469 530.49 80.2469 530.49 142.512 626.566 c 0,32,33
 220.028 747.216 220.028 747.216 326.449 786.44 c 1,10,-1
536.903 427.706 m 1,34,35
 593.288 537.734 593.288 537.734 524.522 599.141 c 0,36,37
 467.845 649.751 467.845 649.751 364.789 571.574 c 0,38,39
 301.634 522.061 301.634 522.061 284.632 433.744 c 0,40,41
 259.738 304.521 259.738 304.521 346.716 275.987 c 1,42,43
 487.954 336.851 487.954 336.851 536.903 427.706 c 1,34,35
EndSplineSet
EndChar

StartChar: uniFEEC
Encoding: 65260 65260 244
Width: 886
VWidth: 2439
GlyphClass: 2
Flags: W
AnchorPoint: "Anchor-7" 224.456 -759.016 basechar 0
AnchorPoint: "Anchor-10" 204.142 1181.66 basechar 0
LayerCount: 2
Fore
SplineSet
293.374 246.624 m 1,0,-1
 303.124 247.135 l 2,1,2
 381.566 251.252 381.566 251.252 416.956 308.326 c 0,3,4
 473.396 399.35 473.396 399.35 473.396 524.034 c 0,5,6
 473.396 550.776 473.396 550.776 470.908 573.753 c 128,-1,7
 468.42 596.729 468.42 596.729 465.872 607.362 c 128,-1,8
 463.323 617.996 463.323 617.996 461.523 620.716 c 0,9,10
 443.336 648.203 443.336 648.203 415.304 648.203 c 0,11,12
 345.45 648.203 345.45 648.203 313.696 499.045 c 0,13,14
 282.82 350.882 282.82 350.882 293.374 246.624 c 1,0,-1
159.594 668.282 m 0,15,16
 202.564 767.609 202.564 767.609 267.422 821.11 c 128,-1,17
 332.278 874.611 332.278 874.611 416.776 873.905 c 0,18,19
 540.009 872.665 540.009 872.665 594.793 790.068 c 0,20,21
 656.235 694.417 656.235 694.417 656.235 502.647 c 4,22,23
 656.235 217.723 656.235 217.723 490.049 70.2197 c 4,24,25
 403.762 -6.08301 403.762 -6.08301 313.322 -17.3262 c 1,26,27
 313.33 -154.575 313.33 -154.575 377.046 -295.224 c 1,28,29
 444.172 -45.9217 444.172 -45.9217 635.046 128.776 c 0,30,31
 753.046 236.777 753.046 236.777 876.916 244.109 c 1,32,-1
 907.467 244.829 l 1,33,-1
 907.467 -18.9131 l 1,34,-1
 874.623 -20.1768 l 2,35,36
 602.587 -30.6434 602.587 -30.6434 528.012 -522.633 c 2,37,-1
 525.127 -541.666 l 1,38,-1
 410.096 -608.029 l 1,39,-1
 391.125 -599.008 l 2,40,41
 149.508 -484.115 149.508 -484.115 111.157 -19.1348 c 1,42,-1
 -21.375 -19.1348 l 1,43,-1
 -21.375 244.923 l 1,44,-1
 105.526 244.989 l 1,45,46
 100.688 532.121 100.688 532.121 159.594 668.282 c 0,15,16
EndSplineSet
EndChar

StartChar: uniFEEE
Encoding: 65262 65262 246
Width: 818
VWidth: 2088
GlyphClass: 2
Flags: W
AnchorPoint: "Anchor-10" 401.457 1151.98 basechar 0
AnchorPoint: "Anchor-7" 412.058 -700.046 basechar 0
LayerCount: 2
Fore
SplineSet
516.677 -24.5615 m 1,0,1
 465.055 -27.1611 465.055 -27.1611 395.915 -23.4912 c 0,2,3
 234.914 -13.8154 234.914 -13.8154 178.087 73.1006 c 1,4,5
 119.406 165.212 119.406 165.212 133.363 296.616 c 0,6,7
 155.588 505.835 155.588 505.835 265.387 606.265 c 0,8,9
 345.275 679.814 345.275 679.814 447.528 671.146 c 0,10,11
 533.08 664.136 533.08 664.136 606.129 588.252 c 0,12,13
 717.602 472.852 717.602 472.852 733.893 290.139 c 0,14,15
 735.996 266.56 735.996 266.56 737.868 244.6 c 1,16,-1
 839.627 245.004 l 5,17,-1
 839.627 -19.0596 l 5,18,-1
 730.712 -19.0107 l 1,19,20
 668.243 -321.269 668.243 -321.269 485.803 -451.488 c 2,21,-1
 481.401 -454.63 l 1,22,23
 262.192 -505.017 262.192 -505.017 -35.2422 -428.28 c 1,24,25
 394.757 -263.28 394.757 -263.28 516.677 -24.5615 c 1,0,1
409.284 405.863 m 0,26,27
 365.319 404.967 365.319 404.967 341.439 379.707 c 128,-1,28
 317.559 354.446 317.559 354.446 308.747 292.575 c 0,29,30
 303.881 258.047 303.881 258.047 310.92 247.871 c 128,-1,31
 317.96 237.695 317.96 237.695 344.001 235.15 c 0,32,33
 457.153 224.091 457.153 224.091 547.551 234.288 c 1,34,35
 544.432 285.765 544.432 285.765 528.093 323.895 c 0,36,37
 509.01 368.438 509.01 368.438 480.889 387.539 c 128,-1,38
 452.768 406.642 452.768 406.642 409.284 405.863 c 0,26,27
EndSplineSet
EndChar

StartChar: uniFEF0
Encoding: 65264 65264 248
Width: 1395
VWidth: 2456
GlyphClass: 2
Flags: W
AnchorPoint: "Anchor-10" 627.807 544.875 basechar 0
AnchorPoint: "Anchor-7" 216.775 -792.266 basechar 0
LayerCount: 2
Fore
SplineSet
1003.04 216.113 m 0,0,1
 1076.67 245.043 1076.67 245.043 1284.83 245.033 c 2,2,-1
 1394.18 245.028 l 1,3,-1
 1415.86 244.383 l 5,4,-1
 1415.86 -18.8027 l 5,5,-1
 1337.86 -19.6631 l 2,6,7
 1329.64 -19.7537 1329.64 -19.7537 1159 31.0859 c 0,8,9
 1048.3 63.6879 1048.3 63.6879 1031 -0 c 0,10,11
 1020.01 -40.4342 1020.01 -40.4342 1155 -41.9131 c 0,12,13
 1321.19 -43.7109 1321.19 -43.7109 1350 -137.913 c 0,14,15
 1370.29 -204.211 1370.29 -204.211 1341 -275.913 c 0,16,17
 1279.27 -425.271 1279.27 -425.271 1105.68 -505.267 c 0,18,19
 894.853 -602.42 894.853 -602.42 586.818 -585.021 c 0,20,21
 361.442 -572.29 361.442 -572.29 224.9 -485.519 c 128,-1,22
 88.3584 -398.748 88.3584 -398.748 52.1855 -237.31 c 0,23,24
 25.2285 -115.253 25.2285 -115.253 67.8975 61.5889 c 0,25,26
 83.9229 127.893 83.9229 127.893 142.38 267.273 c 0,27,28
 175.673 347.013 175.673 347.013 189.343 372.636 c 2,29,-1
 209.723 410.836 l 1,30,-1
 359.451 315.031 l 1,31,-1
 345.906 283.784 l 2,32,33
 334.729 258 334.729 258 295.715 163.256 c 0,34,35
 258.062 71.8174 258.062 71.8174 247.661 3.44922 c 0,36,37
 231.242 -114.659 231.242 -114.659 299.476 -201.224 c 0,38,39
 387.528 -313.933 387.528 -313.933 663.293 -326.974 c 0,40,41
 889.504 -337.177 889.504 -337.177 1035.81 -289.727 c 0,42,43
 1113.58 -263.958 1113.58 -263.958 1147.78 -244.388 c 0,44,45
 1225.5 -198.914 1225.5 -198.914 1113.76 -191.513 c 1,46,47
 860 -197.914 860 -197.914 832.018 -38.7012 c 0,48,49
 818.651 39.2355 818.651 39.2355 871.037 116.673 c 0,50,51
 915.369 182.203 915.369 182.203 1003.04 216.113 c 0,0,1
EndSplineSet
EndChar

StartChar: uniFEFB
Encoding: 65275 65275 259
Width: 1186
VWidth: 2399
GlyphClass: 3
Flags: W
AnchorPoint: "Anchor-9" 901.221 1481.16 baselig 0
AnchorPoint: "Anchor-6" 875.547 -206.035 baselig 0
AnchorPoint: "Anchor-6" 238.784 -235.825 baselig 1
AnchorPoint: "Anchor-9" 150.203 1397.8 baselig 1
LayerCount: 2
Fore
SplineSet
787.483 1291.84 m 1,0,-1
 1055.61 1475.49 l 1,1,-1
 1055.61 543.749 l 2,2,3
 1055.61 332.381 1055.61 332.381 946.052 181.419 c 0,4,5
 800.342 -19.3641 800.342 -19.3641 528.948 -19.1377 c 2,6,-1
 355.68 -18.9932 l 1,7,8
 200.401 47.1761 200.401 47.1761 162.003 245.341 c 5,9,-1
 210.28 238.682 l 2,10,11
 378.546 215.472 378.546 215.472 516.604 228.563 c 1,12,13
 411.732 698.014 411.732 698.014 45.6133 1066.82 c 2,14,-1
 20.1973 1092.42 l 1,15,-1
 182.989 1291.28 l 1,16,-1
 213.943 1253.5 l 2,17,18
 607.497 773.121 607.497 773.121 705.68 272.143 c 1,19,20
 761.625 297.387 761.625 297.387 798.542 347.994 c 0,21,22
 850.849 419.152 850.849 419.152 848.402 523.267 c 2,23,-1
 848.274 528.71 l 1,24,-1
 849.157 532.207 l 1,25,26
 849.59 558.366 849.59 558.366 834.533 951.918 c 0,27,28
 824.986 1205.67 824.986 1205.67 787.483 1291.84 c 1,0,-1
EndSplineSet
LCarets2: 1 0
Ligature2: "'rlig' Required Ligatures in Arabic lookup 16 subtable" uniFEDF uniFE8E
EndChar

StartChar: uniFEFC
Encoding: 65276 65276 260
Width: 1330
VWidth: 2399
GlyphClass: 3
Flags: W
AnchorPoint: "Anchor-9" 914.679 1502.47 baselig 0
AnchorPoint: "Anchor-6" 951.041 -226.036 baselig 0
AnchorPoint: "Anchor-6" 275.018 -254.082 baselig 1
AnchorPoint: "Anchor-9" 157.807 1416.73 baselig 1
LayerCount: 2
Fore
SplineSet
517.7 223.625 m 1,0,1
 409.964 709.829 409.964 709.829 45.6123 1076.82 c 2,2,-1
 20.1963 1102.42 l 1,3,-1
 183.097 1301.42 l 1,4,-1
 214.029 1263.39 l 2,5,6
 600.551 788.172 600.551 788.172 699.686 292.956 c 1,7,8
 812.912 368.884 812.912 368.884 865.209 570.897 c 0,9,10
 883.324 640.871 883.324 640.871 869.523 932.188 c 0,11,12
 857.317 1189.87 857.317 1189.87 835.052 1289.43 c 1,13,-1
 1095.19 1475.53 l 1,14,-1
 1095.19 721.8 l 2,15,16
 1095.19 492.668 1095.19 492.668 1138.31 367.063 c 0,17,18
 1160.08 303.665 1160.08 303.665 1204.29 274.006 c 128,-1,19
 1248.51 244.347 1248.51 244.347 1323.71 244.347 c 2,20,-1
 1350.22 244.347 l 1,21,-1
 1350.22 -19.0186 l 1,22,-1
 1294.16 -17.998 l 2,23,24
 1170.16 -15.7407 1170.16 -15.7407 1086.26 59.8105 c 0,25,26
 1000.14 137.364 1000.14 137.364 953.396 280.769 c 1,27,28
 920.493 212.354 920.493 212.354 878.667 166.168 c 0,29,30
 708.64 -21.8215 708.64 -21.8215 427.675 -19.6162 c 6,31,-1
 343.946 -18.959 l 1,32,33
 193.015 22.7324 193.015 22.7324 145.13 237.984 c 1,34,-1
 192.163 231.459 l 2,35,36
 402.973 202.213 402.973 202.213 517.7 223.625 c 1,0,1
EndSplineSet
LCarets2: 1 0
Ligature2: "'rlig' Required Ligatures in Arabic lookup 16 subtable" uniFEE0 uniFE8E
EndChar

StartChar: arabic_dot
Encoding: 65536 -1 261
Width: 157
VWidth: 2150
GlyphClass: 2
Flags: W
LayerCount: 2
Fore
SplineSet
102.437 189.037 m 2,0,-1
 185.196 106.279 l 2,1,2
 195.859 95.6159 195.859 95.6159 195.958 86.7133 c 128,-1,3
 196.059 77.7341 196.059 77.7341 185.704 67.4794 c 2,4,-1
 99.0803 -19.1449 l 2,5,6
 87.6449 -30.1377 87.6449 -30.1377 78.308 -30.2329 c 0,7,8
 68.4584 -30.3305 68.4584 -30.3305 57.3383 -19.1133 c 2,9,-1
 -28.698 66.923 l 2,10,11
 -39.2179 76.8551 -39.2179 76.8551 -38.5786 87.1691 c 0,12,13
 -37.967 97.0594 -37.967 97.0594 -25.5965 109.428 c 2,14,-1
 54.7291 189.754 l 2,15,16
 67.1026 202.239 67.1026 202.239 78.4663 202.005 c 128,-1,17
 89.7032 201.773 89.7032 201.773 102.437 189.037 c 2,0,-1
EndSplineSet
EndChar

StartChar: arabic_2dots
Encoding: 65537 -1 262
Width: 474
VWidth: 2150
GlyphClass: 2
Flags: W
LayerCount: 2
Fore
SplineSet
385.221 188.704 m 2,0,-1
 467.647 106.278 l 2,1,2
 478.309 95.616 478.309 95.616 478.408 86.7155 c 128,-1,3
 478.511 77.7353 478.511 77.7353 468.157 67.4809 c 2,4,-1
 382.071 -18.603 l 2,5,6
 370.54 -30.1347 370.54 -30.1347 360.759 -30.2319 c 128,-1,7
 350.908 -30.3312 350.908 -30.3312 339.789 -19.114 c 2,8,-1
 253.752 66.9232 l 2,9,10
 243.233 76.8559 243.233 76.8559 243.871 87.1691 c 0,11,12
 244.483 97.0584 244.483 97.0584 256.854 109.428 c 2,13,-1
 337.179 189.754 l 2,14,15
 349.553 202.24 349.553 202.24 360.917 202.004 c 128,-1,16
 372.155 201.772 372.155 201.772 385.221 188.704 c 2,0,-1
136.371 188.703 m 2,17,-1
 218.797 106.278 l 2,18,19
 229.46 95.615 229.46 95.615 229.559 86.7107 c 128,-1,20
 229.656 77.832 229.656 77.832 219.321 67.4964 c 2,21,-1
 133.222 -18.6034 l 2,22,23
 121.69 -30.1347 121.69 -30.1347 111.909 -30.2319 c 128,-1,24
 102.156 -30.3297 102.156 -30.3297 90.9533 -19.1286 c 2,25,-1
 4.34289 67.4828 l 2,26,27
 -5.55411 77.8796 -5.55411 77.8796 -4.97895 87.1705 c 0,28,29
 -4.41803 96.2324 -4.41803 96.2324 7.15116 108.577 c 2,30,-1
 88.3286 189.754 l 2,31,32
 100.814 202.239 100.814 202.239 112.066 202.004 c 128,-1,33
 123.302 201.772 123.302 201.772 136.371 188.703 c 2,17,-1
EndSplineSet
EndChar

StartChar: arabic_3dots
Encoding: 65538 -1 263
Width: 477
VWidth: 2150
GlyphClass: 2
Flags: W
LayerCount: 2
Fore
SplineSet
261.523 378.895 m 2,0,-1
 344.708 295.709 l 2,1,2
 355.371 285.046 355.371 285.046 355.47 276.142 c 128,-1,3
 355.569 267.163 355.569 267.163 345.218 256.912 c 2,4,-1
 259.133 170.827 l 2,5,6
 247.603 159.296 247.603 159.296 237.821 159.198 c 128,-1,7
 227.969 159.1 227.969 159.1 216.851 170.317 c 2,8,-1
 130.813 256.353 l 2,9,10
 120.293 266.288 120.293 266.288 120.933 276.602 c 0,11,12
 121.546 286.491 121.546 286.491 133.915 298.859 c 2,13,-1
 214.24 379.182 l 2,14,15
 226.779 391.724 226.779 391.724 237.475 391.805 c 128,-1,16
 248.176 391.887 248.176 391.887 261.523 378.895 c 2,0,-1
389.422 176.103 m 2,17,-1
 471.846 93.6788 l 2,18,19
 482.511 83.0151 482.511 83.0151 482.608 74.1111 c 128,-1,20
 482.705 65.2312 482.705 65.2312 472.371 54.8967 c 2,21,-1
 386.271 -31.2026 l 2,22,23
 374.74 -42.7344 374.74 -42.7344 364.958 -42.8315 c 128,-1,24
 355.206 -42.9294 355.206 -42.9294 344.004 -31.7283 c 2,25,-1
 257.904 54.3713 l 2,26,27
 247.467 64.8084 247.467 64.8084 248.07 74.5712 c 128,-1,28
 248.683 84.458 248.683 84.458 261.054 96.8278 c 2,29,-1
 341.378 177.153 l 2,30,31
 353.863 189.637 353.863 189.637 365.115 189.405 c 128,-1,32
 376.353 189.173 376.353 189.173 389.422 176.103 c 2,17,-1
136.371 176.103 m 2,33,-1
 218.798 93.6779 l 2,34,35
 229.46 83.0141 229.46 83.0141 229.559 74.109 c 128,-1,36
 229.654 65.2305 229.654 65.2305 219.321 54.8968 c 2,37,-1
 133.222 -31.203 l 2,38,39
 121.69 -42.7343 121.69 -42.7343 111.909 -42.8315 c 128,-1,40
 102.156 -42.9293 102.156 -42.9293 90.9533 -31.7283 c 2,41,-1
 4.34267 54.8824 l 2,42,43
 -5.55413 65.2805 -5.55413 65.2805 -4.97888 74.5709 c 0,44,45
 -4.36583 84.4589 -4.36583 84.4589 8.00313 96.8279 c 2,46,-1
 88.3282 177.153 l 2,47,48
 100.811 189.637 100.811 189.637 112.065 189.405 c 128,-1,49
 123.302 189.173 123.302 189.173 136.371 176.103 c 2,33,-1
EndSplineSet
EndChar

StartChar: arabic_3dots_a
Encoding: 65539 -1 264
Width: 476
VWidth: 2150
GlyphClass: 2
Flags: W
LayerCount: 2
Fore
SplineSet
258.972 -2.17871 m 6,0,-1
 341.759 -84.9658 l 6,1,2
 352.423 -95.6299 352.423 -95.6299 352.521 -104.532 c 132,-1,3
 352.621 -113.511 352.621 -113.511 342.266 -123.768 c 6,4,-1
 256.185 -209.848 l 6,5,6
 244.654 -221.38 244.654 -221.38 234.87 -221.478 c 132,-1,7
 225.02 -221.575 225.02 -221.575 213.899 -210.357 c 6,8,-1
 127.864 -124.321 l 6,9,10
 117.345 -114.389 117.345 -114.389 117.985 -104.074 c 4,11,12
 118.597 -94.1865 118.597 -94.1865 130.965 -81.8154 c 6,13,-1
 211.941 -0.841797 l 6,14,15
 224.223 10.3838 224.223 10.3838 235.368 10.8018 c 5,16,17
 246.877 9.59961 246.877 9.59961 258.972 -2.17871 c 6,0,-1
388.657 196.818 m 2,18,-1
 470.798 114.678 l 2,19,20
 481.46 104.017 481.46 104.017 481.559 95.108 c 128,-1,21
 481.655 86.2312 481.655 86.2312 471.322 75.8968 c 2,22,-1
 385.222 -10.204 l 2,23,24
 373.692 -21.7336 373.692 -21.7336 363.909 -21.8325 c 128,-1,25
 354.155 -21.9303 354.155 -21.9303 342.952 -10.7282 c 2,26,-1
 256.8 75.4262 l 2,27,28
 246.416 85.8102 246.416 85.8102 247.021 95.5695 c 128,-1,29
 247.633 105.458 247.633 105.458 260.003 117.828 c 2,30,-1
 340.345 198.17 l 2,31,32
 352.81 210.637 352.81 210.637 364.065 210.405 c 128,-1,33
 375.303 210.173 375.303 210.173 388.657 196.818 c 2,18,-1
136.372 197.103 m 2,34,-1
 218.798 114.678 l 2,35,36
 229.46 104.016 229.46 104.016 229.559 95.108 c 128,-1,37
 229.654 86.2308 229.654 86.2308 219.322 75.8968 c 2,38,-1
 133.222 -10.204 l 2,39,40
 121.692 -21.7336 121.692 -21.7336 111.909 -21.8325 c 0,41,42
 102.631 -21.9255 102.631 -21.9255 91.5473 -11.3223 c 2,43,-1
 4.8005 75.4246 l 2,44,45
 -5.58229 85.806 -5.58229 85.806 -4.97898 95.5694 c 128,-1,46
 -4.36741 105.458 -4.36741 105.458 8.00312 117.828 c 2,47,-1
 88.3449 198.17 l 2,48,49
 100.812 210.637 100.812 210.637 112.065 210.405 c 128,-1,50
 123.302 210.173 123.302 210.173 136.372 197.103 c 2,34,-1
EndSplineSet
EndChar

StartChar: uni066E.fina
Encoding: 65540 -1 265
Width: 1872
VWidth: 2424
GlyphClass: 2
Flags: W
AnchorPoint: "Anchor-10" 728.312 1177.65 basechar 0
AnchorPoint: "Anchor-7" 728.312 -201.908 basechar 0
LayerCount: 2
Fore
SplineSet
885.443 -18.998 m 0,0,1
 419 -23 419 -23 266.695 58.125 c 0,2,3
 44 175 44 175 51.877 520.239 c 0,4,5
 54.9911647565 660.60177467 54.9911647565 660.60177467 112.22 773.727 c 2,6,-1
 130.345 809.555 l 1,7,-1
 249.181 748.872 l 1,8,-1
 242.517 718.685 l 2,9,10
 231 666 231 666 225.771 618.576 c 0,11,12
 221 572 221 572 222.529 517.612 c 0,13,14
 226 411 226 411 305.912 346.136 c 0,15,16
 385 281 385 281 554.605 256.342 c 0,17,18
 639 244 639 244 1005.42 244.081 c 0,19,20
 1226 244 1226 244 1366.2 323.227 c 0,21,22
 1439 364 1439 364 1491.44 420.984 c 0,23,24
 1513 444 1513 444 1530.88 474.124 c 0,25,26
 1566.06225942 534.10614593 1566.06225942 534.10614593 1587.03 614.895 c 2,27,-1
 1596.84 652.693 l 1,28,-1
 1721.06 623.633 l 1,29,-1
 1716.33 587.711 l 2,30,31
 1710 540 1710 540 1710.94 461.724 c 0,32,33
 1713 356 1713 356 1745.69505859 308.245636719 c 0,34,35
 1785.65538808 251.489456827 1785.65538808 251.489456827 1855.08007812 245.572265625 c 2,36,-1
 1867.33984375 244.52734375 l 1,37,-1
 1891.54980469 246.091796875 l 1,38,-1
 1891.54980469 -19.224609375 l 1,39,-1
 1870.83007812 -19.4384765625 l 1,40,41
 1735 -15 1735 -15 1666.93523438 44.6781601563 c 0,42,43
 1588.45552357 111.332161111 1588.45552357 111.332161111 1560.9 229.361 c 1,44,45
 1501 161 1501 161 1448.24 125.183 c 0,46,47
 1239 -16 1239 -16 885.443 -18.998 c 0,0,1
EndSplineSet
EndChar

StartChar: uni06A1.fina
Encoding: 65543 -1 268
Width: 1981
VWidth: 2421
GlyphClass: 2
Flags: W
AnchorPoint: "Anchor-10" 528.682 1292.21 basechar 0
AnchorPoint: "Anchor-7" 647.773 -255.979 basechar 0
LayerCount: 2
Fore
SplineSet
1374.47 532.904 m 0,0,1
 1374.47 483.725 1374.47 483.725 1414.61 444.682 c 0,2,3
 1455.15 405.232 1455.15 405.232 1512.89 405.232 c 128,-1,4
 1570.62 405.232 1570.62 405.232 1611.18 444.693 c 0,5,6
 1651.31 483.712 1651.31 483.712 1651.31 532.9 c 0,7,8
 1651.31 583.33 1651.31 583.33 1609.77 628.545 c 0,9,10
 1569.36 672.542 1569.36 672.542 1512.89 672.542 c 128,-1,11
 1456.42 672.542 1456.42 672.542 1416 628.543 c 0,12,13
 1374.47 583.337 1374.47 583.337 1374.47 532.904 c 0,0,1
1311.51 268.571 m 1,14,15
 1220.85 335.987 1220.85 335.987 1189.54 453.598 c 0,16,17
 1164.14 549.082 1164.14 549.082 1188.12 647.736 c 0,18,19
 1229.4 814.693 1229.4 814.693 1373.74 882.385 c 0,20,21
 1436.49 911.813 1436.49 911.813 1516.48 912.36 c 0,22,23
 1607.34 912.937 1607.34 912.937 1677.04 873.556 c 0,24,25
 1791.75 808.952 1791.75 808.952 1829.54 675.088 c 0,26,27
 1859.04 568.575 1859.04 568.575 1827.54 449.484 c 0,28,29
 1800.31 346.523 1800.31 346.523 1699.78 268.812 c 1,30,31
 1804.04 242.257 1804.04 242.257 1949.45 244.528 c 2,32,-1
 2001.05 245.334 l 5,33,-1
 2001.05 -19 l 5,34,-1
 1945.4 -19 l 2,35,36
 1673.81 -19 1673.81 -19 1498.94 92.9092 c 1,37,38
 1352.93 4.29085 1352.93 4.29085 1158.5 -7.91992 c 2,39,-1
 971.979 -19.6338 l 1,40,41
 452.386 -40.0898 452.386 -40.0898 266.767 58.0869 c 0,42,43
 44.4463 175.194 44.4463 175.194 51.877 520.239 c 0,44,45
 54.8634 660.347 54.8634 660.347 112.216 773.717 c 2,46,-1
 130.433 809.727 l 1,47,-1
 247.93 748.978 l 1,48,-1
 241.974 719.404 l 2,49,50
 232.689 673.299 232.689 673.299 225.701 617.988 c 0,51,52
 220.44 576.34 220.44 576.34 222.528 517.627 c 0,53,54
 226.419 411.157 226.419 411.157 305.909 346.135 c 128,-1,55
 385.399 281.113 385.399 281.113 554.605 256.342 c 0,56,57
 639.046 243.98 639.046 243.98 1005.24 244.081 c 1,58,-1
 1049.67 244.528 l 2,59,60
 1209.83 246.139 1209.83 246.139 1311.51 268.571 c 1,14,15
EndSplineSet
EndChar

StartChar: uni06A1.init
Encoding: 65544 -1 269
Width: 700
VWidth: 2441
GlyphClass: 2
Flags: W
AnchorPoint: "Anchor-10" 454.484 1352.5 basechar 0
AnchorPoint: "Anchor-7" 354.312 -199.581 basechar 0
LayerCount: 2
Fore
SplineSet
322.396 788.039 m 0,0,1
 280.744 786.979 280.744 786.979 256.736 761.459 c 128,-1,2
 232.728 735.939 232.728 735.939 221.703 673.566 c 0,3,4
 214.868 633.609 214.868 633.609 223.33 616.175 c 128,-1,5
 231.792 598.739 231.792 598.739 256.92 590.363 c 0,6,7
 344.946 561.021 344.946 561.021 460.842 593.546 c 1,8,9
 457.72 651.324 457.72 651.324 436.279 698.466 c 0,10,11
 414.44 747.234 414.44 747.234 387.023 767.727 c 128,-1,12
 359.605 788.219 359.605 788.219 322.396 788.039 c 0,0,1
648.348 365.526 m 0,13,14
 618.763 158.332 618.763 158.332 419.899 45.5811 c 0,15,16
 305.957 -19.0205 305.957 -19.0205 150.154 -19.0205 c 2,17,-1
 -51.6113 -19.0205 l 1,18,-1
 -51.6113 244.055 l 1,19,-1
 57.666 244.055 l 2,20,21
 253.914 244.055 253.914 244.055 288.986 254.657 c 0,22,23
 383.63 284.001 383.63 284.001 424.605 333.686 c 1,24,25
 366.771 328.256 366.771 328.256 301.176 334.518 c 0,26,27
 158.862 349.851 158.862 349.851 91.1436 455.406 c 0,28,29
 32.499 546.962 32.499 546.962 46.4922 678.676 c 0,30,31
 66.6152 880.299 66.6152 880.299 177.808 987.76 c 0,32,33
 246.106 1053.77 246.106 1053.77 362.917 1043.86 c 0,34,35
 449.948 1036.03 449.948 1036.03 530.707 945.271 c 0,36,37
 625.502 840.461 625.502 840.461 646.93 655.457 c 0,38,39
 666.154 489.467 666.154 489.467 648.348 365.526 c 0,13,14
EndSplineSet
EndChar

StartChar: uni06A1.medi
Encoding: 65545 -1 270
Width: 1014
VWidth: 2421
GlyphClass: 2
Flags: W
AnchorPoint: "Anchor-10" 534.592 1114.83 basechar 0
AnchorPoint: "Anchor-7" 534.592 -195.164 basechar 0
LayerCount: 2
Fore
SplineSet
363.662 534.431 m 0,0,1
 363.662 485.24 363.662 485.24 403.784 446.216 c 0,2,3
 444.349 406.759 444.349 406.759 502.084 406.759 c 128,-1,4
 559.817 406.759 559.817 406.759 600.384 446.215 c 0,5,6
 640.504 485.237 640.504 485.237 640.504 534.426 c 0,7,8
 640.504 584.859 640.504 584.859 598.978 630.069 c 0,9,10
 558.561 674.067 558.561 674.067 502.084 674.067 c 128,-1,11
 445.606 674.067 445.606 674.067 405.188 630.067 c 0,12,13
 363.662 584.868 363.662 584.868 363.662 534.431 c 0,0,1
666.194 875.108 m 0,14,15
 780.944 810.471 780.944 810.471 818.746 676.621 c 0,16,17
 848.249 570.093 848.249 570.093 816.74 451.007 c 0,18,19
 789.494 348.033 789.494 348.033 689.294 270.58 c 1,20,21
 800.899 242.686 800.899 242.686 979.215 244.27 c 2,22,-1
 1065.63 245.037 l 1,23,-1
 1065.63 -19.1582 l 1,24,-1
 892.701 -19.8047 l 6,25,26
 665.373 -20.6545 665.373 -20.6545 494.014 92.4775 c 1,27,28
 314.228 -19.8047 314.228 -19.8047 102.196 -19.8047 c 2,29,-1
 -51.4834 -19.8047 l 1,30,-1
 -51.4834 244.271 l 1,31,-1
 45.1279 244.271 l 2,32,33
 198.464 244.271 198.464 244.271 301.946 269.18 c 1,34,35
 210.188 336.956 210.188 336.956 178.743 455.119 c 0,36,37
 153.33 550.619 153.33 550.619 177.321 649.251 c 0,38,39
 218.589 816.208 218.589 816.208 362.934 883.907 c 0,40,41
 425.688 913.34 425.688 913.34 505.673 913.887 c 0,42,43
 596.534 914.463 596.534 914.463 666.194 875.108 c 0,14,15
EndSplineSet
EndChar

StartChar: uni066F.fina
Encoding: 65546 -1 271
Width: 1452
VWidth: 2441
GlyphClass: 2
Flags: W
AnchorPoint: "Anchor-10" 343.685 1016.41 basechar 0
AnchorPoint: "Anchor-7" 436.781 -785.338 basechar 0
LayerCount: 2
Fore
SplineSet
1051.26 407.729 m 0,0,1
 1007.2 406.831 1007.2 406.831 983.327 381.579 c 128,-1,2
 959.45 356.327 959.45 356.327 950.6 294.451 c 0,3,4
 945.78 259.866 945.78 259.866 951.985 250.377 c 128,-1,5
 958.191 240.888 958.191 240.888 980.949 238.647 c 0,6,7
 1095.51 226.25 1095.51 226.25 1189.39 236.379 c 1,8,9
 1186.29 287.625 1186.29 287.625 1169.94 325.756 c 0,10,11
 1150.86 370.31 1150.86 370.31 1122.78 389.407 c 128,-1,12
 1094.71 408.505 1094.71 408.505 1051.26 407.729 c 0,0,1
1370.37 244.554 m 1,13,-1
 1502.78 244.96 l 1,14,-1
 1502.78 -19.0908 l 1,15,-1
 1371.75 -19.0908 l 1,16,17
 1369.65 -60.2646 1369.65 -60.2646 1361.55 -99.793 c 0,18,19
 1314.34 -330.137 1314.34 -330.137 1136.58 -449.241 c 128,-1,20
 958.812 -568.347 958.812 -568.347 662.719 -574.365 c 0,21,22
 286.058 -581.654 286.058 -581.654 129.231 -363.2 c 0,23,24
 5.28027 -191.708 5.28027 -191.708 70.9248 112.14 c 0,25,26
 86.9873 186.009 86.9873 186.009 123.354 290.856 c 0,27,28
 161.427 401.095 161.427 401.095 168.894 420.913 c 2,29,-1
 185.687 465.483 l 1,30,-1
 333.416 378.13 l 1,31,-1
 320.864 346.375 l 2,32,33
 202.607 47.1826 202.607 47.1826 272.576 -130.436 c 0,34,35
 345.796 -316.322 345.796 -316.322 645.799 -320.04 c 0,36,37
 886.636 -323.024 886.636 -323.024 1015.2 -247.227 c 128,-1,38
 1143.77 -171.43 1143.77 -171.43 1174.38 -17.9863 c 1,39,40
 1126.41 -18.3984 1126.41 -18.3984 1039.39 -17.4844 c 0,41,42
 877.961 -14.6328 877.961 -14.6328 819.903 75.0156 c 0,43,44
 761.207 166.653 761.207 166.653 775.213 298.479 c 0,45,46
 797.44 507.693 797.44 507.693 907.232 608.121 c 0,47,48
 987.131 681.676 987.131 681.676 1089.36 673.01 c 0,49,50
 1173.41 666.118 1173.41 666.118 1247.74 590.352 c 0,51,52
 1347.17 489.006 1347.17 489.006 1370.37 244.554 c 1,13,-1
EndSplineSet
EndChar

StartChar: arabic_ring
Encoding: 65549 -1 274
Width: 459
VWidth: 2150
GlyphClass: 2
Flags: W
LayerCount: 2
Fore
SplineSet
333.8 231 m 0,0,1
 333.8 273.828 333.8 273.828 303.827 303.802 c 0,2,3
 273.849 334.85 273.849 334.85 229.95 334.85 c 128,-1,4
 186.072 334.85 186.072 334.85 156.086 304.864 c 128,-1,5
 126.1 274.879 126.1 274.879 126.1 231 c 0,6,7
 126.1 186.072 126.1 186.072 156.098 156.073 c 0,8,9
 186.093 127.15 186.093 127.15 229.95 127.15 c 128,-1,10
 273.829 127.15 273.829 127.15 303.814 157.136 c 128,-1,11
 333.8 187.122 333.8 187.122 333.8 231 c 0,0,1
457.9 231 m 128,-1,13
 457.9 135.22 457.9 135.22 392.336 68.6144 c 0,14,15
 325.723 2 325.723 2 229.95 2 c 128,-1,16
 134.188 2 134.188 2 68.6144 68.6144 c 0,17,18
 2.00001 135.229 2.00001 135.229 2 231 c 128,-1,19
 2 326.773 2 326.773 68.6144 393.386 c 0,20,21
 134.177 458.95 134.177 458.95 229.95 458.95 c 128,-1,22
 325.73 458.95 325.73 458.95 392.336 393.386 c 1,23,12
 457.9 326.78 457.9 326.78 457.9 231 c 128,-1,13
EndSplineSet
EndChar

StartChar: arabic_gaf_bar
Encoding: 65550 -1 275
Width: 707
VWidth: 2150
GlyphClass: 2
Flags: W
LayerCount: 2
Fore
SplineSet
650.409 1731.59 m 1,0,-1
 3.50066 1391.15 l 1,1,-1
 50.9861 1531.39 l 1,2,-1
 695.829 1867.04 l 1,3,-1
 650.409 1731.59 l 1,0,-1
EndSplineSet
EndChar

StartChar: uni066E.init.math
Encoding: 65560 -1 285
Width: 954
VWidth: 2426
GlyphClass: 2
Flags: W
LayerCount: 2
Fore
SplineSet
646.586 79.6045 m 0,0,1
 554.775 -29.1641 554.775 -29.1641 360.16 -29.1641 c 2,2,-1
 -62.7148 -29.1641 l 1,3,-1
 -62.7148 225.896 l 1,4,-1
 294.66 225.896 l 2,5,6
 405.121 225.896 405.121 225.896 452.257 273.033 c 0,7,8
 505.35 326.128 505.35 326.128 505.35 444.921 c 2,9,-1
 505.35 721.314 l 1,10,-1
 760.408 721.314 l 1,11,-1
 760.408 444.921 l 2,12,13
 760.408 216.385 760.408 216.385 646.586 79.6045 c 0,0,1
EndSplineSet
EndChar

StartChar: guillemotleft
Encoding: 171 171 286
Width: 1097
VWidth: 2190
Flags: W
LayerCount: 2
Fore
SplineSet
546.878 1055.65 m 5,0,-1
 487.814 951.795 l 6,1,2
 427.749 846.186 427.749 846.186 397.95 743.856 c 4,3,4
 367.508 639.296 367.508 639.296 367.508 532.048 c 132,-1,5
 367.508 424.744 367.508 424.744 397.982 319.376 c 4,6,7
 427.626 216.88 427.626 216.88 487.484 111.842 c 6,8,-1
 547.1 7.43652 l 5,9,-1
 320.026 7.43652 l 5,10,-1
 299.553 39.6875 l 6,11,12
 220.698 163.894 220.698 163.894 181.067 284.646 c 4,13,14
 140.308 408.867 140.308 408.867 140.308 532.048 c 4,15,16
 140.308 654.809 140.308 654.809 181.095 778.526 c 4,17,18
 220.718 898.704 220.718 898.704 299.491 1023.29 c 6,19,-1
 319.954 1055.65 l 5,20,-1
 546.878 1055.65 l 5,0,-1
941.678 1055.65 m 5,21,-1
 882.614 951.795 l 6,22,23
 822.549 846.185 822.549 846.185 792.75 743.856 c 4,24,25
 762.308 639.296 762.308 639.296 762.308 532.048 c 132,-1,26
 762.308 424.74 762.308 424.74 792.781 319.376 c 4,27,28
 822.424 216.884 822.424 216.884 882.264 111.877 c 6,29,-1
 941.896 7.43652 l 5,30,-1
 714.827 7.43652 l 5,31,-1
 694.354 39.6865 l 6,32,33
 615.521 163.847 615.521 163.847 575.867 284.646 c 4,34,35
 535.107 408.871 535.107 408.871 535.107 532.048 c 4,36,37
 535.107 654.812 535.107 654.812 575.895 778.525 c 4,38,39
 615.502 898.661 615.502 898.661 694.292 1023.29 c 6,40,-1
 714.753 1055.65 l 5,41,-1
 941.678 1055.65 l 5,21,-1
EndSplineSet
EndChar

StartChar: guillemotright
Encoding: 187 187 287
Width: 1098
VWidth: 2190
Flags: W
LayerCount: 2
Fore
SplineSet
505.872 1055.65 m 5,0,-1
 732.796 1055.65 l 5,1,-1
 753.261 1023.29 l 6,2,3
 832.057 898.658 832.057 898.658 871.655 778.525 c 4,4,5
 912.442 654.814 912.442 654.814 912.442 532.048 c 4,6,7
 912.442 408.867 912.442 408.867 871.681 284.641 c 4,8,9
 832.136 164.175 832.136 164.175 753.396 40.0029 c 6,10,-1
 732.724 7.43652 l 5,11,-1
 505.65 7.43652 l 5,12,-1
 565.013 111.398 l 6,13,14
 624.99 216.439 624.99 216.439 654.768 319.376 c 4,15,16
 685.242 424.744 685.242 424.744 685.242 532.048 c 132,-1,17
 685.242 639.296 685.242 639.296 654.8 743.856 c 4,18,19
 625.002 846.204 625.002 846.204 564.936 951.795 c 6,20,-1
 505.872 1055.65 l 5,0,-1
111.072 1055.65 m 5,21,-1
 337.997 1055.65 l 5,22,-1
 358.459 1023.29 l 6,23,24
 437.237 898.695 437.237 898.695 476.855 778.525 c 4,25,26
 517.643 654.812 517.643 654.812 517.643 532.048 c 4,27,28
 517.643 408.87 517.643 408.87 476.881 284.641 c 4,29,30
 437.396 164.356 437.396 164.356 358.684 40.1377 c 6,31,-1
 337.923 7.43652 l 5,32,-1
 110.853 7.43652 l 5,33,-1
 170.213 111.398 l 6,34,35
 230.193 216.446 230.193 216.446 259.969 319.376 c 4,36,37
 290.442 424.74 290.442 424.74 290.442 532.048 c 132,-1,38
 290.442 639.296 290.442 639.296 260 743.856 c 4,39,40
 230.209 846.185 230.209 846.185 170.136 951.796 c 6,41,-1
 111.072 1055.65 l 5,21,-1
EndSplineSet
EndChar

StartChar: NameMe.337
Encoding: 65562 -1 294
Width: 645
VWidth: 2290
Flags: W
LayerCount: 2
Fore
SplineSet
285.451 100.537 m 2,0,1
 197.216 2 197.216 2 84.7354 2 c 2,2,-1
 -19.4209 2 l 1,3,-1
 -19.4209 175.429 l 1,4,-1
 22.9424 175.429 l 2,5,6
 134.898 175.429 134.898 175.429 197.155 231.236 c 0,7,8
 267.741 294.595 267.741 294.595 261.652 420.422 c 2,9,-1
 220.768 1264.99 l 1,10,-1
 381.429 1336.68 l 1,11,-1
 381.429 420.325 l 2,12,13
 381.429 294.351 381.429 294.351 413.874 247.712 c 0,14,15
 464.159 175.429 464.159 175.429 624.341 175.429 c 2,16,-1
 665.653 175.429 l 1,17,-1
 665.653 2 l 1,18,-1
 562.548 2 l 2,19,20
 407.216 2 407.216 2 316.459 100.786 c 2,21,-1
 300.869 117.754 l 1,22,-1
 285.451 100.537 l 2,0,1
EndSplineSet
EndChar

StartChar: NameMe.338
Encoding: 65563 -1 295
Width: 558
VWidth: 2290
Flags: W
LayerCount: 2
Fore
SplineSet
410.828 458.524 m 2,0,1
 410.828 203.697 410.828 203.697 302.454 96.0296 c 1,2,3
 204.243 2 204.243 2 57.4355 2 c 2,4,-1
 -19.4209 2 l 1,5,-1
 -19.4209 175.429 l 1,6,-1
 13.4922 175.429 l 2,7,8
 160.56 175.429 160.56 175.429 228.317 260.089 c 0,9,10
 294.599 342.922 294.599 342.922 288.952 472.094 c 2,11,-1
 249.113 1383.7 l 1,12,-1
 410.828 1455.41 l 1,13,-1
 410.828 458.524 l 2,0,1
EndSplineSet
EndChar

StartChar: exclam
Encoding: 33 33 298
Width: 826
VWidth: 40
Flags: W
LayerCount: 2
Fore
SplineSet
553.416 233.914 m 2,0,-1
 553.416 62.7432 l 2,1,2
 553.416 37.0957 553.416 37.0957 542.875 22.3408 c 2,3,-1
 541.579 20.5273 l 1,4,-1
 540.09 18.8691 l 2,5,6
 524.942 2 524.942 2 499.854 2 c 2,7,-1
 329.881 2 l 2,8,9
 302.03 2 302.03 2 286.576 19.2217 c 0,10,11
 272.729 34.6533 272.729 34.6533 272.729 62.7432 c 2,12,-1
 272.729 232.717 l 2,13,14
 272.729 260.127 272.729 260.127 287.344 275.297 c 0,15,16
 302.535 291.066 302.535 291.066 329.881 291.066 c 2,17,-1
 496.264 291.066 l 2,18,19
 523.346 291.066 523.346 291.066 538.374 276.032 c 128,-1,20
 553.416 260.995 553.416 260.995 553.416 233.914 c 2,0,-1
278.165 1520.2 m 5,21,-1
 547.845 1520.2 l 5,22,-1
 526.419 448.25 l 1,23,-1
 300.719 448.25 l 1,24,-1
 278.165 1520.2 l 5,21,-1
EndSplineSet
EndChar

StartChar: period
Encoding: 46 46 299
Width: 661
VWidth: 2196
Flags: W
LayerCount: 2
Fore
SplineSet
471.072 20.3271 m 1,0,1
 453.018 2 453.018 2 429.305 2 c 2,2,-1
 259.331 2 l 2,3,4
 231.483 2 231.483 2 216.027 19.2217 c 0,5,6
 202.179 34.6523 202.179 34.6523 202.179 62.7432 c 2,7,-1
 202.179 232.717 l 2,8,9
 202.179 260.126 202.179 260.126 216.794 275.297 c 0,10,11
 231.985 291.066 231.985 291.066 259.331 291.066 c 2,12,-1
 425.714 291.066 l 2,13,14
 452.79 291.066 452.79 291.066 467.828 276.028 c 128,-1,15
 482.866 260.99 482.866 260.99 482.866 233.914 c 2,16,-1
 482.866 62.7432 l 2,17,18
 482.866 38.3447 482.866 38.3447 471.072 20.3271 c 1,0,1
EndSplineSet
EndChar

StartChar: colon
Encoding: 58 58 300
Width: 661
VWidth: 2196
Flags: W
LayerCount: 2
Fore
SplineSet
482.866 796.714 m 2,0,-1
 482.866 625.543 l 2,1,2
 482.866 624.722 482.866 624.722 482.969 620.25 c 128,-1,3
 483.071 615.779 483.071 615.779 482.993 613.888 c 128,-1,4
 482.916 611.996 482.916 611.996 482.308 607.54 c 128,-1,5
 481.699 603.085 481.699 603.085 480.494 599.933 c 128,-1,6
 479.29 596.78 479.29 596.78 476.906 592.308 c 128,-1,7
 474.522 587.835 474.522 587.835 471.111 583.547 c 0,8,9
 456.205 564.8 456.205 564.8 429.305 564.8 c 2,10,-1
 259.331 564.8 l 2,11,12
 231.481 564.8 231.481 564.8 216.029 582.02 c 0,13,14
 202.179 597.45 202.179 597.45 202.179 625.543 c 2,15,-1
 202.179 795.517 l 2,16,17
 202.179 822.927 202.179 822.927 216.794 838.097 c 0,18,19
 231.986 853.866 231.986 853.866 259.331 853.866 c 2,20,-1
 425.714 853.866 l 2,21,22
 452.795 853.866 452.795 853.866 467.828 838.828 c 128,-1,23
 482.866 823.791 482.866 823.791 482.866 796.714 c 2,0,-1
471.072 20.3271 m 1,24,25
 453.018 2 453.018 2 429.305 2 c 2,26,-1
 259.331 2 l 2,27,28
 231.483 2 231.483 2 216.027 19.2217 c 0,29,30
 202.179 34.6523 202.179 34.6523 202.179 62.7432 c 2,31,-1
 202.179 232.717 l 2,32,33
 202.179 260.126 202.179 260.126 216.794 275.297 c 0,34,35
 231.985 291.066 231.985 291.066 259.331 291.066 c 2,36,-1
 425.714 291.066 l 2,37,38
 452.79 291.066 452.79 291.066 467.828 276.028 c 128,-1,39
 482.866 260.99 482.866 260.99 482.866 233.914 c 2,40,-1
 482.866 62.7432 l 2,41,42
 482.866 38.3447 482.866 38.3447 471.072 20.3271 c 1,24,25
EndSplineSet
EndChar
